<?xml version="1.0" encoding="UTF-8" standalone="no"?>
<!-- Created with Inkscape (http://www.inkscape.org/) -->

<svg
   version="1.1"
   id="svg1"
   width="814.18933"
   height="814.18933"
   viewBox="0 0 814.18933 814.18933"
   xmlns="http://www.w3.org/2000/svg"
   xmlns:svg="http://www.w3.org/2000/svg">
  <defs
     id="defs1" />
  <g
     id="layer-MC0"
     style="fill:#ffffff;fill-opacity:1">
    <path
       id="path3"
       style="fill:#ffffff;fill-opacity:1;fill-rule:nonzero;stroke:none"
       d="m -113.3659,63.009288 c -2.07327,-0.01485 -3.67851,-0.629746 -4.93945,-1.981933 -3.487,-3.766 -0.92213,-10.161681 10.54687,-26.346681 1.808,-2.546 3.64693,-5.198761 5.52393,-7.905761 19.795999,-28.5720005 46.544056,-67.181834 89.206056,-50.652834 2.204,0.853 4.4625352,1.859578 6.7485352,3.017578 8.148,4.119 12.7749223,9.382685 14.0449223,18.5756845 -2.7,0 -5.0651369,2.28515631251 -7.7651369375,2.28515631251 C -1.0241734,-5.8825022 -51.423593,42.512936 -52.378593,45.023936 c -8.981,-0.185 -15.893868,1.136153 -34.713868,8.931153 l -4.488281,1.866211 c -10.399128,4.344312 -17.223958,7.22065 -21.785158,7.187988 z m 29.834474,-31.990723 c 1.732807,-0.01402 14.053126,-12.111036 26.809571,-18.669434 -0.775,5.505 -5.472867,15.483977 -4.338867,16.250977 1.121,0.767 8.610473,-9.496083 10.709473,-19.8090826 1.563,-0.944 3.021317,-1.7541446 4.299317,-2.3481446 16.202,-7.527 29.363055,-8.3469338 47.9560555,-7.23193379 1.592,0.258 2.5396758,-0.95884771 2.6176758,-2.31884771 0.083,-1.366 -0.9547774,-2.5396758 -2.3217774,-2.6176758 -4.343,-0.264 -8.4098987,-0.4248047 -12.2958989,-0.4248047 -11.081,0 -20.693876,1.3413243 -31.171876,5.2573243 -10.483,-4.849 -18.317871,-2.5627774 -18.317871,-1.1967774 0,1.36600003 8.065664,1.39482435 11.680664,3.9448243 -0.08,0.036 -0.152375,0.069074 -0.234375,0.1010743 -25.352,10.1589997 -36.433294,27.9584417 -35.550294,29.0024417 0.03477,0.04055 0.08776,0.06063 0.158203,0.06006 z"
       transform="matrix(1.3333333,0,0,-1.3333333,413.5432,467.06707)" />
    <path
       id="path4"
       style="fill:#ffffff;fill-opacity:1;fill-rule:nonzero;stroke:none"
       d="M 67.634796,14.746176 C 63.130685,15.028011 56.33505,13.366097 46.45755,10.978597 L 41.768585,9.8535973 C 22.115585,5.1675973 15.141424,4.9606988 6.3794238,6.5576988 5.0484238,4.2436988 2.2790291,2.1605931 2.9062501e-5,-4.0687501e-4 -14.854431,-16.486663 -44.21412,-26.754281 -55.52048,-29.6049 c 0.218625,0.01166 0.442362,-0.0044 0.667969,-0.05273 18.188,-4.066 31.309048,-5.349399 48.4980477,-0.483399 1.355,0.382 2.9237228,0.947372 4.6157228,1.630372 9.385,9.49 12.7410515,18.7859101 13.7270515,17.85791 0.992,-0.941 -1.779973,-9.065793 -6.7719732,-14.737793 8.9510002,0.703 28.7750512,14.628914 29.4770512,13.461914 0.709,-1.167 -19.90452,-19.358934 -39.7075202,-22.981934 -0.084,-0.016 -0.1572344,-0.03706 -0.2402344,-0.06006 1.643,-3.305 11.1189026,-4.406906 10.8999026,-5.753906 -0.193,-1.218 -9.8799965,-2.053762 -17.895997,4.094238 -5.445,-1.091 -10.591379,-1.618652 -15.713379,-1.618652 -8.816,0 -17.606727,1.443324 -27.969727,3.757324 -1.334,0.296 -2.172465,1.624985 -1.876465,2.958985 0.175812,0.781979 0.706162,1.396609 1.390137,1.708008 -1.895237,-0.449486 -3.14581,-0.646193 -3.547852,-0.581543 -0.21,-9.224 3.487012,-15.11929 10.812012,-20.44629 2.054,-1.497 4.105442,-2.840855 6.127442,-4.026855 39.1459997,-22.95 71.428779,10.738016 95.321779,35.666016 2.265,2.362 4.485715,4.67316 6.657715,6.88916 13.784,14.0800003 17.305305,19.9546845 14.487305,24.200685 -1.224375,1.8315 -3.101244,2.700527 -5.803711,2.869629 z"
       transform="matrix(1.3333333,0,0,-1.3333333,490.04293,429.38227)" />
    <path
       id="path5"
       style="display:inline;fill:#ffffff;fill-opacity:1;fill-rule:nonzero;stroke:none"
       d="M -62.144289,20.114883 C -75.081168,19.592485 -87.695583,16.30411 -98.022708,10.537735 -109.52671,4.1137346 -117.3021,-6.790145 -115.8191,-18.488145 c 0.353,-2.786 0.57507,-5.816332 2.14307,-8.465332 1.143,-1.933 12.76058,-14.313536 15.01758,-16.873536 5.465,-6.199 13.847204,-10.967731 20.408204,-16.448731 7.651,-6.391 15.097016,-12.95868 21.791016,-19.97168 6.568,-6.881 10.889152,-17.904801 11.556152,-27.320806 3.806,2.123 8.786548,5.08422 14.185548,9.09522 3.195,2.373 9.940187,11.394864 7.617187,21.109864 -1.382,5.775 -6.122051,11.043652 -11.852051,15.118652 -7.586,5.396 -16.875579,9.056598 -25.142579,13.662598 -8.036,4.477 -15.749438,9.600794 -21.023438,16.237794 -15.701,19.758 11.780251,37.3089887 35.906251,32.31298872 9.2,-1.90500002 17.381532,-7.14401592 22.769532,-13.54101572 6.795,-8.069 7.850032,-16.661173 10.207032,-25.576173 1.214,-0.942 3.3851247,-0.375109 5.2031247,0.462891 7.57800003,3.492 12.7163832,8.975094 12.8173832,16.371094 0.078,5.723 -2.5930158,11.525797 -6.41601582,16.7167973 -0.99899998,1.355 -2.08030478,2.6764728 -3.23730478,3.9594728 C -18.125284,14.175078 -40.582824,20.985547 -62.144289,20.114883 Z m 10.828125,-24.2534183 c -5.226937,0.2122969 -10.40291,-0.8019492 -15.04541,-2.3979492 -3.04,-1.045 -5.949649,-2.3517345 -8.264649,-4.1777345 -2.314,-1.827 -4.008191,-4.211836 -4.346191,-6.881836 -0.35,-2.759 0.749562,-5.627875 2.226562,-8.296875 1.567,-2.832 4.89416,-7.942419 10.26416,-10.378419 6.773869,-3.071814 12.301493,-2.334107 12.861329,-2.734863 -6.839613,7.634796 -7.529464,14.551018 -6.254883,15.150879 0.6,0.347 6.073367,-1.969468 9.026367,-2.730468 4.597,-1.185 10.101157,-0.706922 14.285157,0.955078 0.8,0.317 1.550281,0.678125 2.238281,1.078125 2.233,1.301 3.875985,3.265191 4.458985,5.471191 0.624,2.365 0.04401,4.21111 -1.833985,6.28711 -3.488,3.8559998 -8.71816,6.8102305 -14.38916,8.0112305 -1.7355,0.36725 -3.48425,0.5737656 -5.226563,0.6445312 z m 28.032716,-19.1572267 c -3.874,-3.135 -6.792653,-6.22643 -11.368653,-7.69043 -4.488,-1.435 -12.382563,-1.600332 -18.726563,0.909668 2.924,-5.666 9.855508,-9.635059 16.520508,-11.310059 6.713,-1.687 14.173016,-0.306484 16.916016,2.853516 3.498,4.03 0.910692,9.558305 -3.341308,15.237305 z m -95.882812,-6.206543 c -0.292,-1.591 -0.74837,-3.059473 -0.77637,-4.709473 -0.211,-12.578 4.29548,-27.03422 9.89648,-39.19922 5.855,-12.717 15.155173,-24.998302 29.222173,-33.508302 4.874,-2.949 10.689973,-5.18408 16.521973,-5.18408 5.833,0.001 11.533625,2.66239 12.890625,7.02539 0.465,1.493 -0.07829,5.552816 -0.196289,5.986816 -5.391,19.721 -29.287614,32.545325 -45.953614,46.882325 -4.825998,4.151 -21.930978,20.887544 -21.604978,22.706544 z M 4.0153806,-38.688341 c -0.039137,-0.0018 -0.074594,-0.0092 -0.1054688,-0.02197 -1.523,-0.629 -2.947379,-1.385415 -4.463379,-2.024415 -11.4359998,-4.817 -25.3798208,-7.47716 -33.8408208,-7.26416 -4.071,0.102 -11.988071,1.450965 -18.747071,1.688965 5.781,-3.19 11.481559,-6.082074 14.872559,-7.976074 7.343,-4.104 13.83891,-5.933126 18.98291,-16.828126 4.296,-9.1 2.257602,-17.227164 1.391602,-19.743164 11.1370001,10.965 23.1311881,38.420329 22.9921881,51.861329 -0.352625,0.09188 -0.8085625,0.320346 -1.0825195,0.307617 z"
       transform="matrix(1.3333333,0,0,-1.3333333,501.4528,318.48)" />
    <path
       id="path6"
       d="m 0,0 -13.457,16.658 3.093,2.496 L 3.093,2.496 Z"
       style="fill:#ffffff;fill-opacity:1;fill-rule:nonzero;stroke:none;stroke-opacity:1"
       transform="matrix(1.3333333,0,0,-1.3333333,492.71013,535.84613)" />
    <path
       id="path7"
       d="M 0,0 -20.709,26.472 -17.58,28.92 3.129,2.448 Z"
       style="fill:#ffffff;fill-opacity:1;fill-rule:nonzero;stroke:none;stroke-opacity:1"
       transform="matrix(1.3333333,0,0,-1.3333333,338.584,327.6256)" />
    <path
       id="path8"
       d="m 0,0 -2.932,2.681 16.487,18.022 2.932,-2.681 z"
       style="fill:#ffffff;fill-opacity:1;fill-rule:nonzero;stroke:none;stroke-opacity:1"
       transform="matrix(1.3333333,0,0,-1.3333333,338.50053,527.3864)" />
    <path
       id="path9"
       d="M 0,0 -2.914,2.705 18.533,25.83 21.447,23.125 Z"
       style="fill:#ffffff;fill-opacity:1;fill-rule:nonzero;stroke:none;stroke-opacity:1"
       transform="matrix(1.3333333,0,0,-1.3333333,506.80307,327.52213)" />
    <path
       id="path10"
       d="m 0,0 c -3.594,-0.285 -10.079,3.918 -12.185,7.137 -0.581,0.889 -0.736,1.882 -0.482,3.034 0.777,3.487 5.201,7.335 7.803,8.94 2.491,1.54 5.403,2.877 9.159,4.207 1.503,0.532 2.48,0.743 3.88,0.481 0.019,-0.003 0.044,-0.008 0.063,-0.012 1.847,-0.365 4.149,-2.146 5.75,-3.717 -0.171,0.065 -0.338,0.122 -0.498,0.178 -1.473,0.538 -3.124,1.174 -4.31,1.245 C 6.655,21.736 2.22,19.687 2.033,19.598 0.052,18.683 -2.846,17.212 -5.092,15.055 -6.258,13.936 -7.71,12.096 -8.001,9.699 -8.171,8.268 -7.891,6.747 -7.21,5.413 -6.578,4.161 -5.655,3.175 -4.552,2.549 -3.331,1.856 -1.799,1.563 0.008,1.69 2.525,1.862 5.034,2.796 7.07,4.323 8.944,5.717 11.422,7.889 11.282,10.649 11.205,12.165 10.176,13.603 8.6,14.396 6.165,15.612 2.639,15.445 0.867,13.121 -0.95,10.734 -0.251,8.931 0.136,8.262 0.296,7.996 0.848,7.126 1.627,7.229 3.047,7.423 2.884,8.968 2.806,9.71 2.777,9.938 2.743,10.286 2.761,10.381 2.95,10.903 4.045,11.95 5.266,12.102 6.244,12.214 7.03,11.753 7.632,10.866 7.715,10.575 7.654,9.479 7.531,9.24 6.209,7.467 4.318,6.123 2.22,5.453 0.734,4.977 -0.619,4.895 -1.835,5.261 c -1.292,0.386 -2.337,1.355 -2.659,2.47 -0.579,2.023 1.008,4.133 1.508,4.734 1.42,1.702 3.582,2.674 5.821,3.678 2.233,0.999 4.343,1.942 6.993,1.663 C 12.126,17.579 15.997,15.524 16.295,14 16.613,12.406 16.133,10.575 14.864,8.556 11.849,3.757 6.154,0.475 0,0 m -4.273,23.393 -0.97,-0.454 c -6.198,-2.887 -9.997,-7.002 -11.289,-12.228 -1.751,1.474 -4.352,4.006 -6.343,5.946 -1.22,1.192 -2.251,2.198 -2.813,2.696 l -0.334,0.286 c -8.126,7.105 -10.748,10.894 -11.522,12.822 -1.107,2.771 -0.964,6.029 0.377,8.709 1.418,2.849 3.751,5.12 6.057,7.148 1.468,1.292 4.144,2.628 6.221,3.111 0.822,0.188 1.564,0.193 2.273,0.06 1.559,-0.291 2.946,-1.252 4.559,-2.373 0.407,-0.28 0.819,-0.567 1.244,-0.849 7.017,-4.656 9.891,-7.377 15.625,-12.797 L 1.135,33.272 C 2.567,31.922 3.818,30.83 4.838,29.937 5.864,29.044 6.919,28.125 7.328,27.616 7.163,27.575 6.911,27.524 6.529,27.477 3.69,27.129 -0.909,24.974 -4.273,23.393 m 23.705,-4.892 c -1.301,4.125 -4.729,7.211 -7.479,9.686 -2.532,2.277 -5.032,4.613 -7.539,6.95 -4.944,4.623 -10.063,9.403 -15.395,13.672 -5.964,4.78 -11.487,8.449 -18.694,4.899 -5.719,-2.812 -10.51,-8.584 -11.931,-14.363 -0.988,-4.019 -0.313,-7.771 1.949,-10.856 2.408,-3.289 6.473,-6.967 10.057,-10.207 1.217,-1.1 2.378,-2.15 3.38,-3.104 1.649,-1.561 3.351,-3.289 5.088,-5.05 6.299,-6.39 12.785,-12.973 18.834,-14.104 0.849,-0.159 1.692,-0.212 2.525,-0.138 5.471,0.472 8.91,2.766 12.239,5.284 2.85,2.162 5.126,5.073 6.39,8.187 1.281,3.131 1.479,6.293 0.576,9.144"
       style="fill:#ffffff;fill-opacity:1;fill-rule:nonzero;stroke:none;stroke-opacity:1"
       transform="matrix(1.3333333,0,0,-1.3333333,564.3024,314.16707)" />
    <path
       id="path11"
       d="m 0,0 c -1.119,2.105 -1.465,3.966 -1.032,5.533 0.409,1.499 4.419,3.267 6.728,3.326 2.662,0.085 4.698,-1.008 6.852,-2.167 2.161,-1.164 4.247,-2.291 5.539,-4.091 0.455,-0.636 1.885,-2.855 1.16,-4.831 -0.402,-1.089 -1.515,-1.98 -2.831,-2.271 -1.24,-0.276 -2.583,-0.096 -4.031,0.487 -2.044,0.82 -3.832,2.299 -5.021,4.162 C 7.258,0.396 7.277,1.494 7.381,1.778 8.046,2.618 8.863,3.022 9.83,2.839 11.038,2.598 12.053,1.474 12.204,0.94 12.215,0.844 12.156,0.5 12.11,0.274 c -0.131,-0.735 -0.406,-2.264 0.995,-2.56 0.771,-0.16 1.384,0.668 1.563,0.922 0.434,0.639 1.262,2.386 -0.376,4.9 C 12.693,5.982 9.189,6.405 6.672,5.369 5.043,4.693 3.912,3.333 3.725,1.827 c -0.34,-2.743 1.974,-5.09 3.741,-6.616 1.92,-1.671 4.354,-2.785 6.852,-3.139 1.793,-0.258 3.342,-0.078 4.61,0.526 1.145,0.544 2.138,1.46 2.859,2.663 0.777,1.281 1.166,2.777 1.101,4.216 C 22.772,1.89 21.457,3.83 20.375,5.031 18.292,7.346 15.509,9.023 13.6,10.079 13.42,10.182 9.145,12.548 6.61,12.49 5.421,12.505 3.728,11.99 2.22,11.561 2.056,11.516 1.886,11.471 1.71,11.419 c 1.711,1.451 4.137,3.06 6.005,3.29 0.019,0.002 0.045,0.005 0.064,0.007 1.416,0.16 2.375,-0.122 3.835,-0.761 3.65,-1.6 6.457,-3.145 8.829,-4.863 2.478,-1.789 6.611,-5.948 7.132,-9.482 0.171,-1.168 -0.056,-2.147 -0.701,-2.991 C 24.54,-6.44 17.767,-10.16 14.203,-9.614 8.1,-8.693 2.659,-5.006 0,0 m 9.689,18.265 c -0.378,0.074 -0.626,0.143 -0.788,0.196 0.446,0.479 1.564,1.318 2.652,2.135 1.082,0.815 2.41,1.814 3.937,3.057 l 2.476,2.023 c 6.112,4.988 9.177,7.493 16.513,11.627 0.445,0.251 0.877,0.507 1.303,0.756 1.69,1.001 3.144,1.859 4.719,2.036 0.718,0.081 1.457,0.022 2.263,-0.225 2.037,-0.633 4.608,-2.159 5.978,-3.555 2.153,-2.19 4.315,-4.625 5.522,-7.57 1.142,-2.77 1.049,-6.03 -0.257,-8.713 C 53.095,18.165 50.204,14.578 41.583,8.081 L 41.23,7.821 C 40.633,7.364 39.531,6.436 38.228,5.336 36.101,3.547 33.323,1.21 31.47,-0.133 30.561,5.173 27.072,9.554 21.1,12.883 l -0.935,0.523 c -3.24,1.821 -7.671,4.306 -10.476,4.859 M -3.923,1.089 c 1.034,-3.198 3.092,-6.267 5.778,-8.63 3.137,-2.754 6.4,-5.292 11.822,-6.16 0.826,-0.134 1.67,-0.143 2.528,-0.046 6.117,0.689 13.064,6.783 19.811,12.699 1.859,1.629 3.683,3.229 5.441,4.666 1.068,0.879 2.302,1.842 3.596,2.85 3.81,2.971 8.132,6.344 10.772,9.45 2.481,2.912 3.427,6.605 2.734,10.684 C 57.561,32.47 53.203,38.575 47.703,41.795 40.773,45.859 34.998,42.602 28.702,38.267 23.074,34.397 17.622,30.002 12.354,25.751 9.684,23.602 7.021,21.454 4.331,19.367 1.408,17.099 -2.236,14.269 -3.833,10.25 -4.94,7.473 -4.973,4.304 -3.923,1.089"
       style="fill:#ffffff;fill-opacity:1;fill-rule:nonzero;stroke:none;stroke-opacity:1"
       transform="matrix(1.3333333,0,0,-1.3333333,258.5688,298.28533)" />
    <path
       id="path12"
       d="m 0,0 c 0.341,-0.33 0.644,-0.686 0.863,-1.074 0.303,-0.543 0.366,-1.241 0.27,-1.609 -0.956,-1.347 -30.941,-32.682 -33.53,-35.162 -0.179,-0.172 -0.506,-0.522 -1.027,-1.084 -0.197,-0.209 -0.409,-0.434 -0.625,-0.662 -0.781,1.195 -1.989,2.125 -3.644,2.802 l -0.306,0.128 c -0.682,0.279 -1.326,0.541 -1.93,0.75 0.143,0.147 0.301,0.303 0.464,0.472 l 0.701,0.728 c 4.041,4.195 32.872,33.841 34.818,35.265 l 0.326,0.248 c 0.392,0.298 0.727,0.555 0.963,0.611 0.096,0.023 0.182,0.025 0.281,0.008 0.475,-0.086 1.163,-0.389 1.5,-0.661 C -0.577,0.518 -0.275,0.267 0,0 m -32.098,-42.37 0.006,0.007 0.042,0.049 c 0.5,0.553 0.984,1.096 1.451,1.583 l 1.007,1.013 c 0.216,0.215 32.489,33.358 33.32,34.614 0.846,1.272 1.06,2.824 0.599,4.381 C 3.692,1.41 1.883,3.384 -0.262,4.325 -3.42,5.703 -5.726,3.67 -7.251,2.324 -8.239,1.456 -25.516,-16.259 -40.903,-32.089 l -1.544,-1.591 c -0.639,-0.653 -1.282,-1.309 -1.947,-1.962 -0.87,-0.866 -2.069,-2.051 -2.488,-3.652 -0.312,-1.165 -0.182,-2.419 0.378,-3.624 0.359,-0.773 0.881,-1.498 1.525,-2.123 0.303,-0.294 0.633,-0.566 0.988,-0.807 1.172,-0.805 2.49,-1.598 4.523,-1.678 0.36,-0.016 0.726,0.023 1.082,0.109 2.224,0.522 4.289,2.825 6.288,5.047"
       style="fill:#ffffff;fill-opacity:1;fill-rule:nonzero;stroke:none;stroke-opacity:1"
       transform="matrix(1.3333333,0,0,-1.3333333,335.32733,527.31147)" />
    <path
       id="path13"
       d="m 0,0 c 0.364,0.305 0.749,0.571 1.157,0.748 0.572,0.246 1.272,0.237 1.628,0.103 1.242,-1.089 29.328,-34.137 31.529,-36.967 0.153,-0.196 0.467,-0.557 0.973,-1.133 0.187,-0.218 0.389,-0.452 0.594,-0.689 -1.269,-0.655 -2.319,-1.761 -3.162,-3.337 l -0.159,-0.292 c -0.348,-0.649 -0.674,-1.263 -0.944,-1.842 -0.132,0.157 -0.271,0.33 -0.422,0.51 l -0.652,0.772 C 26.785,-37.677 0.26,-5.95 -0.956,-3.868 l -0.214,0.349 c -0.256,0.422 -0.478,0.781 -0.509,1.022 -0.013,0.097 -0.005,0.183 0.022,0.279 0.133,0.464 0.506,1.117 0.811,1.424 C -0.574,-0.521 -0.294,-0.246 0,0 m 38.845,-36.284 -0.005,0.007 -0.046,0.047 c -0.498,0.554 -0.988,1.092 -1.425,1.606 l -0.903,1.106 C 36.273,-33.282 6.624,2.228 5.46,3.183 4.282,4.156 2.761,4.528 1.164,4.23 -1.023,3.817 -3.173,2.221 -4.329,0.184 c -1.695,-2.999 0.09,-5.502 1.272,-7.158 0.762,-1.072 16.607,-20.078 30.771,-37.012 l 1.423,-1.698 c 0.584,-0.704 1.171,-1.411 1.752,-2.139 0.772,-0.955 1.827,-2.269 3.377,-2.85 1.127,-0.43 2.388,-0.43 3.644,0.003 0.806,0.278 1.581,0.722 2.268,1.298 0.324,0.272 0.629,0.572 0.905,0.9 0.92,1.084 1.845,2.313 2.134,4.327 0.053,0.357 0.051,0.725 0.003,1.087 -0.291,2.267 -2.37,4.558 -4.375,6.774"
       style="fill:#ffffff;fill-opacity:1;fill-rule:nonzero;stroke:none;stroke-opacity:1"
       transform="matrix(1.3333333,0,0,-1.3333333,496.46627,535.4652)" />
    <path
       id="path18"
       d="M 0,0 -1.947,-5.764 C -2.136,-6.132 -2.42,-6.406 -2.749,-6.537 L -8.515,-7.533 C -8.908,-7.69 -8.976,-8.36 -8.627,-8.638 l 5.69,-2.915 c 0.207,-0.165 0.379,-0.392 0.501,-0.661 l 1.818,-6.04 c 0.166,-0.368 0.569,-0.415 0.785,-0.091 l 2.865,6.089 c 0.121,0.181 0.268,0.332 0.432,0.444 l 5.736,2.58 c 0.375,0.255 0.325,0.958 -0.08,1.124 L 3.241,-6.626 C 2.887,-6.482 2.588,-6.173 2.404,-5.763 L 0.822,-0.031 C 0.644,0.368 0.197,0.384 0,0"
       style="fill:#ffffff;fill-opacity:1;fill-rule:nonzero;stroke:none;stroke-opacity:1"
       transform="matrix(1.3333333,0,0,-1.3333333,374.84747,217.83747)" />
    <path
       id="path19"
       d="M 0,0 -1.947,-5.764 C -2.136,-6.132 -2.42,-6.406 -2.749,-6.537 L -8.515,-7.533 C -8.908,-7.69 -8.976,-8.36 -8.627,-8.638 l 5.69,-2.915 c 0.207,-0.165 0.379,-0.392 0.501,-0.661 l 1.818,-6.04 c 0.166,-0.368 0.569,-0.415 0.785,-0.091 l 2.865,6.089 c 0.121,0.181 0.268,0.332 0.432,0.444 l 5.736,2.58 c 0.375,0.255 0.325,0.958 -0.08,1.124 L 3.241,-6.626 C 2.887,-6.482 2.588,-6.173 2.404,-5.763 L 0.822,-0.031 C 0.644,0.368 0.197,0.385 0,0"
       style="fill:#ffffff;fill-opacity:1;fill-rule:nonzero;stroke:none;stroke-opacity:1"
       transform="matrix(1.3333333,0,0,-1.3333333,301.30107,332.5588)" />
    <path
       id="path20"
       d="M 0,0 -1.947,-5.764 C -2.136,-6.132 -2.42,-6.406 -2.749,-6.537 L -8.515,-7.533 C -8.908,-7.69 -8.976,-8.36 -8.627,-8.638 l 5.69,-2.915 c 0.207,-0.165 0.379,-0.392 0.501,-0.661 l 1.818,-6.04 c 0.166,-0.368 0.569,-0.415 0.785,-0.091 l 2.865,6.089 c 0.121,0.181 0.268,0.332 0.432,0.444 l 5.736,2.58 c 0.375,0.255 0.325,0.958 -0.08,1.124 L 3.241,-6.626 C 2.887,-6.482 2.588,-6.173 2.404,-5.763 L 0.822,-0.031 C 0.644,0.368 0.197,0.385 0,0"
       style="fill:#ffffff;fill-opacity:1;fill-rule:nonzero;stroke:none;stroke-opacity:1"
       transform="matrix(1.3333333,0,0,-1.3333333,460.8512,527.68387)" />
    <path
       id="path21"
       d="M 0,0 -1.952,-3.594 C -2.141,-3.962 -2.424,-4.236 -2.754,-4.367 L -8.52,-5.363 C -8.912,-5.52 -8.98,-6.19 -8.631,-6.468 l 5.69,-2.915 c 0.207,-0.165 0.378,-0.392 0.5,-0.661 l 2.299,-4.335 c 0.167,-0.368 0.57,-0.415 0.785,-0.09 l 2.385,4.383 c 0.121,0.181 0.267,0.332 0.432,0.444 l 5.735,2.58 c 0.375,0.256 0.325,0.958 -0.08,1.124 L 3.236,-4.456 C 2.882,-4.312 2.584,-4.003 2.4,-3.593 L 0.822,-0.031 C 0.644,0.368 0.197,0.384 0,0"
       style="fill:#ffffff;fill-opacity:1;fill-rule:nonzero;stroke:none;stroke-opacity:1"
       transform="matrix(1.3333333,0,0,-1.3333333,434.6052,249.87747)" />
    <path
       id="path22"
       d="M 0,0 -1.952,-3.594 C -2.141,-3.962 -2.424,-4.236 -2.754,-4.367 L -8.52,-5.363 C -8.912,-5.52 -8.98,-6.19 -8.631,-6.468 l 5.69,-2.915 c 0.207,-0.165 0.378,-0.392 0.5,-0.661 l 2.299,-4.335 c 0.167,-0.368 0.57,-0.415 0.785,-0.09 l 2.385,4.383 c 0.121,0.181 0.267,0.332 0.432,0.444 l 5.735,2.58 c 0.375,0.256 0.325,0.958 -0.08,1.124 L 3.236,-4.456 C 2.882,-4.312 2.584,-4.003 2.4,-3.593 L 0.822,-0.031 C 0.644,0.368 0.197,0.384 0,0"
       style="fill:#ffffff;fill-opacity:1;fill-rule:nonzero;stroke:none;stroke-opacity:1"
       transform="matrix(1.3333333,0,0,-1.3333333,573.77587,506.05573)" />
    <path
       id="path23"
       d="M 0,0 -1.952,-3.594 C -2.141,-3.962 -2.424,-4.236 -2.754,-4.367 L -8.52,-5.363 C -8.912,-5.52 -8.98,-6.19 -8.631,-6.468 l 5.69,-2.915 c 0.207,-0.165 0.378,-0.392 0.5,-0.661 l 2.299,-4.335 c 0.167,-0.368 0.57,-0.414 0.785,-0.09 l 2.385,4.383 c 0.121,0.181 0.267,0.332 0.432,0.444 l 5.735,2.58 c 0.375,0.256 0.325,0.958 -0.08,1.124 L 3.236,-4.456 C 2.882,-4.312 2.584,-4.003 2.4,-3.592 L 0.822,-0.031 C 0.644,0.368 0.197,0.385 0,0"
       style="fill:#ffffff;fill-opacity:1;fill-rule:nonzero;stroke:none;stroke-opacity:1"
       transform="matrix(1.3333333,0,0,-1.3333333,264.03933,486.1796)" />
    <path
       id="path24"
       d="M 0,0 -1.952,-3.594 C -2.141,-3.962 -2.424,-4.236 -2.754,-4.367 L -8.52,-5.363 C -8.912,-5.52 -8.98,-6.19 -8.631,-6.468 l 5.69,-2.915 c 0.206,-0.165 0.378,-0.392 0.5,-0.661 l 2.299,-4.335 c 0.167,-0.368 0.57,-0.414 0.785,-0.09 l 2.385,4.383 c 0.121,0.181 0.267,0.332 0.432,0.444 l 5.735,2.58 c 0.375,0.256 0.325,0.958 -0.08,1.124 L 3.236,-4.456 C 2.882,-4.312 2.584,-4.003 2.4,-3.593 L 0.822,-0.031 C 0.644,0.368 0.197,0.385 0,0"
       style="fill:#ffffff;fill-opacity:1;fill-rule:nonzero;stroke:none;stroke-opacity:1"
       transform="matrix(1.3333333,0,0,-1.3333333,434.35573,580.2676)" />
    <path
       id="path25"
       d="m 0,0 -2.935,-9.673 c -0.189,-0.369 -0.473,-0.642 -0.802,-0.773 l -5.766,-0.997 c -0.393,-0.156 -0.461,-0.827 -0.112,-1.104 l 5.69,-2.915 c 0.207,-0.165 0.379,-0.392 0.501,-0.661 l 1.36,-9.923 c 0.166,-0.368 0.57,-0.415 0.785,-0.091 l 3.949,9.972 c 0.121,0.181 0.267,0.332 0.432,0.444 l 5.11,2.58 c 0.375,0.255 0.325,0.958 -0.08,1.123 l -5.03,1.482 c -0.354,0.145 -0.652,0.453 -0.836,0.864 L 0.822,-0.031 C 0.644,0.368 0.197,0.385 0,0"
       style="fill:#ffffff;fill-opacity:1;fill-rule:nonzero;stroke:none;stroke-opacity:1"
       transform="matrix(1.3333333,0,0,-1.3333333,481.1808,208.54027)" />
    <path
       id="path26"
       d="m 0,0 -2.935,-9.673 c -0.189,-0.369 -0.473,-0.642 -0.802,-0.773 l -5.766,-0.997 c -0.393,-0.156 -0.461,-0.827 -0.112,-1.104 l 5.69,-2.915 c 0.207,-0.165 0.379,-0.392 0.501,-0.661 l 1.36,-9.923 c 0.166,-0.368 0.57,-0.415 0.785,-0.091 l 3.949,9.972 c 0.121,0.181 0.267,0.332 0.432,0.444 l 5.11,2.58 c 0.375,0.255 0.325,0.958 -0.08,1.123 l -5.03,1.482 c -0.354,0.145 -0.652,0.453 -0.836,0.864 L 0.822,-0.031 C 0.644,0.368 0.197,0.384 0,0"
       style="fill:#ffffff;fill-opacity:1;fill-rule:nonzero;stroke:none;stroke-opacity:1"
       transform="matrix(1.3333333,0,0,-1.3333333,553.38333,345.24587)" />
    <path
       id="path27"
       d="m 0,0 -2.935,-9.673 c -0.189,-0.369 -0.473,-0.642 -0.802,-0.773 l -5.766,-0.997 c -0.393,-0.156 -0.461,-0.827 -0.112,-1.104 l 5.69,-2.915 c 0.207,-0.165 0.379,-0.392 0.501,-0.661 l 1.36,-9.923 c 0.166,-0.368 0.57,-0.415 0.785,-0.091 l 3.949,9.972 c 0.121,0.181 0.267,0.332 0.432,0.444 l 5.11,2.58 c 0.375,0.255 0.325,0.958 -0.08,1.123 l -5.03,1.482 c -0.354,0.145 -0.652,0.453 -0.836,0.864 L 0.822,-0.031 C 0.644,0.368 0.197,0.385 0,0"
       style="fill:#ffffff;fill-opacity:1;fill-rule:nonzero;stroke:none;stroke-opacity:1"
       transform="matrix(1.3333333,0,0,-1.3333333,378.79467,535.66947)" />
  </g>
</svg>
