<?xml version="1.0" encoding="UTF-8" standalone="no"?>
<!-- Created with Inkscape (http://www.inkscape.org/) -->

<svg
   version="1.1"
   id="svg1"
   width="814.18933"
   height="814.18933"
   viewBox="0 0 814.18933 814.18933"
   xmlns="http://www.w3.org/2000/svg"
   xmlns:svg="http://www.w3.org/2000/svg">
  <defs
     id="defs1" />
  <g
     id="layer-MC0">
    <path
       id="path3"
       style="fill:#000000;fill-opacity:1;fill-rule:nonzero;stroke:none"
       d="M -113.3659 63.009288 C -115.43917 62.994442 -117.04441 62.379542 -118.30535 61.027355 C -121.79235 57.261355 -119.22748 50.865674 -107.75848 34.680674 C -105.95048 32.134674 -104.11155 29.481913 -102.23455 26.774913 C -82.438551 -1.7970875 -55.690494 -40.406921 -13.028494 -23.877921 C -10.824494 -23.024921 -8.5659588 -22.018343 -6.2799588 -20.860343 C 1.8680412 -16.741343 6.4949635 -11.477658 7.7649635 -2.2846585 C 5.0649635 -2.2846585 2.6998266 0.00049781251 -0.0001734375 0.00049781251 C -1.0241734 -5.8825022 -51.423593 42.512936 -52.378593 45.023936 C -61.359593 44.838936 -68.272461 46.160089 -87.092461 53.955089 L -91.580742 55.8213 C -101.97987 60.165612 -108.8047 63.04195 -113.3659 63.009288 z M -83.531426 31.018565 C -81.798619 31.004547 -69.4783 18.907529 -56.721855 12.349131 C -57.496855 17.854131 -62.194722 27.833108 -61.060722 28.600108 C -59.939722 29.367108 -52.450249 19.104025 -50.351249 8.7910254 C -48.788249 7.8470254 -47.329932 7.0368808 -46.051932 6.4428808 C -29.849932 -1.0841192 -16.688877 -1.904053 1.9041235 -0.78905299 C 3.4961235 -0.53105299 4.4437993 -1.7479007 4.5217993 -3.1079007 C 4.6047993 -4.4739007 3.5670219 -5.6475765 2.2000219 -5.7255765 C -2.1429781 -5.9895765 -6.2098768 -6.1503812 -10.095877 -6.1503812 C -21.176877 -6.1503812 -30.789753 -4.8090569 -41.267753 -0.8930569 C -51.750753 -5.7420569 -59.585624 -3.4558343 -59.585624 -2.0898343 C -59.585624 -0.72383427 -51.51996 -0.69500995 -47.90496 1.85499 C -47.98496 1.89099 -48.057335 1.9240643 -48.139335 1.9560643 C -73.491335 12.115064 -84.572629 29.914506 -83.689629 30.958506 C -83.654863 30.999053 -83.601865 31.019135 -83.531426 31.018565 z "
       transform="matrix(1.3333333,0,0,-1.3333333,413.5432,467.06707)" />
    <path
       id="path4"
       style="fill:#000000;fill-opacity:1;fill-rule:nonzero;stroke:none"
       d="M 67.634796 14.746176 C 63.130685 15.028011 56.33505 13.366097 46.45755 10.978597 L 41.768585 9.8535973 C 22.115585 5.1675973 15.141424 4.9606988 6.3794238 6.5576988 C 5.0484238 4.2436988 2.2790291 2.1605931 2.9062501e-05 -0.00040687501 C -14.854431 -16.486663 -44.21412 -26.754281 -55.52048 -29.6049 C -55.301855 -29.593243 -55.078118 -29.609278 -54.852511 -29.657634 C -36.664511 -33.723634 -23.543463 -35.007033 -6.3544633 -30.141033 C -4.9994633 -29.759033 -3.4307405 -29.193661 -1.7387405 -28.510661 C 7.6462595 -19.020661 11.002311 -9.7247509 11.988311 -10.652751 C 12.980311 -11.593751 10.208338 -19.718544 5.2163378 -25.390544 C 14.167338 -24.687544 33.991389 -10.76163 34.693389 -11.92863 C 35.402389 -13.09563 14.788869 -31.287564 -5.0141312 -34.910564 C -5.0981312 -34.926564 -5.1713656 -34.947623 -5.2543656 -34.970623 C -3.6113656 -38.275623 5.864537 -39.377529 5.645537 -40.724529 C 5.452537 -41.942529 -4.2344595 -42.778291 -12.25046 -36.630291 C -17.69546 -37.721291 -22.841839 -38.248943 -27.963839 -38.248943 C -36.779839 -38.248943 -45.570566 -36.805619 -55.933566 -34.491619 C -57.267566 -34.195619 -58.106031 -32.866634 -57.810031 -31.532634 C -57.634219 -30.750655 -57.103869 -30.136025 -56.419894 -29.824626 C -58.315131 -30.274112 -59.565704 -30.470819 -59.967746 -30.406169 C -60.177746 -39.630169 -56.480734 -45.525459 -49.155734 -50.852459 C -47.101734 -52.349459 -45.050292 -53.693314 -43.028292 -54.879314 C -3.8822923 -77.829314 28.400487 -44.141298 52.293487 -19.213298 C 54.558487 -16.851298 56.779202 -14.540138 58.951202 -12.324138 C 72.735202 1.7558623 76.256507 7.6305465 73.438507 11.876547 C 72.214132 13.708047 70.337263 14.577074 67.634796 14.746176 z "
       transform="matrix(1.3333333,0,0,-1.3333333,490.04293,429.38227)" />
    <path
       id="path5"
       style="display:inline;fill:#000000;fill-opacity:1;fill-rule:nonzero;stroke:none"
       d="M -62.144289 20.114883 C -75.081168 19.592485 -87.695583 16.30411 -98.022708 10.537735 C -109.52671 4.1137346 -117.3021 -6.790145 -115.8191 -18.488145 C -115.4661 -21.274145 -115.24403 -24.304477 -113.67603 -26.953477 C -112.53303 -28.886477 -100.91545 -41.267013 -98.65845 -43.827013 C -93.19345 -50.026013 -84.811246 -54.794744 -78.250246 -60.275744 C -70.599246 -66.666744 -63.15323 -73.234424 -56.45923 -80.247424 C -49.89123 -87.128424 -45.570078 -98.152225 -44.903078 -107.56823 C -41.097078 -105.44523 -36.11653 -102.48401 -30.71753 -98.47301 C -27.52253 -96.10001 -20.777343 -87.078146 -23.100343 -77.363146 C -24.482343 -71.588146 -29.222394 -66.319494 -34.952394 -62.244494 C -42.538394 -56.848494 -51.827973 -53.187896 -60.094973 -48.581896 C -68.130973 -44.104896 -75.844411 -38.981102 -81.118411 -32.344102 C -96.819411 -12.586102 -69.33816 4.9648867 -45.21216 -0.031113282 C -36.01216 -1.9361133 -27.830628 -7.1751292 -22.442628 -13.572129 C -15.647628 -21.641129 -14.592596 -30.233302 -12.235596 -39.148302 C -11.021596 -40.090302 -8.8504713 -39.523411 -7.0324713 -38.685411 C 0.54552873 -35.193411 5.6839119 -29.710317 5.7849119 -22.314317 C 5.8629119 -16.591317 3.1918961 -10.78852 -0.63110392 -5.5975197 C -1.6301039 -4.2425197 -2.7114087 -2.9210469 -3.8684087 -1.6380469 C -18.125284 14.175078 -40.582824 20.985547 -62.144289 20.114883 z M -51.316164 -4.1385353 C -56.543101 -3.9262384 -61.719074 -4.9404845 -66.361574 -6.5364845 C -69.401574 -7.5814845 -72.311223 -8.888219 -74.626223 -10.714219 C -76.940223 -12.541219 -78.634414 -14.926055 -78.972414 -17.596055 C -79.322414 -20.355055 -78.222852 -23.22393 -76.745852 -25.89293 C -75.178852 -28.72493 -71.851692 -33.835349 -66.481692 -36.271349 C -59.707823 -39.343163 -54.180199 -38.605456 -53.620363 -39.006212 C -60.459976 -31.371416 -61.149827 -24.455194 -59.875246 -23.855333 C -59.275246 -23.508333 -53.801879 -25.824801 -50.848879 -26.585801 C -46.251879 -27.770801 -40.747722 -27.292723 -36.563722 -25.630723 C -35.763722 -25.313723 -35.013441 -24.952598 -34.325441 -24.552598 C -32.092441 -23.251598 -30.449456 -21.287407 -29.866456 -19.081407 C -29.242456 -16.716407 -29.822441 -14.870297 -31.700441 -12.794297 C -35.188441 -8.9382972 -40.418601 -5.9840665 -46.089601 -4.7830665 C -47.825101 -4.4158165 -49.573851 -4.2093009 -51.316164 -4.1385353 z M -23.283448 -23.295762 C -27.157448 -26.430762 -30.076101 -29.522192 -34.652101 -30.986192 C -39.140101 -32.421192 -47.034664 -32.586524 -53.378664 -30.076524 C -50.454664 -35.742524 -43.523156 -39.711583 -36.858156 -41.386583 C -30.145156 -43.073583 -22.68514 -41.693067 -19.94214 -38.533067 C -16.44414 -34.503067 -19.031448 -28.974762 -23.283448 -23.295762 z M -119.16626 -29.502305 C -119.45826 -31.093305 -119.91463 -32.561778 -119.94263 -34.211778 C -120.15363 -46.789778 -115.64715 -61.245998 -110.04615 -73.410998 C -104.19115 -86.127998 -94.890977 -98.4093 -80.823977 -106.9193 C -75.949977 -109.8683 -70.134004 -112.10338 -64.302004 -112.10338 C -58.469004 -112.10238 -52.768379 -109.44099 -51.411379 -105.07799 C -50.946379 -103.58499 -51.489668 -99.525174 -51.607668 -99.091174 C -56.998668 -79.370174 -80.895282 -66.545849 -97.561282 -52.208849 C -102.38728 -48.057849 -119.49226 -31.321305 -119.16626 -29.502305 z M 4.0153806 -38.688341 C 3.9762439 -38.690159 3.9407868 -38.697563 3.9099118 -38.710313 C 2.3869118 -39.339313 0.9625328 -40.095728 -0.5534672 -40.734728 C -11.989467 -45.551728 -25.933288 -48.211888 -34.394288 -47.998888 C -38.465288 -47.896888 -46.382359 -46.547923 -53.141359 -46.309923 C -47.360359 -49.499923 -41.6598 -52.391997 -38.2688 -54.285997 C -30.9258 -58.389997 -24.42989 -60.219123 -19.28589 -71.114123 C -14.98989 -80.214123 -17.028288 -88.341287 -17.894288 -90.857287 C -6.7572879 -79.892287 5.2369001 -52.436958 5.0979001 -38.995958 C 4.7452751 -38.904083 4.2893376 -38.675612 4.0153806 -38.688341 z "
       transform="matrix(1.3333333,0,0,-1.3333333,501.4528,318.48)" />
    <path
       id="path6"
       d="m 0,0 -13.457,16.658 3.093,2.496 L 3.093,2.496 Z"
       style="fill:#000000;fill-opacity:1;fill-rule:nonzero;stroke:none;stroke-opacity:1"
       transform="matrix(1.3333333,0,0,-1.3333333,492.71013,535.84613)" />
    <path
       id="path7"
       d="M 0,0 -20.709,26.472 -17.58,28.92 3.129,2.448 Z"
       style="fill:#000000;fill-opacity:1;fill-rule:nonzero;stroke:none;stroke-opacity:1"
       transform="matrix(1.3333333,0,0,-1.3333333,338.584,327.6256)" />
    <path
       id="path8"
       d="m 0,0 -2.932,2.681 16.487,18.022 2.932,-2.681 z"
       style="fill:#000000;fill-opacity:1;fill-rule:nonzero;stroke:none;stroke-opacity:1"
       transform="matrix(1.3333333,0,0,-1.3333333,338.50053,527.3864)" />
    <path
       id="path9"
       d="M 0,0 -2.914,2.705 18.533,25.83 21.447,23.125 Z"
       style="fill:#000000;fill-opacity:1;fill-rule:nonzero;stroke:none;stroke-opacity:1"
       transform="matrix(1.3333333,0,0,-1.3333333,506.80307,327.52213)" />
    <path
       id="path10"
       d="m 0,0 c -3.594,-0.285 -10.079,3.918 -12.185,7.137 -0.581,0.889 -0.736,1.882 -0.482,3.034 0.777,3.487 5.201,7.335 7.803,8.94 2.491,1.54 5.403,2.877 9.159,4.207 1.503,0.532 2.48,0.743 3.88,0.481 0.019,-0.003 0.044,-0.008 0.063,-0.012 1.847,-0.365 4.149,-2.146 5.75,-3.717 -0.171,0.065 -0.338,0.122 -0.498,0.178 -1.473,0.538 -3.124,1.174 -4.31,1.245 C 6.655,21.736 2.22,19.687 2.033,19.598 0.052,18.683 -2.846,17.212 -5.092,15.055 -6.258,13.936 -7.71,12.096 -8.001,9.699 -8.171,8.268 -7.891,6.747 -7.21,5.413 -6.578,4.161 -5.655,3.175 -4.552,2.549 -3.331,1.856 -1.799,1.563 0.008,1.69 2.525,1.862 5.034,2.796 7.07,4.323 8.944,5.717 11.422,7.889 11.282,10.649 11.205,12.165 10.176,13.603 8.6,14.396 6.165,15.612 2.639,15.445 0.867,13.121 -0.95,10.734 -0.251,8.931 0.136,8.262 0.296,7.996 0.848,7.126 1.627,7.229 3.047,7.423 2.884,8.968 2.806,9.71 2.777,9.938 2.743,10.286 2.761,10.381 2.95,10.903 4.045,11.95 5.266,12.102 6.244,12.214 7.03,11.753 7.632,10.866 7.715,10.575 7.654,9.479 7.531,9.24 6.209,7.467 4.318,6.123 2.22,5.453 0.734,4.977 -0.619,4.895 -1.835,5.261 c -1.292,0.386 -2.337,1.355 -2.659,2.47 -0.579,2.023 1.008,4.133 1.508,4.734 1.42,1.702 3.582,2.674 5.821,3.678 2.233,0.999 4.343,1.942 6.993,1.663 C 12.126,17.579 15.997,15.524 16.295,14 16.613,12.406 16.133,10.575 14.864,8.556 11.849,3.757 6.154,0.475 0,0 m -4.273,23.393 -0.97,-0.454 c -6.198,-2.887 -9.997,-7.002 -11.289,-12.228 -1.751,1.474 -4.352,4.006 -6.343,5.946 -1.22,1.192 -2.251,2.198 -2.813,2.696 l -0.334,0.286 c -8.126,7.105 -10.748,10.894 -11.522,12.822 -1.107,2.771 -0.964,6.029 0.377,8.709 1.418,2.849 3.751,5.12 6.057,7.148 1.468,1.292 4.144,2.628 6.221,3.111 0.822,0.188 1.564,0.193 2.273,0.06 1.559,-0.291 2.946,-1.252 4.559,-2.373 0.407,-0.28 0.819,-0.567 1.244,-0.849 7.017,-4.656 9.891,-7.377 15.625,-12.797 L 1.135,33.272 C 2.567,31.922 3.818,30.83 4.838,29.937 5.864,29.044 6.919,28.125 7.328,27.616 7.163,27.575 6.911,27.524 6.529,27.477 3.69,27.129 -0.909,24.974 -4.273,23.393 m 23.705,-4.892 c -1.301,4.125 -4.729,7.211 -7.479,9.686 -2.532,2.277 -5.032,4.613 -7.539,6.95 -4.944,4.623 -10.063,9.403 -15.395,13.672 -5.964,4.78 -11.487,8.449 -18.694,4.899 -5.719,-2.812 -10.51,-8.584 -11.931,-14.363 -0.988,-4.019 -0.313,-7.771 1.949,-10.856 2.408,-3.289 6.473,-6.967 10.057,-10.207 1.217,-1.1 2.378,-2.15 3.38,-3.104 1.649,-1.561 3.351,-3.289 5.088,-5.05 6.299,-6.39 12.785,-12.973 18.834,-14.104 0.849,-0.159 1.692,-0.212 2.525,-0.138 5.471,0.472 8.91,2.766 12.239,5.284 2.85,2.162 5.126,5.073 6.39,8.187 1.281,3.131 1.479,6.293 0.576,9.144"
       style="fill:#000000;fill-opacity:1;fill-rule:nonzero;stroke:none;stroke-opacity:1"
       transform="matrix(1.3333333,0,0,-1.3333333,564.3024,314.16707)" />
    <path
       id="path11"
       d="m 0,0 c -1.119,2.105 -1.465,3.966 -1.032,5.533 0.409,1.499 4.419,3.267 6.728,3.326 2.662,0.085 4.698,-1.008 6.852,-2.167 2.161,-1.164 4.247,-2.291 5.539,-4.091 0.455,-0.636 1.885,-2.855 1.16,-4.831 -0.402,-1.089 -1.515,-1.98 -2.831,-2.271 -1.24,-0.276 -2.583,-0.096 -4.031,0.487 -2.044,0.82 -3.832,2.299 -5.021,4.162 C 7.258,0.396 7.277,1.494 7.381,1.778 8.046,2.618 8.863,3.022 9.83,2.839 11.038,2.598 12.053,1.474 12.204,0.94 12.215,0.844 12.156,0.5 12.11,0.274 c -0.131,-0.735 -0.406,-2.264 0.995,-2.56 0.771,-0.16 1.384,0.668 1.563,0.922 0.434,0.639 1.262,2.386 -0.376,4.9 C 12.693,5.982 9.189,6.405 6.672,5.369 5.043,4.693 3.912,3.333 3.725,1.827 c -0.34,-2.743 1.974,-5.09 3.741,-6.616 1.92,-1.671 4.354,-2.785 6.852,-3.139 1.793,-0.258 3.342,-0.078 4.61,0.526 1.145,0.544 2.138,1.46 2.859,2.663 0.777,1.281 1.166,2.777 1.101,4.216 C 22.772,1.89 21.457,3.83 20.375,5.031 18.292,7.346 15.509,9.023 13.6,10.079 13.42,10.182 9.145,12.548 6.61,12.49 5.421,12.505 3.728,11.99 2.22,11.561 2.056,11.516 1.886,11.471 1.71,11.419 c 1.711,1.451 4.137,3.06 6.005,3.29 0.019,0.002 0.045,0.005 0.064,0.007 1.416,0.16 2.375,-0.122 3.835,-0.761 3.65,-1.6 6.457,-3.145 8.829,-4.863 2.478,-1.789 6.611,-5.948 7.132,-9.482 0.171,-1.168 -0.056,-2.147 -0.701,-2.991 C 24.54,-6.44 17.767,-10.16 14.203,-9.614 8.1,-8.693 2.659,-5.006 0,0 m 9.689,18.265 c -0.378,0.074 -0.626,0.143 -0.788,0.196 0.446,0.479 1.564,1.318 2.652,2.135 1.082,0.815 2.41,1.814 3.937,3.057 l 2.476,2.023 c 6.112,4.988 9.177,7.493 16.513,11.627 0.445,0.251 0.877,0.507 1.303,0.756 1.69,1.001 3.144,1.859 4.719,2.036 0.718,0.081 1.457,0.022 2.263,-0.225 2.037,-0.633 4.608,-2.159 5.978,-3.555 2.153,-2.19 4.315,-4.625 5.522,-7.57 1.142,-2.77 1.049,-6.03 -0.257,-8.713 C 53.095,18.165 50.204,14.578 41.583,8.081 L 41.23,7.821 C 40.633,7.364 39.531,6.436 38.228,5.336 36.101,3.547 33.323,1.21 31.47,-0.133 30.561,5.173 27.072,9.554 21.1,12.883 l -0.935,0.523 c -3.24,1.821 -7.671,4.306 -10.476,4.859 M -3.923,1.089 c 1.034,-3.198 3.092,-6.267 5.778,-8.63 3.137,-2.754 6.4,-5.292 11.822,-6.16 0.826,-0.134 1.67,-0.143 2.528,-0.046 6.117,0.689 13.064,6.783 19.811,12.699 1.859,1.629 3.683,3.229 5.441,4.666 1.068,0.879 2.302,1.842 3.596,2.85 3.81,2.971 8.132,6.344 10.772,9.45 2.481,2.912 3.427,6.605 2.734,10.684 C 57.561,32.47 53.203,38.575 47.703,41.795 40.773,45.859 34.998,42.602 28.702,38.267 23.074,34.397 17.622,30.002 12.354,25.751 9.684,23.602 7.021,21.454 4.331,19.367 1.408,17.099 -2.236,14.269 -3.833,10.25 -4.94,7.473 -4.973,4.304 -3.923,1.089"
       style="fill:#000000;fill-opacity:1;fill-rule:nonzero;stroke:none;stroke-opacity:1"
       transform="matrix(1.3333333,0,0,-1.3333333,258.5688,298.28533)" />
    <path
       id="path12"
       d="m 0,0 c 0.341,-0.33 0.644,-0.686 0.863,-1.074 0.303,-0.543 0.366,-1.241 0.27,-1.609 -0.956,-1.347 -30.941,-32.682 -33.53,-35.162 -0.179,-0.172 -0.506,-0.522 -1.027,-1.084 -0.197,-0.209 -0.409,-0.434 -0.625,-0.662 -0.781,1.195 -1.989,2.125 -3.644,2.802 l -0.306,0.128 c -0.682,0.279 -1.326,0.541 -1.93,0.75 0.143,0.147 0.301,0.303 0.464,0.472 l 0.701,0.728 c 4.041,4.195 32.872,33.841 34.818,35.265 l 0.326,0.248 c 0.392,0.298 0.727,0.555 0.963,0.611 0.096,0.023 0.182,0.025 0.281,0.008 0.475,-0.086 1.163,-0.389 1.5,-0.661 C -0.577,0.518 -0.275,0.267 0,0 m -32.098,-42.37 0.006,0.007 0.042,0.049 c 0.5,0.553 0.984,1.096 1.451,1.583 l 1.007,1.013 c 0.216,0.215 32.489,33.358 33.32,34.614 0.846,1.272 1.06,2.824 0.599,4.381 C 3.692,1.41 1.883,3.384 -0.262,4.325 -3.42,5.703 -5.726,3.67 -7.251,2.324 -8.239,1.456 -25.516,-16.259 -40.903,-32.089 l -1.544,-1.591 c -0.639,-0.653 -1.282,-1.309 -1.947,-1.962 -0.87,-0.866 -2.069,-2.051 -2.488,-3.652 -0.312,-1.165 -0.182,-2.419 0.378,-3.624 0.359,-0.773 0.881,-1.498 1.525,-2.123 0.303,-0.294 0.633,-0.566 0.988,-0.807 1.172,-0.805 2.49,-1.598 4.523,-1.678 0.36,-0.016 0.726,0.023 1.082,0.109 2.224,0.522 4.289,2.825 6.288,5.047"
       style="fill:#000000;fill-opacity:1;fill-rule:nonzero;stroke:none;stroke-opacity:1"
       transform="matrix(1.3333333,0,0,-1.3333333,335.32733,527.31147)" />
    <path
       id="path13"
       d="m 0,0 c 0.364,0.305 0.749,0.571 1.157,0.748 0.572,0.246 1.272,0.237 1.628,0.103 1.242,-1.089 29.328,-34.137 31.529,-36.967 0.153,-0.196 0.467,-0.557 0.973,-1.133 0.187,-0.218 0.389,-0.452 0.594,-0.689 -1.269,-0.655 -2.319,-1.761 -3.162,-3.337 l -0.159,-0.292 c -0.348,-0.649 -0.674,-1.263 -0.944,-1.842 -0.132,0.157 -0.271,0.33 -0.422,0.51 l -0.652,0.772 C 26.785,-37.677 0.26,-5.95 -0.956,-3.868 l -0.214,0.349 c -0.256,0.422 -0.478,0.781 -0.509,1.022 -0.013,0.097 -0.005,0.183 0.022,0.279 0.133,0.464 0.506,1.117 0.811,1.424 C -0.574,-0.521 -0.294,-0.246 0,0 m 38.845,-36.284 -0.005,0.007 -0.046,0.047 c -0.498,0.554 -0.988,1.092 -1.425,1.606 l -0.903,1.106 C 36.273,-33.282 6.624,2.228 5.46,3.183 4.282,4.156 2.761,4.528 1.164,4.23 -1.023,3.817 -3.173,2.221 -4.329,0.184 c -1.695,-2.999 0.09,-5.502 1.272,-7.158 0.762,-1.072 16.607,-20.078 30.771,-37.012 l 1.423,-1.698 c 0.584,-0.704 1.171,-1.411 1.752,-2.139 0.772,-0.955 1.827,-2.269 3.377,-2.85 1.127,-0.43 2.388,-0.43 3.644,0.003 0.806,0.278 1.581,0.722 2.268,1.298 0.324,0.272 0.629,0.572 0.905,0.9 0.92,1.084 1.845,2.313 2.134,4.327 0.053,0.357 0.051,0.725 0.003,1.087 -0.291,2.267 -2.37,4.558 -4.375,6.774"
       style="fill:#000000;fill-opacity:1;fill-rule:nonzero;stroke:none;stroke-opacity:1"
       transform="matrix(1.3333333,0,0,-1.3333333,496.46627,535.4652)" />
    <path
       id="path18"
       d="M 0,0 -1.947,-5.764 C -2.136,-6.132 -2.42,-6.406 -2.749,-6.537 L -8.515,-7.533 C -8.908,-7.69 -8.976,-8.36 -8.627,-8.638 l 5.69,-2.915 c 0.207,-0.165 0.379,-0.392 0.501,-0.661 l 1.818,-6.04 c 0.166,-0.368 0.569,-0.415 0.785,-0.091 l 2.865,6.089 c 0.121,0.181 0.268,0.332 0.432,0.444 l 5.736,2.58 c 0.375,0.255 0.325,0.958 -0.08,1.124 L 3.241,-6.626 C 2.887,-6.482 2.588,-6.173 2.404,-5.763 L 0.822,-0.031 C 0.644,0.368 0.197,0.384 0,0"
       style="fill:#000000;fill-opacity:1;fill-rule:nonzero;stroke:none;stroke-opacity:1"
       transform="matrix(1.3333333,0,0,-1.3333333,374.84747,217.83747)" />
    <path
       id="path19"
       d="M 0,0 -1.947,-5.764 C -2.136,-6.132 -2.42,-6.406 -2.749,-6.537 L -8.515,-7.533 C -8.908,-7.69 -8.976,-8.36 -8.627,-8.638 l 5.69,-2.915 c 0.207,-0.165 0.379,-0.392 0.501,-0.661 l 1.818,-6.04 c 0.166,-0.368 0.569,-0.415 0.785,-0.091 l 2.865,6.089 c 0.121,0.181 0.268,0.332 0.432,0.444 l 5.736,2.58 c 0.375,0.255 0.325,0.958 -0.08,1.124 L 3.241,-6.626 C 2.887,-6.482 2.588,-6.173 2.404,-5.763 L 0.822,-0.031 C 0.644,0.368 0.197,0.385 0,0"
       style="fill:#000000;fill-opacity:1;fill-rule:nonzero;stroke:none;stroke-opacity:1"
       transform="matrix(1.3333333,0,0,-1.3333333,301.30107,332.5588)" />
    <path
       id="path20"
       d="M 0,0 -1.947,-5.764 C -2.136,-6.132 -2.42,-6.406 -2.749,-6.537 L -8.515,-7.533 C -8.908,-7.69 -8.976,-8.36 -8.627,-8.638 l 5.69,-2.915 c 0.207,-0.165 0.379,-0.392 0.501,-0.661 l 1.818,-6.04 c 0.166,-0.368 0.569,-0.415 0.785,-0.091 l 2.865,6.089 c 0.121,0.181 0.268,0.332 0.432,0.444 l 5.736,2.58 c 0.375,0.255 0.325,0.958 -0.08,1.124 L 3.241,-6.626 C 2.887,-6.482 2.588,-6.173 2.404,-5.763 L 0.822,-0.031 C 0.644,0.368 0.197,0.385 0,0"
       style="fill:#000000;fill-opacity:1;fill-rule:nonzero;stroke:none;stroke-opacity:1"
       transform="matrix(1.3333333,0,0,-1.3333333,460.8512,527.68387)" />
    <path
       id="path21"
       d="M 0,0 -1.952,-3.594 C -2.141,-3.962 -2.424,-4.236 -2.754,-4.367 L -8.52,-5.363 C -8.912,-5.52 -8.98,-6.19 -8.631,-6.468 l 5.69,-2.915 c 0.207,-0.165 0.378,-0.392 0.5,-0.661 l 2.299,-4.335 c 0.167,-0.368 0.57,-0.415 0.785,-0.09 l 2.385,4.383 c 0.121,0.181 0.267,0.332 0.432,0.444 l 5.735,2.58 c 0.375,0.256 0.325,0.958 -0.08,1.124 L 3.236,-4.456 C 2.882,-4.312 2.584,-4.003 2.4,-3.593 L 0.822,-0.031 C 0.644,0.368 0.197,0.384 0,0"
       style="fill:#000000;fill-opacity:1;fill-rule:nonzero;stroke:none;stroke-opacity:1"
       transform="matrix(1.3333333,0,0,-1.3333333,434.6052,249.87747)" />
    <path
       id="path22"
       d="M 0,0 -1.952,-3.594 C -2.141,-3.962 -2.424,-4.236 -2.754,-4.367 L -8.52,-5.363 C -8.912,-5.52 -8.98,-6.19 -8.631,-6.468 l 5.69,-2.915 c 0.207,-0.165 0.378,-0.392 0.5,-0.661 l 2.299,-4.335 c 0.167,-0.368 0.57,-0.415 0.785,-0.09 l 2.385,4.383 c 0.121,0.181 0.267,0.332 0.432,0.444 l 5.735,2.58 c 0.375,0.256 0.325,0.958 -0.08,1.124 L 3.236,-4.456 C 2.882,-4.312 2.584,-4.003 2.4,-3.593 L 0.822,-0.031 C 0.644,0.368 0.197,0.384 0,0"
       style="fill:#000000;fill-opacity:1;fill-rule:nonzero;stroke:none;stroke-opacity:1"
       transform="matrix(1.3333333,0,0,-1.3333333,573.77587,506.05573)" />
    <path
       id="path23"
       d="M 0,0 -1.952,-3.594 C -2.141,-3.962 -2.424,-4.236 -2.754,-4.367 L -8.52,-5.363 C -8.912,-5.52 -8.98,-6.19 -8.631,-6.468 l 5.69,-2.915 c 0.207,-0.165 0.378,-0.392 0.5,-0.661 l 2.299,-4.335 c 0.167,-0.368 0.57,-0.414 0.785,-0.09 l 2.385,4.383 c 0.121,0.181 0.267,0.332 0.432,0.444 l 5.735,2.58 c 0.375,0.256 0.325,0.958 -0.08,1.124 L 3.236,-4.456 C 2.882,-4.312 2.584,-4.003 2.4,-3.592 L 0.822,-0.031 C 0.644,0.368 0.197,0.385 0,0"
       style="fill:#000000;fill-opacity:1;fill-rule:nonzero;stroke:none;stroke-opacity:1"
       transform="matrix(1.3333333,0,0,-1.3333333,264.03933,486.1796)" />
    <path
       id="path24"
       d="M 0,0 -1.952,-3.594 C -2.141,-3.962 -2.424,-4.236 -2.754,-4.367 L -8.52,-5.363 C -8.912,-5.52 -8.98,-6.19 -8.631,-6.468 l 5.69,-2.915 c 0.206,-0.165 0.378,-0.392 0.5,-0.661 l 2.299,-4.335 c 0.167,-0.368 0.57,-0.414 0.785,-0.09 l 2.385,4.383 c 0.121,0.181 0.267,0.332 0.432,0.444 l 5.735,2.58 c 0.375,0.256 0.325,0.958 -0.08,1.124 L 3.236,-4.456 C 2.882,-4.312 2.584,-4.003 2.4,-3.593 L 0.822,-0.031 C 0.644,0.368 0.197,0.385 0,0"
       style="fill:#000000;fill-opacity:1;fill-rule:nonzero;stroke:none;stroke-opacity:1"
       transform="matrix(1.3333333,0,0,-1.3333333,434.35573,580.2676)" />
    <path
       id="path25"
       d="m 0,0 -2.935,-9.673 c -0.189,-0.369 -0.473,-0.642 -0.802,-0.773 l -5.766,-0.997 c -0.393,-0.156 -0.461,-0.827 -0.112,-1.104 l 5.69,-2.915 c 0.207,-0.165 0.379,-0.392 0.501,-0.661 l 1.36,-9.923 c 0.166,-0.368 0.57,-0.415 0.785,-0.091 l 3.949,9.972 c 0.121,0.181 0.267,0.332 0.432,0.444 l 5.11,2.58 c 0.375,0.255 0.325,0.958 -0.08,1.123 l -5.03,1.482 c -0.354,0.145 -0.652,0.453 -0.836,0.864 L 0.822,-0.031 C 0.644,0.368 0.197,0.385 0,0"
       style="fill:#000000;fill-opacity:1;fill-rule:nonzero;stroke:none;stroke-opacity:1"
       transform="matrix(1.3333333,0,0,-1.3333333,481.1808,208.54027)" />
    <path
       id="path26"
       d="m 0,0 -2.935,-9.673 c -0.189,-0.369 -0.473,-0.642 -0.802,-0.773 l -5.766,-0.997 c -0.393,-0.156 -0.461,-0.827 -0.112,-1.104 l 5.69,-2.915 c 0.207,-0.165 0.379,-0.392 0.501,-0.661 l 1.36,-9.923 c 0.166,-0.368 0.57,-0.415 0.785,-0.091 l 3.949,9.972 c 0.121,0.181 0.267,0.332 0.432,0.444 l 5.11,2.58 c 0.375,0.255 0.325,0.958 -0.08,1.123 l -5.03,1.482 c -0.354,0.145 -0.652,0.453 -0.836,0.864 L 0.822,-0.031 C 0.644,0.368 0.197,0.384 0,0"
       style="fill:#000000;fill-opacity:1;fill-rule:nonzero;stroke:none;stroke-opacity:1"
       transform="matrix(1.3333333,0,0,-1.3333333,553.38333,345.24587)" />
    <path
       id="path27"
       d="m 0,0 -2.935,-9.673 c -0.189,-0.369 -0.473,-0.642 -0.802,-0.773 l -5.766,-0.997 c -0.393,-0.156 -0.461,-0.827 -0.112,-1.104 l 5.69,-2.915 c 0.207,-0.165 0.379,-0.392 0.501,-0.661 l 1.36,-9.923 c 0.166,-0.368 0.57,-0.415 0.785,-0.091 l 3.949,9.972 c 0.121,0.181 0.267,0.332 0.432,0.444 l 5.11,2.58 c 0.375,0.255 0.325,0.958 -0.08,1.123 l -5.03,1.482 c -0.354,0.145 -0.652,0.453 -0.836,0.864 L 0.822,-0.031 C 0.644,0.368 0.197,0.385 0,0"
       style="fill:#000000;fill-opacity:1;fill-rule:nonzero;stroke:none;stroke-opacity:1"
       transform="matrix(1.3333333,0,0,-1.3333333,378.79467,535.66947)" />
    <path
       id="path28"
       d="m 0,0 c 5.935,1.218 11.393,0.859 16.366,-1.078 5.379,-2.094 9.722,-5.817 13.032,-11.17 2.787,-4.481 3.012,-12.028 0.675,-22.641 -0.018,-0.542 9.957,-3.068 10.796,-3.325 4.228,-1.294 9.475,-1.777 8.481,-7.361 -0.647,-3.635 -2.421,-6.95 -3.334,-10.513 -0.364,-1.419 -0.596,-2.882 -1.164,-4.233 -0.733,-1.746 -2.126,-3.254 -4.113,-3.341 -2.758,-0.122 -6.321,1.404 -8.975,2.119 -3.062,0.826 -6.101,1.735 -9.118,2.708 -12.107,3.905 -23.844,8.844 -35.559,13.776 -3.569,1.503 -13.02,4.923 -12.403,10.059 0.699,5.724 4.494,12.569 6.139,16.792 C -15.191,-7.971 -8.83,-1.89 0,0"
       style="display:inline;fill:#000000;fill-opacity:1;fill-rule:nonzero;stroke:none;stroke-opacity:1"
       transform="matrix(1.3333333,0,0,-1.3333333,101.1888,235.116)" />
    <path
       id="path29"
       d="m 0,0 c 1.922,-2.289 3.663,-4.715 4.95,-7.206 1.393,-2.698 2.116,-5.863 1.359,-8.804 -0.621,-2.412 -2.163,-4.464 -3.671,-6.446 L -7.573,-35.878 c -3.545,-4.661 -7.893,-9.969 -14.323,-9.674 -8.057,0.359 -15.635,7.433 -21.536,12.24 -8.531,6.95 -16.026,14.585 -21.613,24.153 -1.748,2.994 -3.334,6.226 -3.479,9.689 -0.194,4.637 2.234,9.009 5.234,12.549 3.82,4.506 8.474,10.466 14.335,12.155 4.653,1.34 9.373,-0.348 13.824,-1.694 5.103,-1.545 10.026,-3.676 14.656,-6.319 C -15.279,14.255 -10.45,10.645 -6.144,6.49 -4.102,4.52 -1.958,2.331 0,0"
       style="display:inline;fill:#000000;fill-opacity:1;fill-rule:nonzero;stroke:none;stroke-opacity:1"
       transform="matrix(1.3333333,0,0,-1.3333333,214.43973,183.07147)" />
    <path
       id="path30"
       d="m 0,0 c 1.971,-2.453 -8.478,-7.261 -8.743,-7.403 -5.089,-2.739 -7.475,-5.391 -13.699,-4.895 -2.311,0.185 -4.446,1.231 -6.438,2.345 -2.316,1.296 -6.626,3.141 -8.229,5.208 0.984,-1.27 1.78,-2.4 2.382,-3.396 1.968,-3.257 4.293,-7.827 3.842,-10.682 -0.415,-2.623 -4.786,-4.082 -6.756,-5.019 -2.153,-1.024 -4.279,-2.103 -6.376,-3.236 -1.141,-0.616 -3.482,-2.662 -4.894,-2.146 -2.379,0.871 -3.827,4.285 -5.073,6.281 -2.031,3.257 -4.03,6.534 -5.993,9.833 -4.004,6.728 -7.864,13.543 -11.576,20.438 -2.79,5.183 -5.506,10.427 -7.643,15.918 -1.231,3.163 -2.487,6.538 -1.468,9.933 1.195,3.986 6.065,6.555 9.28,8.816 7.648,5.379 19.787,14.7 29.555,9.416 5.397,-3.777 9.42,-9.807 11.97,-14.139 2.609,-4.446 3.645,-8.858 3.103,-13.244 -0.08,-0.704 -0.746,-3.024 -1.989,-6.967 C -17.66,13.87 -6.108,7.6 0,0"
       style="display:inline;fill:#000000;fill-opacity:1;fill-rule:nonzero;stroke:none;stroke-opacity:1"
       transform="matrix(1.3333333,0,0,-1.3333333,319.476,146.67467)" />
    <path
       id="path31"
       d="m 0,0 c 0.883,-4.459 0.723,-9.452 -1.41,-11.453 -1.88,-1.763 -4.622,-2.546 -7.027,-3.282 -0.724,-0.222 -6.136,-1.353 -6.159,-2.263 -0.04,-1.567 0.778,-3.434 1.177,-4.919 0.961,-3.579 2.113,-7.1 3.077,-10.679 1.385,-5.138 2.489,-10.352 3.306,-15.61 0.643,-4.136 1.828,-9.1 0.875,-13.273 -0.525,-2.228 -1.984,-3.354 -4.263,-3.613 -1.379,-0.157 -2.774,-0.007 -4.16,-0.078 -4.019,-0.207 -8.638,-1.412 -14.259,-1.911 -2.68,-0.238 -2.067,6.819 -2.446,9.313 -0.511,3.36 -0.989,6.726 -1.434,10.095 -0.688,5.207 -1.298,10.425 -1.828,15.65 -0.122,1.194 -1.066,13.357 -0.887,13.42 -2.004,-0.763 -14.081,-2.511 -15.303,-1.008 -1.862,2.287 -1.966,8.361 -2.31,10.572 -0.464,2.98 -1.191,6.508 0.404,9.285 2.133,3.715 7.157,4.4 10.954,5.256 10.168,2.29 20.638,2.674 31.016,3.051 2.318,0.084 5.766,0.644 7.512,-1.082 C -1.803,6.125 -0.633,3.2 0,0"
       style="display:inline;fill:#000000;fill-opacity:1;fill-rule:nonzero;stroke:none;stroke-opacity:1"
       transform="matrix(1.3333333,0,0,-1.3333333,391.54107,54.3848)" />
    <path
       id="path32"
       d="m 0,0 c -0.216,-2.5 -0.558,-5.014 -1.253,-7.403 -1.53,-5.267 -8.578,-3.84 -12.879,-3.62 -5.07,0.259 -10.149,0.711 -15.182,1.372 -3.855,0.507 -8.224,1.652 -9.514,5.782 -0.665,2.128 -0.298,4.222 -0.045,6.375 0.444,3.775 0.857,7.552 1.319,11.325 1.019,8.338 2.18,16.665 3.745,24.92 0.797,4.201 1.697,8.382 2.735,12.53 0.629,2.513 1.315,7.828 3.817,9.362 1.733,1.062 4.626,0.43 6.513,0.314 2.736,-0.169 10.191,0.328 12.132,-2.06 2.813,-3.465 0.667,-10.488 0.158,-14.366 -1.093,-8.336 -2.57,-16.591 -4.416,-24.792 -1.243,-5.658 -1.705,-8.695 -1.385,-9.112 -0.01,0.012 6.18,-0.34 6.812,-0.336 2.015,0.014 5.375,0.156 6.967,-1.292 C 1.091,7.573 0.291,4.209 0.173,2.347 0.123,1.569 0.068,0.785 0,0"
       style="display:inline;fill:#000000;fill-opacity:1;fill-rule:nonzero;stroke:none;stroke-opacity:1"
       transform="matrix(1.3333333,0,0,-1.3333333,480.56533,124.82747)" />
    <path
       id="path33"
       d="m 0,0 c 4.301,-4.268 7.025,-9.011 8.166,-14.223 1.235,-5.639 0.54,-11.317 -2.083,-17.038 -2.188,-4.803 -8.347,-9.169 -18.479,-13.101 -0.461,-0.285 2.961,-9.989 3.211,-10.831 1.264,-4.237 3.768,-8.873 -1.432,-11.138 -3.385,-1.474 -7.128,-1.833 -10.601,-3.046 -1.383,-0.483 -2.729,-1.099 -4.168,-1.375 -1.861,-0.357 -3.887,-0.032 -5.061,1.574 -1.628,2.229 -2.331,6.041 -3.205,8.647 -1.008,3.007 -1.934,6.04 -2.795,9.092 -3.453,12.243 -5.841,24.752 -8.222,37.237 -0.726,3.804 -3.112,13.568 1.506,15.898 5.153,2.588 12.955,3.219 17.382,4.188 C -15.05,8.234 -6.464,6.306 0,0"
       style="display:inline;fill:#000000;fill-opacity:1;fill-rule:nonzero;stroke:none;stroke-opacity:1"
       transform="matrix(1.3333333,0,0,-1.3333333,500.88893,672.29867)" />
    <path
       id="path34"
       d="m 0,0 c 0.834,-2.87 1.447,-5.792 1.618,-8.591 0.186,-3.031 -0.431,-6.218 -2.311,-8.603 -1.542,-1.956 -3.782,-3.211 -5.962,-4.415 l -14.761,-8.156 c -5.126,-2.832 -11.247,-5.932 -17.011,-3.066 -7.225,3.582 -11.301,13.113 -14.758,19.895 -4.998,9.803 -8.772,19.814 -10.019,30.824 -0.391,3.444 -0.537,7.041 0.73,10.268 1.695,4.32 5.681,7.34 9.855,9.367 5.314,2.58 11.979,6.153 18.022,5.331 4.798,-0.653 8.435,-4.103 11.963,-7.133 4.045,-3.473 7.688,-7.411 10.857,-11.698 C -8.221,19.211 -5.262,13.958 -3,8.419 -1.928,5.792 -0.849,2.923 0,0"
       style="display:inline;fill:#000000;fill-opacity:1;fill-rule:nonzero;stroke:none;stroke-opacity:1"
       transform="matrix(1.3333333,0,0,-1.3333333,605.2872,685.9076)" />
    <path
       id="path35"
       d="m 0,0 c 2.271,-1.943 4.385,-4.052 6.062,-6.298 1.816,-2.434 3.048,-5.438 2.782,-8.463 -0.217,-2.481 -1.403,-4.759 -2.566,-6.961 -2.626,-4.971 -5.251,-9.941 -7.877,-14.912 -2.734,-5.178 -6.155,-11.126 -12.547,-11.888 -8.007,-0.964 -16.64,4.774 -23.249,8.551 -9.553,5.46 -18.197,11.765 -25.274,20.29 -2.215,2.667 -4.308,5.596 -5.018,8.989 -0.95,4.542 0.729,9.253 3.11,13.236 3.031,5.071 6.647,11.712 12.152,14.337 4.371,2.084 9.303,1.191 13.915,0.591 5.287,-0.688 10.493,-1.985 15.493,-3.834 5.611,-2.076 10.966,-4.847 15.893,-8.241 C -4.787,3.788 -2.313,1.98 0,0"
       style="display:inline;fill:#000000;fill-opacity:1;fill-rule:nonzero;stroke:none;stroke-opacity:1"
       transform="matrix(1.3333333,0,0,-1.3333333,718.06387,544.5992)" />
    <path
       id="path36"
       d="m 0,0 c 1.723,-1.824 3.372,-3.752 4.694,-5.861 2.915,-4.645 -2.839,-8.958 -5.865,-12.024 -3.565,-3.613 -7.281,-7.104 -11.123,-10.422 -2.943,-2.541 -6.704,-5.042 -10.646,-3.258 -2.031,0.919 -3.351,2.586 -4.79,4.208 -2.523,2.842 -5.068,5.663 -7.578,8.517 -5.549,6.308 -10.993,12.713 -16.116,19.374 -2.606,3.389 -5.13,6.843 -7.536,10.377 -1.458,2.142 -4.97,6.189 -4.451,9.078 0.36,2 2.756,3.74 4.098,5.071 1.946,1.931 6.534,7.828 9.609,7.689 4.458,-0.205 8.274,-6.479 10.831,-9.438 5.497,-6.362 10.678,-12.957 15.573,-19.79 3.398,-4.691 5.359,-7.057 5.883,-7.096 -0.016,0.001 4.364,4.388 4.782,4.863 1.33,1.514 3.459,4.117 5.599,4.343 C -4.928,5.852 -2.949,3.017 -1.638,1.69 -1.09,1.135 -0.541,0.573 0,0"
       style="display:inline;fill:#000000;fill-opacity:1;fill-rule:nonzero;stroke:none;stroke-opacity:1"
       transform="matrix(1.3333333,0,0,-1.3333333,668.44627,626.79853)" />
    <path
       id="path37"
       d="m 0,0 c -1.611,-2.436 -14.832,6.289 -16.953,7.427 -5.218,2.8 1.164,10.191 3.303,13.462 -2.011,1.463 -4.443,2.906 -7.294,4.327 -0.203,-0.536 -0.559,-1.305 -1.067,-2.308 -1.393,-2.131 -2.891,-6.191 -5.583,-7.695 -2.357,-1.317 -5.479,1.112 -7.354,2.2 -2.239,1.301 -4.448,2.654 -6.623,4.059 -0.949,0.613 -3.891,1.83 -4.462,2.797 -2.062,3.491 0.293,7.393 2.217,10.358 3.086,4.755 6.479,9.368 9.811,13.953 8.841,12.164 19.268,23.757 33.802,28.923 5.679,1.997 11.431,1.093 17.248,-2.712 6.231,-4.076 9.658,-9.101 10.28,-15.067 C 27.699,56.215 27.273,52.67 26.05,49.098 21.735,36.269 16.863,25.701 11.428,17.391 8.263,12.552 0.149,0.227 0,0"
       style="display:inline;fill:#000000;fill-opacity:1;fill-rule:nonzero;stroke:none;stroke-opacity:1"
       transform="matrix(1.3333333,0,0,-1.3333333,567.7772,184.9536)" />
    <path
       id="path38"
       d="m 0,0 c -5.411,-4.644 -11.038,-9.047 -16.655,-13.442 -6.165,-4.823 -12.333,-9.648 -18.687,-14.219 -2.367,-1.703 -5.249,-3.454 -8.016,-2.534 -1.538,0.511 -2.698,1.767 -3.732,3.016 -1.92,2.32 -3.662,4.789 -5.203,7.377 -0.571,0.958 -1.123,1.957 -1.307,3.057 -0.303,1.804 0.417,3.61 1.177,5.274 3.845,8.423 9.054,16.139 14.237,23.811 -6.401,-7.15 -14.107,-13.128 -22.624,-17.549 -0.79,-0.41 -1.701,-0.816 -2.54,-0.519 -0.527,0.188 -0.921,0.623 -1.289,1.045 -3.229,3.698 -6.237,7.59 -9.003,11.646 -0.412,0.603 -0.828,1.234 -0.948,1.955 -0.209,1.249 0.511,2.456 1.297,3.449 1.727,2.18 3.904,3.953 6.089,5.674 8.205,6.466 16.769,12.467 25.508,18.189 4.372,2.862 8.791,5.655 13.235,8.405 3.019,1.867 8.225,6.909 11.931,4.577 1.077,-0.678 1.89,-1.695 2.672,-2.699 2.003,-2.571 3.944,-5.191 5.819,-7.857 0.798,-1.134 1.609,-2.344 1.737,-3.724 0.147,-1.603 -0.651,-3.126 -1.448,-4.525 -4.668,-8.193 -10.136,-15.921 -16.164,-23.173 6.69,6.849 13.712,13.373 21.034,19.541 0.793,0.669 1.645,1.359 2.67,1.519 2.078,0.325 3.767,-1.571 5.009,-3.269 1.75,-2.393 3.5,-4.785 5.249,-7.177 1.083,-1.48 2.219,-3.146 2.033,-4.97 C 11.911,11.207 10.67,9.868 9.476,8.687 6.428,5.67 3.253,2.792 0,0"
       style="display:inline;fill:#000000;fill-opacity:1;fill-rule:nonzero;stroke:none;stroke-opacity:1"
       transform="matrix(1.3333333,0,0,-1.3333333,688.38947,220.29267)" />
    <path
       id="path39"
       d="m 0,0 c -8.165,-2.58 -16.094,-3.132 -23.785,-1.659 -9.475,1.76 -16.768,6.518 -21.889,14.273 -1.753,4.523 -6.066,11.876 -5.842,16.015 0.22,4.138 37.645,15.902 52.202,20.502 5.383,1.7 12.01,3.706 14.391,4.199 3.666,-0.471 4.027,-5.638 6.571,-13.688 1.438,-4.554 2.189,-8.778 2.247,-12.667 C 23.351,22.707 21.577,18.435 18.569,14.166 13.526,7.041 7.339,2.319 0,0"
       style="display:inline;fill:#000000;fill-opacity:1;fill-rule:nonzero;stroke:none;stroke-opacity:1"
       transform="matrix(1.3333333,0,0,-1.3333333,708.81027,324.7144)" />
    <path
       id="path40"
       d="m 0,0 c -5.481,-4.006 -11.061,-5.43 -16.742,-4.278 -2.994,0.612 -7.429,2.557 -13.308,5.839 -2.205,1.785 -4.282,3.805 -6.232,6.057 -5.73,6.615 -12.253,9.971 -12.002,15.276 0.279,1.472 10.863,10.59 24.187,22.13 15.809,13.694 26.907,23.253 29.105,23.843 5.659,-0.844 9.264,-6.993 14.993,-13.608 1.665,-1.922 2.828,-3.46 3.494,-4.606 3.486,-6.013 4.93,-11.499 4.334,-16.448 -0.598,-4.95 -2.994,-9.367 -7.19,-13.246 C 17.783,19.14 14.823,18.385 11.766,18.692 10.412,18.833 8.023,19.555 4.597,20.855 6.674,17.318 7.228,13.55 6.259,9.552 5.29,5.548 3.202,2.364 0,0"
       style="display:inline;fill:#000000;fill-opacity:1;fill-rule:nonzero;stroke:none;stroke-opacity:1"
       transform="matrix(1.3333333,0,0,-1.3333333,151.7516,611.63187)" />
    <path
       id="path41"
       d="m 0,0 c -5.743,-8.565 -12.446,-16.477 -19.583,-23.906 -4.29,-4.465 -8.753,-8.763 -13.324,-12.939 -1.926,-1.76 -3.474,-3.685 -5.278,-5.485 -1.181,-1.178 -2.902,-2.016 -4.505,-0.918 -1.13,0.774 -10.009,8.141 -10.397,8.464 -3.977,3.306 -1.778,5.326 0.503,9.081 2.883,4.745 5.99,9.354 9.306,13.808 8.846,11.885 19.649,21.61 29.736,32.312 5.455,1.515 9.649,-3.6 14.231,-7.409 C 1.737,12.136 2.586,11.264 3.242,10.397 4.059,8.667 4.013,6.811 3.092,4.833 2.097,3.199 1.065,1.588 0,0"
       style="display:inline;fill:#000000;fill-opacity:1;fill-rule:nonzero;stroke:none;stroke-opacity:1"
       transform="matrix(1.3333333,0,0,-1.3333333,228.4212,616.01573)" />
    <path
       id="path42"
       d="m 0,0 c 0.359,0.197 0.724,0.348 1.095,0.442 3.015,0.766 6.911,-2.267 9.392,-3.569 3.03,-1.59 6.311,-4.654 5.888,-8.443 -0.125,-1.114 -0.641,-2.141 -1.163,-3.133 -1.414,-2.684 -2.955,-5.288 -4.554,-7.864 -0.775,-1.249 -2.884,-3.488 -2.983,-4.948 -0.041,-0.611 0.185,-1.044 0.681,-1.304 0.438,-0.23 0.857,-0.171 1.252,0.183 4.173,3.736 8.194,7.72 12.624,11.152 2.12,1.643 6.089,5.5 9.165,4.121 6.409,-2.876 12.476,-5.486 12.605,-10.457 0.108,-4.175 -5.325,-8.781 -8.264,-11.147 -2.893,-2.328 -6.075,-4.253 -9.098,-6.401 -3.024,-2.148 -5.711,-4.758 -8.809,-6.799 -1.881,-1.239 -1.255,-3.162 -1.131,-5.114 0.644,-10.125 -1.106,-19.034 -3.677,-28.812 -1.386,-5.269 -6.317,-4.145 -10.161,-2.342 -2.057,0.964 -4.02,2.133 -6.011,3.226 -2.429,1.333 -3.216,2.962 -2.705,5.669 1.045,5.528 0.161,11.068 0.963,16.531 0.19,1.294 0.96,2.836 0.535,4.164 -0.108,0.336 -0.526,0.87 -1.262,1.605 0,0 -0.879,-0.272 -0.88,-0.272 -1.16,-3.588 -2.572,-7.093 -4.188,-10.499 -1.215,-2.562 -2.619,-7.001 -5.233,-8.474 -2.325,-1.311 -5.135,1.653 -6.896,2.774 -3.952,2.516 -12.353,3.464 -12.517,9.523 -0.112,4.109 2.713,8.043 4.413,11.6 4.365,9.137 9.331,17.984 14.791,26.511 2.69,4.202 5.5,8.326 8.42,12.372 C -5.844,-7.121 -3.162,-1.739 0,0"
       style="display:inline;fill:#000000;fill-opacity:1;fill-rule:nonzero;stroke:none;stroke-opacity:1"
       transform="matrix(1.3333333,0,0,-1.3333333,252.6084,624.6156)" />
    <path
       id="path43"
       d="m 0,0 c 0.2,-1.214 -0.088,-5.237 -0.386,-6.54 -0.705,-3.078 -0.188,-7.046 -3.504,-8.753 -4.606,-2.37 -9.508,1.814 -13.973,2.395 -0.054,0.007 -2.609,-7.765 -2.784,-8.356 -0.11,-0.374 -0.217,-0.772 -0.119,-1.15 0.455,-1.739 11.717,-1.362 13.852,-2.896 2.161,-1.552 -0.885,-7.599 -1.366,-9.426 -1.328,-5.048 -1.463,-11.917 -8.937,-10.304 -5.323,1.148 -10.772,1.487 -16.161,2.181 -3.999,0.515 -12.133,0.789 -14.577,4.537 -2.076,3.181 -0.086,9.841 0.37,13.401 0.672,5.243 1.548,10.46 2.627,15.636 1.407,6.748 3.156,13.426 5.241,19.997 1.818,5.728 3.477,12.812 7.53,17.443 2.089,2.386 3.496,2.475 6.56,2.173 5.007,-0.495 10.004,-1.094 14.987,-1.795 C -6.828,28.007 -0.554,26.521 4.244,24.101 6.899,22.762 4.114,12.948 1.191,11.429 -2.484,9.518 -9.615,12.481 -13.29,13.271 -14.338,13.496 -15.841,5.843 -16.239,4.858 -16.472,4.283 -10.588,3.865 -10.212,3.821 -7.507,3.502 -1.717,3.543 -0.276,0.812 -0.132,0.54 -0.044,0.269 0,0"
       style="display:inline;fill:#000000;fill-opacity:1;fill-rule:nonzero;stroke:none;stroke-opacity:1"
       transform="matrix(1.3333333,0,0,-1.3333333,380.1764,704.57893)" />
  </g>
</svg>
