<?xml version="1.0" encoding="UTF-8" standalone="no"?>
<!-- Created with Inkscape (http://www.inkscape.org/) -->

<svg
   version="1.1"
   id="svg1"
   width="814.18933"
   height="814.18933"
   viewBox="0 0 814.18933 814.18933"
   sodipodi:docname="pbp-dark.ai"
   xmlns:inkscape="http://www.inkscape.org/namespaces/inkscape"
   xmlns:sodipodi="http://sodipodi.sourceforge.net/DTD/sodipodi-0.dtd"
   xmlns="http://www.w3.org/2000/svg"
   xmlns:svg="http://www.w3.org/2000/svg">
  <defs
     id="defs1">
    <clipPath
       clipPathUnits="userSpaceOnUse"
       id="clipPath2">
      <path
         d="M 0,610.642 H 610.642 V 0 H 0 Z"
         transform="translate(-610.64162,-305.32081)"
         id="path2" />
    </clipPath>
    <clipPath
       clipPathUnits="userSpaceOnUse"
       id="clipPath4">
      <path
         d="M 0,610.642 H 610.642 V 0 H 0 Z"
         transform="translate(-310.15741,-260.3417)"
         id="path4" />
    </clipPath>
    <clipPath
       clipPathUnits="userSpaceOnUse"
       id="clipPath6">
      <path
         d="M 0,610.642 H 610.642 V 0 H 0 Z"
         transform="translate(-367.53221,-288.6053)"
         id="path6" />
    </clipPath>
    <clipPath
       clipPathUnits="userSpaceOnUse"
       id="clipPath8">
      <path
         d="M 0,610.642 H 610.642 V 0 H 0 Z"
         transform="translate(-376.08961,-371.78201)"
         id="path8" />
    </clipPath>
    <clipPath
       clipPathUnits="userSpaceOnUse"
       id="clipPath10">
      <path
         d="M 0,610.642 H 610.642 V 0 H 0 Z"
         transform="translate(-281.13561,-447.26391)"
         id="path10" />
    </clipPath>
    <clipPath
       clipPathUnits="userSpaceOnUse"
       id="clipPath12">
      <path
         d="M 0,610.642 H 610.642 V 0 H 0 Z"
         transform="translate(-225.97581,-361.22291)"
         id="path12" />
    </clipPath>
    <clipPath
       clipPathUnits="userSpaceOnUse"
       id="clipPath14">
      <path
         d="M 0,610.642 H 610.642 V 0 H 0 Z"
         transform="translate(-345.63841,-214.8791)"
         id="path14" />
    </clipPath>
    <clipPath
       clipPathUnits="userSpaceOnUse"
       id="clipPath16">
      <path
         d="M 0,610.642 H 610.642 V 0 H 0 Z"
         transform="translate(-325.95391,-423.23391)"
         id="path16" />
    </clipPath>
    <clipPath
       clipPathUnits="userSpaceOnUse"
       id="clipPath18">
      <path
         d="M 0,610.642 H 610.642 V 0 H 0 Z"
         transform="translate(-430.33191,-231.10021)"
         id="path18" />
    </clipPath>
    <clipPath
       clipPathUnits="userSpaceOnUse"
       id="clipPath20">
      <path
         d="M 0,610.642 H 610.642 V 0 H 0 Z"
         transform="translate(-198.0295,-246.00731)"
         id="path20" />
    </clipPath>
    <clipPath
       clipPathUnits="userSpaceOnUse"
       id="clipPath22">
      <path
         d="M 0,610.642 H 610.642 V 0 H 0 Z"
         transform="translate(-325.76681,-175.4413)"
         id="path22" />
    </clipPath>
    <clipPath
       clipPathUnits="userSpaceOnUse"
       id="clipPath24">
      <path
         d="M 0,610.642 H 610.642 V 0 H 0 Z"
         transform="translate(-360.88561,-454.23681)"
         id="path24" />
    </clipPath>
    <clipPath
       clipPathUnits="userSpaceOnUse"
       id="clipPath26">
      <path
         d="M 0,610.642 H 610.642 V 0 H 0 Z"
         transform="translate(-415.03751,-351.70761)"
         id="path26" />
    </clipPath>
    <clipPath
       clipPathUnits="userSpaceOnUse"
       id="clipPath28">
      <path
         d="M 0,610.642 H 610.642 V 0 H 0 Z"
         transform="translate(-284.09601,-208.8899)"
         id="path28" />
    </clipPath>
    <clipPath
       clipPathUnits="userSpaceOnUse"
       id="clipPath30">
      <path
         d="M 0,610.642 H 610.642 V 0 H 0 Z"
         transform="translate(-75.891602,-434.30501)"
         id="path30" />
    </clipPath>
    <clipPath
       clipPathUnits="userSpaceOnUse"
       id="clipPath32">
      <path
         d="M 0,610.642 H 610.642 V 0 H 0 Z"
         transform="translate(-160.8298,-473.33841)"
         id="path32" />
    </clipPath>
    <clipPath
       clipPathUnits="userSpaceOnUse"
       id="clipPath34">
      <path
         d="M 0,610.642 H 610.642 V 0 H 0 Z"
         transform="translate(-239.60701,-500.63601)"
         id="path34" />
    </clipPath>
    <clipPath
       clipPathUnits="userSpaceOnUse"
       id="clipPath36">
      <path
         d="M 0,610.642 H 610.642 V 0 H 0 Z"
         transform="translate(-293.65581,-569.85341)"
         id="path36" />
    </clipPath>
    <clipPath
       clipPathUnits="userSpaceOnUse"
       id="clipPath38">
      <path
         d="M 0,610.642 H 610.642 V 0 H 0 Z"
         transform="translate(-360.42401,-517.02141)"
         id="path38" />
    </clipPath>
    <clipPath
       clipPathUnits="userSpaceOnUse"
       id="clipPath40">
      <path
         d="M 0,610.642 H 610.642 V 0 H 0 Z"
         transform="translate(-375.66671,-106.418)"
         id="path40" />
    </clipPath>
    <clipPath
       clipPathUnits="userSpaceOnUse"
       id="clipPath42">
      <path
         d="M 0,610.642 H 610.642 V 0 H 0 Z"
         transform="translate(-453.96541,-96.211302)"
         id="path42" />
    </clipPath>
    <clipPath
       clipPathUnits="userSpaceOnUse"
       id="clipPath44">
      <path
         d="M 0,610.642 H 610.642 V 0 H 0 Z"
         transform="translate(-538.54792,-202.19261)"
         id="path44" />
    </clipPath>
    <clipPath
       clipPathUnits="userSpaceOnUse"
       id="clipPath46">
      <path
         d="M 0,610.642 H 610.642 V 0 H 0 Z"
         transform="translate(-501.33472,-140.54311)"
         id="path46" />
    </clipPath>
    <clipPath
       clipPathUnits="userSpaceOnUse"
       id="clipPath48">
      <path
         d="M 0,610.642 H 610.642 V 0 H 0 Z"
         transform="translate(-425.83291,-471.92681)"
         id="path48" />
    </clipPath>
    <clipPath
       clipPathUnits="userSpaceOnUse"
       id="clipPath50">
      <path
         d="M 0,610.642 H 610.642 V 0 H 0 Z"
         transform="translate(-516.29212,-445.42251)"
         id="path50" />
    </clipPath>
    <clipPath
       clipPathUnits="userSpaceOnUse"
       id="clipPath52">
      <path
         d="M 0,610.642 H 610.642 V 0 H 0 Z"
         transform="translate(-531.60772,-367.10621)"
         id="path52" />
    </clipPath>
    <clipPath
       clipPathUnits="userSpaceOnUse"
       id="clipPath54">
      <path
         d="M 0,610.642 H 610.642 V 0 H 0 Z"
         transform="translate(-113.8137,-151.9181)"
         id="path54" />
    </clipPath>
    <clipPath
       clipPathUnits="userSpaceOnUse"
       id="clipPath56">
      <path
         d="M 0,610.642 H 610.642 V 0 H 0 Z"
         transform="translate(-171.3159,-148.63021)"
         id="path56" />
    </clipPath>
    <clipPath
       clipPathUnits="userSpaceOnUse"
       id="clipPath58">
      <path
         d="M 0,610.642 H 610.642 V 0 H 0 Z"
         transform="translate(-189.4563,-142.1803)"
         id="path58" />
    </clipPath>
    <clipPath
       clipPathUnits="userSpaceOnUse"
       id="clipPath60">
      <path
         d="M 0,610.642 H 610.642 V 0 H 0 Z"
         transform="translate(-285.13231,-82.207805)"
         id="path60" />
    </clipPath>
    <clipPath
       clipPathUnits="userSpaceOnUse"
       id="clipPath62">
      <path
         d="M 0,610.642 H 610.642 V 0 H 0 Z"
         transform="translate(-369.53261,-208.75741)"
         id="path62" />
    </clipPath>
    <clipPath
       clipPathUnits="userSpaceOnUse"
       id="clipPath64">
      <path
         d="M 0,610.642 H 610.642 V 0 H 0 Z"
         transform="translate(-253.93801,-364.92281)"
         id="path64" />
    </clipPath>
    <clipPath
       clipPathUnits="userSpaceOnUse"
       id="clipPath66">
      <path
         d="M 0,610.642 H 610.642 V 0 H 0 Z"
         transform="translate(-253.8754,-215.10221)"
         id="path66" />
    </clipPath>
    <clipPath
       clipPathUnits="userSpaceOnUse"
       id="clipPath68">
      <path
         d="M 0,610.642 H 610.642 V 0 H 0 Z"
         transform="translate(-380.10231,-365.00041)"
         id="path68" />
    </clipPath>
    <clipPath
       clipPathUnits="userSpaceOnUse"
       id="clipPath70">
      <path
         d="M 0,610.642 H 610.642 V 0 H 0 Z"
         transform="translate(-423.22681,-375.01671)"
         id="path70" />
    </clipPath>
    <clipPath
       clipPathUnits="userSpaceOnUse"
       id="clipPath72">
      <path
         d="M 0,610.642 H 610.642 V 0 H 0 Z"
         transform="translate(-193.9266,-386.92801)"
         id="path72" />
    </clipPath>
    <clipPath
       clipPathUnits="userSpaceOnUse"
       id="clipPath74">
      <path
         d="M 0,610.642 H 610.642 V 0 H 0 Z"
         transform="translate(-251.4955,-215.1584)"
         id="path74" />
    </clipPath>
    <clipPath
       clipPathUnits="userSpaceOnUse"
       id="clipPath76">
      <path
         d="M 0,610.642 H 610.642 V 0 H 0 Z"
         transform="translate(-372.34971,-209.04311)"
         id="path76" />
    </clipPath>
    <clipPath
       clipPathUnits="userSpaceOnUse"
       id="clipPath78">
      <path
         d="M 0,610.642 H 610.642 V 0 H 0 Z"
         transform="translate(-309.62311,-259.61111)"
         id="path78" />
    </clipPath>
    <clipPath
       clipPathUnits="userSpaceOnUse"
       id="clipPath80">
      <path
         d="M 0,610.642 H 610.642 V 0 H 0 Z"
         transform="translate(-312.06211,-259.55321)"
         id="path80" />
    </clipPath>
    <clipPath
       clipPathUnits="userSpaceOnUse"
       id="clipPath82">
      <path
         d="M 0,610.642 H 610.642 V 0 H 0 Z"
         transform="translate(-315.09871,-258.61331)"
         id="path82" />
    </clipPath>
    <clipPath
       clipPathUnits="userSpaceOnUse"
       id="clipPath84">
      <path
         d="M 0,610.642 H 610.642 V 0 H 0 Z"
         transform="translate(-402.22531,-276.67711)"
         id="path84" />
    </clipPath>
    <clipPath
       clipPathUnits="userSpaceOnUse"
       id="clipPath86">
      <path
         d="M 0,610.642 H 610.642 V 0 H 0 Z"
         transform="translate(-356.80381,-300.66741)"
         id="path86" />
    </clipPath>
    <clipPath
       clipPathUnits="userSpaceOnUse"
       id="clipPath88">
      <path
         d="M 0,610.642 H 610.642 V 0 H 0 Z"
         transform="translate(-103.65981,-239.56111)"
         id="path88" />
    </clipPath>
    <clipPath
       clipPathUnits="userSpaceOnUse"
       id="clipPath90">
      <path
         d="M 0,610.642 H 610.642 V 0 H 0 Z"
         transform="translate(-49.975001,-303.31791)"
         id="path90" />
    </clipPath>
    <clipPath
       clipPathUnits="userSpaceOnUse"
       id="clipPath92">
      <path
         d="M 0,610.642 H 610.642 V 0 H 0 Z"
         transform="translate(-59.472601,-323.22721)"
         id="path92" />
    </clipPath>
    <clipPath
       clipPathUnits="userSpaceOnUse"
       id="clipPath94">
      <path
         d="M 0,610.642 H 610.642 V 0 H 0 Z"
         transform="translate(-71.476602,-320.45111)"
         id="path94" />
    </clipPath>
    <clipPath
       clipPathUnits="userSpaceOnUse"
       id="clipPath96">
      <path
         d="M 0,610.642 H 610.642 V 0 H 0 Z"
         transform="translate(-83.619805,-312.62541)"
         id="path96" />
    </clipPath>
    <clipPath
       clipPathUnits="userSpaceOnUse"
       id="clipPath98">
      <path
         d="M 0,610.642 H 610.642 V 0 H 0 Z"
         transform="translate(-92.9215,-298.52261)"
         id="path98" />
    </clipPath>
    <clipPath
       clipPathUnits="userSpaceOnUse"
       id="clipPath100">
      <path
         d="M 0,610.642 H 610.642 V 0 H 0 Z"
         transform="translate(-39.620901,-267.80191)"
         id="path100" />
    </clipPath>
    <clipPath
       clipPathUnits="userSpaceOnUse"
       id="clipPath102">
      <path
         d="M 0,610.642 H 610.642 V 0 H 0 Z"
         transform="translate(-54.418102,-265.292)"
         id="path102" />
    </clipPath>
    <clipPath
       clipPathUnits="userSpaceOnUse"
       id="clipPath104">
      <path
         d="M 0,610.642 H 610.642 V 0 H 0 Z"
         transform="translate(-60.992002,-285.4325)"
         id="path104" />
    </clipPath>
    <clipPath
       clipPathUnits="userSpaceOnUse"
       id="clipPath106">
      <path
         d="M 0,610.642 H 610.642 V 0 H 0 Z"
         transform="translate(-76.312404,-275.2487)"
         id="path106" />
    </clipPath>
    <clipPath
       clipPathUnits="userSpaceOnUse"
       id="clipPath108">
      <path
         d="M 0,610.642 H 610.642 V 0 H 0 Z"
         transform="translate(-87.017102,-271.76261)"
         id="path108" />
    </clipPath>
    <clipPath
       clipPathUnits="userSpaceOnUse"
       id="clipPath110">
      <path
         d="M 0,610.642 H 610.642 V 0 H 0 Z"
         transform="translate(-97.3585,-263.67911)"
         id="path110" />
    </clipPath>
    <clipPath
       clipPathUnits="userSpaceOnUse"
       id="clipPath112">
      <path
         d="M 0,610.642 H 610.642 V 0 H 0 Z"
         transform="translate(-497.40501,-242.4539)"
         id="path112" />
    </clipPath>
    <clipPath
       clipPathUnits="userSpaceOnUse"
       id="clipPath114">
      <path
         d="M 0,610.642 H 610.642 V 0 H 0 Z"
         transform="translate(-504.36031,-300.75251)"
         id="path114" />
    </clipPath>
    <clipPath
       clipPathUnits="userSpaceOnUse"
       id="clipPath116">
      <path
         d="M 0,610.642 H 610.642 V 0 H 0 Z"
         transform="translate(-514.54681,-292.7828)"
         id="path116" />
    </clipPath>
    <clipPath
       clipPathUnits="userSpaceOnUse"
       id="clipPath118">
      <path
         d="M 0,610.642 H 610.642 V 0 H 0 Z"
         transform="translate(-525.84742,-295.2818)"
         id="path118" />
    </clipPath>
    <clipPath
       clipPathUnits="userSpaceOnUse"
       id="clipPath120">
      <path
         d="M 0,610.642 H 610.642 V 0 H 0 Z"
         transform="translate(-532.55831,-315.72141)"
         id="path120" />
    </clipPath>
    <clipPath
       clipPathUnits="userSpaceOnUse"
       id="clipPath122">
      <path
         d="M 0,610.642 H 610.642 V 0 H 0 Z"
         transform="translate(-545.55461,-308.42361)"
         id="path122" />
    </clipPath>
    <clipPath
       clipPathUnits="userSpaceOnUse"
       id="clipPath124">
      <path
         d="M 0,610.642 H 610.642 V 0 H 0 Z"
         transform="translate(-554.26001,-317.07341)"
         id="path124" />
    </clipPath>
    <clipPath
       clipPathUnits="userSpaceOnUse"
       id="clipPath126">
      <path
         d="M 0,610.642 H 610.642 V 0 H 0 Z"
         transform="translate(-563.12152,-303.09961)"
         id="path126" />
    </clipPath>
    <clipPath
       clipPathUnits="userSpaceOnUse"
       id="clipPath128">
      <path
         d="M 0,610.642 H 610.642 V 0 H 0 Z"
         transform="translate(-515.17861,-269.3792)"
         id="path128" />
    </clipPath>
    <clipPath
       clipPathUnits="userSpaceOnUse"
       id="clipPath130">
      <path
         d="M 0,610.642 H 610.642 V 0 H 0 Z"
         transform="translate(-525.12821,-265.73381)"
         id="path130" />
    </clipPath>
    <clipPath
       clipPathUnits="userSpaceOnUse"
       id="clipPath132">
      <path
         d="M 0,610.642 H 610.642 V 0 H 0 Z"
         transform="translate(-535.73471,-271.96151)"
         id="path132" />
    </clipPath>
    <clipPath
       clipPathUnits="userSpaceOnUse"
       id="clipPath134">
      <path
         d="M 0,610.642 H 610.642 V 0 H 0 Z"
         transform="translate(-543.44302,-281.7401)"
         id="path134" />
    </clipPath>
  </defs>
  <sodipodi:namedview
     id="namedview1"
     pagecolor="#ffffff"
     bordercolor="#000000"
     borderopacity="0.25"
     inkscape:showpageshadow="2"
     inkscape:pageopacity="0.0"
     inkscape:pagecheckerboard="0"
     inkscape:deskcolor="#d1d1d1"
     inkscape:export-bgcolor="#00000000">
    <inkscape:page
       x="0"
       y="0"
       inkscape:label="1"
       id="page1"
       width="814.18933"
       height="814.18933"
       margin="0"
       bleed="0" />
  </sodipodi:namedview>
  <g
     id="layer-MC0"
     inkscape:groupmode="layer"
     inkscape:label="Layer 1">
    <path
       id="path1"
       d="m 0,0 c 0,-168.624 -136.697,-305.321 -305.321,-305.321 -168.624,0 -305.321,136.697 -305.321,305.321 0,168.624 136.697,305.321 305.321,305.321 C -136.697,305.321 0,168.624 0,0"
       style="fill:#35343a;fill-opacity:1;fill-rule:nonzero;stroke:none"
       transform="matrix(1.3333333,0,0,-1.3333333,814.1888,407.09493)"
       clip-path="url(#clipPath2)" />
    <path
       id="path3"
       d="m 0,0 c -1.024,-5.883 -51.423,42.513 -52.378,45.024 -8.981,-0.185 -15.894,1.136 -34.714,8.931 l -4.489,1.867 c -15.126,6.319 -22.69,9.532 -26.725,5.205 -3.487,-3.766 -0.922,-10.162 10.547,-26.347 1.808,-2.546 3.648,-5.198 5.525,-7.905 19.796,-28.572 46.544,-67.182 89.206,-50.653 2.204,0.853 4.462,1.86 6.748,3.018 8.148,4.119 12.775,9.382 14.045,18.575 C 5.065,-2.285 2.7,0 0,0"
       style="fill:#3e5954;fill-opacity:1;fill-rule:nonzero;stroke:none"
       transform="matrix(1.3333333,0,0,-1.3333333,413.5432,467.06707)"
       clip-path="url(#clipPath4)" />
    <path
       id="path5"
       d="m 0,0 c 2.279,2.161 5.048,4.244 6.379,6.558 8.762,-1.597 15.737,-1.39 35.39,3.296 l 4.689,1.125 c 15.804,3.82 23.716,5.782 26.981,0.898 2.818,-4.246 -0.704,-10.121 -14.488,-24.201 -2.172,-2.216 -4.392,-4.528 -6.657,-6.89 -23.893,-24.928 -56.177,-58.616 -95.323,-35.666 -2.022,1.186 -4.073,2.53 -6.127,4.027 -7.325,5.327 -11.022,11.223 -10.812,20.447 C -57.325,-30.831 -18.006,-19.984 0,0"
       style="fill:#3e5954;fill-opacity:1;fill-rule:nonzero;stroke:none"
       transform="matrix(1.3333333,0,0,-1.3333333,490.04293,429.38227)"
       clip-path="url(#clipPath6)" />
    <path
       id="path7"
       d="m 0,0 c -4.682,6.321 -11.648,11.353 -19.699,15.133 -13.089,6.146 -29.044,8.983 -42.705,8.67 -24.52,-0.561 -47.538,-11.283 -57.623,-28.134 -6.572,-10.98 -6.301,-23.691 -4.122,-36.144 2.738,-15.641 6.294,-33.566 17.278,-47.761 8.194,-10.59 20.216,-18.917 33.805,-25.08 2.408,-1.092 4.936,-2.13 7.602,-2.423 3.662,-0.402 7.112,0.642 10.334,1.732 11.818,3.996 23.136,8.901 32.689,15.459 20.469,14.052 27.065,35.361 31.948,56.316 C 12.794,-28.127 9.845,-13.291 0,0"
       style="fill:#883254;fill-opacity:1;fill-rule:nonzero;stroke:none"
       transform="matrix(1.3333333,0,0,-1.3333333,501.4528,318.48)"
       clip-path="url(#clipPath8)" />
    <path
       id="path9"
       d="M 0,0 -1.947,-5.764 C -2.136,-6.132 -2.42,-6.406 -2.749,-6.537 L -8.515,-7.533 C -8.908,-7.69 -8.976,-8.36 -8.627,-8.638 l 5.69,-2.915 c 0.207,-0.165 0.379,-0.392 0.501,-0.661 l 1.818,-6.04 c 0.166,-0.368 0.569,-0.415 0.785,-0.091 l 2.865,6.089 c 0.121,0.181 0.268,0.332 0.432,0.444 l 5.736,2.58 c 0.375,0.255 0.325,0.958 -0.08,1.124 L 3.241,-6.626 C 2.887,-6.482 2.588,-6.173 2.404,-5.763 L 0.822,-0.031 C 0.644,0.368 0.197,0.384 0,0"
       style="fill:#f0ebf2;fill-opacity:1;fill-rule:nonzero;stroke:none"
       transform="matrix(1.3333333,0,0,-1.3333333,374.84747,217.83747)"
       clip-path="url(#clipPath10)" />
    <path
       id="path11"
       d="M 0,0 -1.947,-5.764 C -2.136,-6.132 -2.42,-6.406 -2.749,-6.537 L -8.515,-7.533 C -8.908,-7.69 -8.976,-8.36 -8.627,-8.638 l 5.69,-2.915 c 0.207,-0.165 0.379,-0.392 0.501,-0.661 l 1.818,-6.04 c 0.166,-0.368 0.569,-0.415 0.785,-0.091 l 2.865,6.089 c 0.121,0.181 0.268,0.332 0.432,0.444 l 5.736,2.58 c 0.375,0.255 0.325,0.958 -0.08,1.124 L 3.241,-6.626 C 2.887,-6.482 2.588,-6.173 2.404,-5.763 L 0.822,-0.031 C 0.644,0.368 0.197,0.385 0,0"
       style="fill:#f0ebf2;fill-opacity:1;fill-rule:nonzero;stroke:none"
       transform="matrix(1.3333333,0,0,-1.3333333,301.30107,332.5588)"
       clip-path="url(#clipPath12)" />
    <path
       id="path13"
       d="M 0,0 -1.947,-5.764 C -2.136,-6.132 -2.42,-6.406 -2.749,-6.537 L -8.515,-7.533 C -8.908,-7.69 -8.976,-8.36 -8.627,-8.638 l 5.69,-2.915 c 0.207,-0.165 0.379,-0.392 0.501,-0.661 l 1.818,-6.04 c 0.166,-0.368 0.569,-0.415 0.785,-0.091 l 2.865,6.089 c 0.121,0.181 0.268,0.332 0.432,0.444 l 5.736,2.58 c 0.375,0.255 0.325,0.958 -0.08,1.124 L 3.241,-6.626 C 2.887,-6.482 2.588,-6.173 2.404,-5.763 L 0.822,-0.031 C 0.644,0.368 0.197,0.385 0,0"
       style="fill:#f0ebf2;fill-opacity:1;fill-rule:nonzero;stroke:none"
       transform="matrix(1.3333333,0,0,-1.3333333,460.8512,527.68387)"
       clip-path="url(#clipPath14)" />
    <path
       id="path15"
       d="M 0,0 -1.952,-3.594 C -2.141,-3.962 -2.424,-4.236 -2.754,-4.367 L -8.52,-5.363 C -8.912,-5.52 -8.98,-6.19 -8.631,-6.468 l 5.69,-2.915 c 0.207,-0.165 0.378,-0.392 0.5,-0.661 l 2.299,-4.335 c 0.167,-0.368 0.57,-0.415 0.785,-0.09 l 2.385,4.383 c 0.121,0.181 0.267,0.332 0.432,0.444 l 5.735,2.58 c 0.375,0.256 0.325,0.958 -0.08,1.124 L 3.236,-4.456 C 2.882,-4.312 2.584,-4.003 2.4,-3.593 L 0.822,-0.031 C 0.644,0.368 0.197,0.384 0,0"
       style="fill:#f0ebf2;fill-opacity:1;fill-rule:nonzero;stroke:none"
       transform="matrix(1.3333333,0,0,-1.3333333,434.6052,249.87747)"
       clip-path="url(#clipPath16)" />
    <path
       id="path17"
       d="M 0,0 -1.952,-3.594 C -2.141,-3.962 -2.424,-4.236 -2.754,-4.367 L -8.52,-5.363 C -8.912,-5.52 -8.98,-6.19 -8.631,-6.468 l 5.69,-2.915 c 0.207,-0.165 0.378,-0.392 0.5,-0.661 l 2.299,-4.335 c 0.167,-0.368 0.57,-0.415 0.785,-0.09 l 2.385,4.383 c 0.121,0.181 0.267,0.332 0.432,0.444 l 5.735,2.58 c 0.375,0.256 0.325,0.958 -0.08,1.124 L 3.236,-4.456 C 2.882,-4.312 2.584,-4.003 2.4,-3.593 L 0.822,-0.031 C 0.644,0.368 0.197,0.384 0,0"
       style="fill:#f0ebf2;fill-opacity:1;fill-rule:nonzero;stroke:none"
       transform="matrix(1.3333333,0,0,-1.3333333,573.77587,506.05573)"
       clip-path="url(#clipPath18)" />
    <path
       id="path19"
       d="M 0,0 -1.952,-3.594 C -2.141,-3.962 -2.424,-4.236 -2.754,-4.367 L -8.52,-5.363 C -8.912,-5.52 -8.98,-6.19 -8.631,-6.468 l 5.69,-2.915 c 0.207,-0.165 0.378,-0.392 0.5,-0.661 l 2.299,-4.335 c 0.167,-0.368 0.57,-0.414 0.785,-0.09 l 2.385,4.383 c 0.121,0.181 0.267,0.332 0.432,0.444 l 5.735,2.58 c 0.375,0.256 0.325,0.958 -0.08,1.124 L 3.236,-4.456 C 2.882,-4.312 2.584,-4.003 2.4,-3.592 L 0.822,-0.031 C 0.644,0.368 0.197,0.385 0,0"
       style="fill:#f0ebf2;fill-opacity:1;fill-rule:nonzero;stroke:none"
       transform="matrix(1.3333333,0,0,-1.3333333,264.03933,486.1796)"
       clip-path="url(#clipPath20)" />
    <path
       id="path21"
       d="M 0,0 -1.952,-3.594 C -2.141,-3.962 -2.424,-4.236 -2.754,-4.367 L -8.52,-5.363 C -8.912,-5.52 -8.98,-6.19 -8.631,-6.468 l 5.69,-2.915 c 0.206,-0.165 0.378,-0.392 0.5,-0.661 l 2.299,-4.335 c 0.167,-0.368 0.57,-0.414 0.785,-0.09 l 2.385,4.383 c 0.121,0.181 0.267,0.332 0.432,0.444 l 5.735,2.58 c 0.375,0.256 0.325,0.958 -0.08,1.124 L 3.236,-4.456 C 2.882,-4.312 2.584,-4.003 2.4,-3.593 L 0.822,-0.031 C 0.644,0.368 0.197,0.385 0,0"
       style="fill:#f0ebf2;fill-opacity:1;fill-rule:nonzero;stroke:none"
       transform="matrix(1.3333333,0,0,-1.3333333,434.35573,580.2676)"
       clip-path="url(#clipPath22)" />
    <path
       id="path23"
       d="m 0,0 -2.935,-9.673 c -0.189,-0.369 -0.473,-0.642 -0.802,-0.773 l -5.766,-0.997 c -0.393,-0.156 -0.461,-0.827 -0.112,-1.104 l 5.69,-2.915 c 0.207,-0.165 0.379,-0.392 0.501,-0.661 l 1.36,-9.923 c 0.166,-0.368 0.57,-0.415 0.785,-0.091 l 3.949,9.972 c 0.121,0.181 0.267,0.332 0.432,0.444 l 5.11,2.58 c 0.375,0.255 0.325,0.958 -0.08,1.123 l -5.03,1.482 c -0.354,0.145 -0.652,0.453 -0.836,0.864 L 0.822,-0.031 C 0.644,0.368 0.197,0.385 0,0"
       style="fill:#f0ebf2;fill-opacity:1;fill-rule:nonzero;stroke:none"
       transform="matrix(1.3333333,0,0,-1.3333333,481.1808,208.54027)"
       clip-path="url(#clipPath24)" />
    <path
       id="path25"
       d="m 0,0 -2.935,-9.673 c -0.189,-0.369 -0.473,-0.642 -0.802,-0.773 l -5.766,-0.997 c -0.393,-0.156 -0.461,-0.827 -0.112,-1.104 l 5.69,-2.915 c 0.207,-0.165 0.379,-0.392 0.501,-0.661 l 1.36,-9.923 c 0.166,-0.368 0.57,-0.415 0.785,-0.091 l 3.949,9.972 c 0.121,0.181 0.267,0.332 0.432,0.444 l 5.11,2.58 c 0.375,0.255 0.325,0.958 -0.08,1.123 l -5.03,1.482 c -0.354,0.145 -0.652,0.453 -0.836,0.864 L 0.822,-0.031 C 0.644,0.368 0.197,0.384 0,0"
       style="fill:#f0ebf2;fill-opacity:1;fill-rule:nonzero;stroke:none"
       transform="matrix(1.3333333,0,0,-1.3333333,553.38333,345.24587)"
       clip-path="url(#clipPath26)" />
    <path
       id="path27"
       d="m 0,0 -2.935,-9.673 c -0.189,-0.369 -0.473,-0.642 -0.802,-0.773 l -5.766,-0.997 c -0.393,-0.156 -0.461,-0.827 -0.112,-1.104 l 5.69,-2.915 c 0.207,-0.165 0.379,-0.392 0.501,-0.661 l 1.36,-9.923 c 0.166,-0.368 0.57,-0.415 0.785,-0.091 l 3.949,9.972 c 0.121,0.181 0.267,0.332 0.432,0.444 l 5.11,2.58 c 0.375,0.255 0.325,0.958 -0.08,1.123 l -5.03,1.482 c -0.354,0.145 -0.652,0.453 -0.836,0.864 L 0.822,-0.031 C 0.644,0.368 0.197,0.385 0,0"
       style="fill:#f0ebf2;fill-opacity:1;fill-rule:nonzero;stroke:none"
       transform="matrix(1.3333333,0,0,-1.3333333,378.79467,535.66947)"
       clip-path="url(#clipPath28)" />
    <path
       id="path29"
       d="m 0,0 c 5.935,1.218 11.393,0.859 16.366,-1.078 5.379,-2.094 9.722,-5.817 13.032,-11.17 2.787,-4.481 3.012,-12.028 0.675,-22.641 -0.018,-0.542 9.957,-3.068 10.796,-3.325 4.228,-1.294 9.475,-1.777 8.481,-7.361 -0.647,-3.635 -2.421,-6.95 -3.334,-10.513 -0.364,-1.419 -0.596,-2.882 -1.164,-4.233 -0.733,-1.746 -2.126,-3.254 -4.113,-3.341 -2.758,-0.122 -6.321,1.404 -8.975,2.119 -3.062,0.826 -6.101,1.735 -9.118,2.708 -12.107,3.905 -23.844,8.844 -35.559,13.776 -3.569,1.503 -13.02,4.923 -12.403,10.059 0.699,5.724 4.494,12.569 6.139,16.792 C -15.191,-7.971 -8.83,-1.89 0,0"
       style="fill:#d6b3ad;fill-opacity:1;fill-rule:nonzero;stroke:none"
       transform="matrix(1.3333333,0,0,-1.3333333,101.1888,235.116)"
       clip-path="url(#clipPath30)" />
    <path
       id="path31"
       d="m 0,0 c 1.922,-2.289 3.663,-4.715 4.95,-7.206 1.393,-2.698 2.116,-5.863 1.359,-8.804 -0.621,-2.412 -2.163,-4.464 -3.671,-6.446 L -7.573,-35.878 c -3.545,-4.661 -7.893,-9.969 -14.323,-9.674 -8.057,0.359 -15.635,7.433 -21.536,12.24 -8.531,6.95 -16.026,14.585 -21.613,24.153 -1.748,2.994 -3.334,6.226 -3.479,9.689 -0.194,4.637 2.234,9.009 5.234,12.549 3.82,4.506 8.474,10.466 14.335,12.155 4.653,1.34 9.373,-0.348 13.824,-1.694 5.103,-1.545 10.026,-3.676 14.656,-6.319 C -15.279,14.255 -10.45,10.645 -6.144,6.49 -4.102,4.52 -1.958,2.331 0,0"
       style="fill:#d6b3ad;fill-opacity:1;fill-rule:nonzero;stroke:none"
       transform="matrix(1.3333333,0,0,-1.3333333,214.43973,183.07147)"
       clip-path="url(#clipPath32)" />
    <path
       id="path33"
       d="m 0,0 c 1.971,-2.453 -8.478,-7.261 -8.743,-7.403 -5.089,-2.739 -7.475,-5.391 -13.699,-4.895 -2.311,0.185 -4.446,1.231 -6.438,2.345 -2.316,1.296 -6.626,3.141 -8.229,5.208 0.984,-1.27 1.78,-2.4 2.382,-3.396 1.968,-3.257 4.293,-7.827 3.842,-10.682 -0.415,-2.623 -4.786,-4.082 -6.756,-5.019 -2.153,-1.024 -4.279,-2.103 -6.376,-3.236 -1.141,-0.616 -3.482,-2.662 -4.894,-2.146 -2.379,0.871 -3.827,4.285 -5.073,6.281 -2.031,3.257 -4.03,6.534 -5.993,9.833 -4.004,6.728 -7.864,13.543 -11.576,20.438 -2.79,5.183 -5.506,10.427 -7.643,15.918 -1.231,3.163 -2.487,6.538 -1.468,9.933 1.195,3.986 6.065,6.555 9.28,8.816 7.648,5.379 19.787,14.7 29.555,9.416 5.397,-3.777 9.42,-9.807 11.97,-14.139 2.609,-4.446 3.645,-8.858 3.103,-13.244 -0.08,-0.704 -0.746,-3.024 -1.989,-6.967 C -17.66,13.87 -6.108,7.6 0,0"
       style="fill:#d6b3ad;fill-opacity:1;fill-rule:nonzero;stroke:none"
       transform="matrix(1.3333333,0,0,-1.3333333,319.476,146.67467)"
       clip-path="url(#clipPath34)" />
    <path
       id="path35"
       d="m 0,0 c 0.883,-4.459 0.723,-9.452 -1.41,-11.453 -1.88,-1.763 -4.622,-2.546 -7.027,-3.282 -0.724,-0.222 -6.136,-1.353 -6.159,-2.263 -0.04,-1.567 0.778,-3.434 1.177,-4.919 0.961,-3.579 2.113,-7.1 3.077,-10.679 1.385,-5.138 2.489,-10.352 3.306,-15.61 0.643,-4.136 1.828,-9.1 0.875,-13.273 -0.525,-2.228 -1.984,-3.354 -4.263,-3.613 -1.379,-0.157 -2.774,-0.007 -4.16,-0.078 -4.019,-0.207 -8.638,-1.412 -14.259,-1.911 -2.68,-0.238 -2.067,6.819 -2.446,9.313 -0.511,3.36 -0.989,6.726 -1.434,10.095 -0.688,5.207 -1.298,10.425 -1.828,15.65 -0.122,1.194 -1.066,13.357 -0.887,13.42 -2.004,-0.763 -14.081,-2.511 -15.303,-1.008 -1.862,2.287 -1.966,8.361 -2.31,10.572 -0.464,2.98 -1.191,6.508 0.404,9.285 2.133,3.715 7.157,4.4 10.954,5.256 10.168,2.29 20.638,2.674 31.016,3.051 2.318,0.084 5.766,0.644 7.512,-1.082 C -1.803,6.125 -0.633,3.2 0,0"
       style="fill:#d6b3ad;fill-opacity:1;fill-rule:nonzero;stroke:none"
       transform="matrix(1.3333333,0,0,-1.3333333,391.54107,54.3848)"
       clip-path="url(#clipPath36)" />
    <path
       id="path37"
       d="m 0,0 c -0.216,-2.5 -0.558,-5.014 -1.253,-7.403 -1.53,-5.267 -8.578,-3.84 -12.879,-3.62 -5.07,0.259 -10.149,0.711 -15.182,1.372 -3.855,0.507 -8.224,1.652 -9.514,5.782 -0.665,2.128 -0.298,4.222 -0.045,6.375 0.444,3.775 0.857,7.552 1.319,11.325 1.019,8.338 2.18,16.665 3.745,24.92 0.797,4.201 1.697,8.382 2.735,12.53 0.629,2.513 1.315,7.828 3.817,9.362 1.733,1.062 4.626,0.43 6.513,0.314 2.736,-0.169 10.191,0.328 12.132,-2.06 2.813,-3.465 0.667,-10.488 0.158,-14.366 -1.093,-8.336 -2.57,-16.591 -4.416,-24.792 -1.243,-5.658 -1.705,-8.695 -1.385,-9.112 -0.01,0.012 6.18,-0.34 6.812,-0.336 2.015,0.014 5.375,0.156 6.967,-1.292 C 1.091,7.573 0.291,4.209 0.173,2.347 0.123,1.569 0.068,0.785 0,0"
       style="fill:#d6b3ad;fill-opacity:1;fill-rule:nonzero;stroke:none"
       transform="matrix(1.3333333,0,0,-1.3333333,480.56533,124.82747)"
       clip-path="url(#clipPath38)" />
    <path
       id="path39"
       d="m 0,0 c 4.301,-4.268 7.025,-9.011 8.166,-14.223 1.235,-5.639 0.54,-11.317 -2.083,-17.038 -2.188,-4.803 -8.347,-9.169 -18.479,-13.101 -0.461,-0.285 2.961,-9.989 3.211,-10.831 1.264,-4.237 3.768,-8.873 -1.432,-11.138 -3.385,-1.474 -7.128,-1.833 -10.601,-3.046 -1.383,-0.483 -2.729,-1.099 -4.168,-1.375 -1.861,-0.357 -3.887,-0.032 -5.061,1.574 -1.628,2.229 -2.331,6.041 -3.205,8.647 -1.008,3.007 -1.934,6.04 -2.795,9.092 -3.453,12.243 -5.841,24.752 -8.222,37.237 -0.726,3.804 -3.112,13.568 1.506,15.898 5.153,2.588 12.955,3.219 17.382,4.188 C -15.05,8.234 -6.464,6.306 0,0"
       style="fill:#d6b3ad;fill-opacity:1;fill-rule:nonzero;stroke:none"
       transform="matrix(1.3333333,0,0,-1.3333333,500.88893,672.29867)"
       clip-path="url(#clipPath40)" />
    <path
       id="path41"
       d="m 0,0 c 0.834,-2.87 1.447,-5.792 1.618,-8.591 0.186,-3.031 -0.431,-6.218 -2.311,-8.603 -1.542,-1.956 -3.782,-3.211 -5.962,-4.415 l -14.761,-8.156 c -5.126,-2.832 -11.247,-5.932 -17.011,-3.066 -7.225,3.582 -11.301,13.113 -14.758,19.895 -4.998,9.803 -8.772,19.814 -10.019,30.824 -0.391,3.444 -0.537,7.041 0.73,10.268 1.695,4.32 5.681,7.34 9.855,9.367 5.314,2.58 11.979,6.153 18.022,5.331 4.798,-0.653 8.435,-4.103 11.963,-7.133 4.045,-3.473 7.688,-7.411 10.857,-11.698 C -8.221,19.211 -5.262,13.958 -3,8.419 -1.928,5.792 -0.849,2.923 0,0"
       style="fill:#d6b3ad;fill-opacity:1;fill-rule:nonzero;stroke:none"
       transform="matrix(1.3333333,0,0,-1.3333333,605.2872,685.9076)"
       clip-path="url(#clipPath42)" />
    <path
       id="path43"
       d="m 0,0 c 2.271,-1.943 4.385,-4.052 6.062,-6.298 1.816,-2.434 3.048,-5.438 2.782,-8.463 -0.217,-2.481 -1.403,-4.759 -2.566,-6.961 -2.626,-4.971 -5.251,-9.941 -7.877,-14.912 -2.734,-5.178 -6.155,-11.126 -12.547,-11.888 -8.007,-0.964 -16.64,4.774 -23.249,8.551 -9.553,5.46 -18.197,11.765 -25.274,20.29 -2.215,2.667 -4.308,5.596 -5.018,8.989 -0.95,4.542 0.729,9.253 3.11,13.236 3.031,5.071 6.647,11.712 12.152,14.337 4.371,2.084 9.303,1.191 13.915,0.591 5.287,-0.688 10.493,-1.985 15.493,-3.834 5.611,-2.076 10.966,-4.847 15.893,-8.241 C -4.787,3.788 -2.313,1.98 0,0"
       style="fill:#d6b3ad;fill-opacity:1;fill-rule:nonzero;stroke:none"
       transform="matrix(1.3333333,0,0,-1.3333333,718.06387,544.5992)"
       clip-path="url(#clipPath44)" />
    <path
       id="path45"
       d="m 0,0 c 1.723,-1.824 3.372,-3.752 4.694,-5.861 2.915,-4.645 -2.839,-8.958 -5.865,-12.024 -3.565,-3.613 -7.281,-7.104 -11.123,-10.422 -2.943,-2.541 -6.704,-5.042 -10.646,-3.258 -2.031,0.919 -3.351,2.586 -4.79,4.208 -2.523,2.842 -5.068,5.663 -7.578,8.517 -5.549,6.308 -10.993,12.713 -16.116,19.374 -2.606,3.389 -5.13,6.843 -7.536,10.377 -1.458,2.142 -4.97,6.189 -4.451,9.078 0.36,2 2.756,3.74 4.098,5.071 1.946,1.931 6.534,7.828 9.609,7.689 4.458,-0.205 8.274,-6.479 10.831,-9.438 5.497,-6.362 10.678,-12.957 15.573,-19.79 3.398,-4.691 5.359,-7.057 5.883,-7.096 -0.016,0.001 4.364,4.388 4.782,4.863 1.33,1.514 3.459,4.117 5.599,4.343 C -4.928,5.852 -2.949,3.017 -1.638,1.69 -1.09,1.135 -0.541,0.573 0,0"
       style="fill:#d6b3ad;fill-opacity:1;fill-rule:nonzero;stroke:none"
       transform="matrix(1.3333333,0,0,-1.3333333,668.44627,626.79853)"
       clip-path="url(#clipPath46)" />
    <path
       id="path47"
       d="m 0,0 c -1.611,-2.436 -14.832,6.289 -16.953,7.427 -5.218,2.8 1.164,10.191 3.303,13.462 -2.011,1.463 -4.443,2.906 -7.294,4.327 -0.203,-0.536 -0.559,-1.305 -1.067,-2.308 -1.393,-2.131 -2.891,-6.191 -5.583,-7.695 -2.357,-1.317 -5.479,1.112 -7.354,2.2 -2.239,1.301 -4.448,2.654 -6.623,4.059 -0.949,0.613 -3.891,1.83 -4.462,2.797 -2.062,3.491 0.293,7.393 2.217,10.358 3.086,4.755 6.479,9.368 9.811,13.953 8.841,12.164 19.268,23.757 33.802,28.923 5.679,1.997 11.431,1.093 17.248,-2.712 6.231,-4.076 9.658,-9.101 10.28,-15.067 C 27.699,56.215 27.273,52.67 26.05,49.098 21.735,36.269 16.863,25.701 11.428,17.391 8.263,12.552 0.149,0.227 0,0"
       style="fill:#d6b3ad;fill-opacity:1;fill-rule:nonzero;stroke:none"
       transform="matrix(1.3333333,0,0,-1.3333333,567.7772,184.9536)"
       clip-path="url(#clipPath48)" />
    <path
       id="path49"
       d="m 0,0 c -5.411,-4.644 -11.038,-9.047 -16.655,-13.442 -6.165,-4.823 -12.333,-9.648 -18.687,-14.219 -2.367,-1.703 -5.249,-3.454 -8.016,-2.534 -1.538,0.511 -2.698,1.767 -3.732,3.016 -1.92,2.32 -3.662,4.789 -5.203,7.377 -0.571,0.958 -1.123,1.957 -1.307,3.057 -0.303,1.804 0.417,3.61 1.177,5.274 3.845,8.423 9.054,16.139 14.237,23.811 -6.401,-7.15 -14.107,-13.128 -22.624,-17.549 -0.79,-0.41 -1.701,-0.816 -2.54,-0.519 -0.527,0.188 -0.921,0.623 -1.289,1.045 -3.229,3.698 -6.237,7.59 -9.003,11.646 -0.412,0.603 -0.828,1.234 -0.948,1.955 -0.209,1.249 0.511,2.456 1.297,3.449 1.727,2.18 3.904,3.953 6.089,5.674 8.205,6.466 16.769,12.467 25.508,18.189 4.372,2.862 8.791,5.655 13.235,8.405 3.019,1.867 8.225,6.909 11.931,4.577 1.077,-0.678 1.89,-1.695 2.672,-2.699 2.003,-2.571 3.944,-5.191 5.819,-7.857 0.798,-1.134 1.609,-2.344 1.737,-3.724 0.147,-1.603 -0.651,-3.126 -1.448,-4.525 -4.668,-8.193 -10.136,-15.921 -16.164,-23.173 6.69,6.849 13.712,13.373 21.034,19.541 0.793,0.669 1.645,1.359 2.67,1.519 2.078,0.325 3.767,-1.571 5.009,-3.269 1.75,-2.393 3.5,-4.785 5.249,-7.177 1.083,-1.48 2.219,-3.146 2.033,-4.97 C 11.911,11.207 10.67,9.868 9.476,8.687 6.428,5.67 3.253,2.792 0,0"
       style="fill:#d6b3ad;fill-opacity:1;fill-rule:nonzero;stroke:none"
       transform="matrix(1.3333333,0,0,-1.3333333,688.38947,220.29267)"
       clip-path="url(#clipPath50)" />
    <path
       id="path51"
       d="m 0,0 c -8.165,-2.58 -16.094,-3.132 -23.785,-1.659 -9.475,1.76 -16.768,6.518 -21.889,14.273 -1.753,4.523 -6.066,11.876 -5.842,16.015 0.22,4.138 37.645,15.902 52.202,20.502 5.383,1.7 12.01,3.706 14.391,4.199 3.666,-0.471 4.027,-5.638 6.571,-13.688 1.438,-4.554 2.189,-8.778 2.247,-12.667 C 23.351,22.707 21.577,18.435 18.569,14.166 13.526,7.041 7.339,2.319 0,0"
       style="fill:#d6b3ad;fill-opacity:1;fill-rule:nonzero;stroke:none"
       transform="matrix(1.3333333,0,0,-1.3333333,708.81027,324.7144)"
       clip-path="url(#clipPath52)" />
    <path
       id="path53"
       d="m 0,0 c -5.481,-4.006 -11.061,-5.43 -16.742,-4.278 -2.994,0.612 -7.429,2.557 -13.308,5.839 -2.205,1.785 -4.282,3.805 -6.232,6.057 -5.73,6.615 -12.253,9.971 -12.002,15.276 0.279,1.472 10.863,10.59 24.187,22.13 15.809,13.694 26.907,23.253 29.105,23.843 5.659,-0.844 9.264,-6.993 14.993,-13.608 1.665,-1.922 2.828,-3.46 3.494,-4.606 3.486,-6.013 4.93,-11.499 4.334,-16.448 -0.598,-4.95 -2.994,-9.367 -7.19,-13.246 C 17.783,19.14 14.823,18.385 11.766,18.692 10.412,18.833 8.023,19.555 4.597,20.855 6.674,17.318 7.228,13.55 6.259,9.552 5.29,5.548 3.202,2.364 0,0"
       style="fill:#d6b3ad;fill-opacity:1;fill-rule:nonzero;stroke:none"
       transform="matrix(1.3333333,0,0,-1.3333333,151.7516,611.63187)"
       clip-path="url(#clipPath54)" />
    <path
       id="path55"
       d="m 0,0 c -5.743,-8.565 -12.446,-16.477 -19.583,-23.906 -4.29,-4.465 -8.753,-8.763 -13.324,-12.939 -1.926,-1.76 -3.474,-3.685 -5.278,-5.485 -1.181,-1.178 -2.902,-2.016 -4.505,-0.918 -1.13,0.774 -10.009,8.141 -10.397,8.464 -3.977,3.306 -1.778,5.326 0.503,9.081 2.883,4.745 5.99,9.354 9.306,13.808 8.846,11.885 19.649,21.61 29.736,32.312 5.455,1.515 9.649,-3.6 14.231,-7.409 C 1.737,12.136 2.586,11.264 3.242,10.397 4.059,8.667 4.013,6.811 3.092,4.833 2.097,3.199 1.065,1.588 0,0"
       style="fill:#d6b3ad;fill-opacity:1;fill-rule:nonzero;stroke:none"
       transform="matrix(1.3333333,0,0,-1.3333333,228.4212,616.01573)"
       clip-path="url(#clipPath56)" />
    <path
       id="path57"
       d="m 0,0 c 0.359,0.197 0.724,0.348 1.095,0.442 3.015,0.766 6.911,-2.267 9.392,-3.569 3.03,-1.59 6.311,-4.654 5.888,-8.443 -0.125,-1.114 -0.641,-2.141 -1.163,-3.133 -1.414,-2.684 -2.955,-5.288 -4.554,-7.864 -0.775,-1.249 -2.884,-3.488 -2.983,-4.948 -0.041,-0.611 0.185,-1.044 0.681,-1.304 0.438,-0.23 0.857,-0.171 1.252,0.183 4.173,3.736 8.194,7.72 12.624,11.152 2.12,1.643 6.089,5.5 9.165,4.121 6.409,-2.876 12.476,-5.486 12.605,-10.457 0.108,-4.175 -5.325,-8.781 -8.264,-11.147 -2.893,-2.328 -6.075,-4.253 -9.098,-6.401 -3.024,-2.148 -5.711,-4.758 -8.809,-6.799 -1.881,-1.239 -1.255,-3.162 -1.131,-5.114 0.644,-10.125 -1.106,-19.034 -3.677,-28.812 -1.386,-5.269 -6.317,-4.145 -10.161,-2.342 -2.057,0.964 -4.02,2.133 -6.011,3.226 -2.429,1.333 -3.216,2.962 -2.705,5.669 1.045,5.528 0.161,11.068 0.963,16.531 0.19,1.294 0.96,2.836 0.535,4.164 -0.108,0.336 -0.526,0.87 -1.262,1.605 0,0 -0.879,-0.272 -0.88,-0.272 -1.16,-3.588 -2.572,-7.093 -4.188,-10.499 -1.215,-2.562 -2.619,-7.001 -5.233,-8.474 -2.325,-1.311 -5.135,1.653 -6.896,2.774 -3.952,2.516 -12.353,3.464 -12.517,9.523 -0.112,4.109 2.713,8.043 4.413,11.6 4.365,9.137 9.331,17.984 14.791,26.511 2.69,4.202 5.5,8.326 8.42,12.372 C -5.844,-7.121 -3.162,-1.739 0,0"
       style="fill:#d6b3ad;fill-opacity:1;fill-rule:nonzero;stroke:none"
       transform="matrix(1.3333333,0,0,-1.3333333,252.6084,624.6156)"
       clip-path="url(#clipPath58)" />
    <path
       id="path59"
       d="m 0,0 c 0.2,-1.214 -0.088,-5.237 -0.386,-6.54 -0.705,-3.078 -0.188,-7.046 -3.504,-8.753 -4.606,-2.37 -9.508,1.814 -13.973,2.395 -0.054,0.007 -2.609,-7.765 -2.784,-8.356 -0.11,-0.374 -0.217,-0.772 -0.119,-1.15 0.455,-1.739 11.717,-1.362 13.852,-2.896 2.161,-1.552 -0.885,-7.599 -1.366,-9.426 -1.328,-5.048 -1.463,-11.917 -8.937,-10.304 -5.323,1.148 -10.772,1.487 -16.161,2.181 -3.999,0.515 -12.133,0.789 -14.577,4.537 -2.076,3.181 -0.086,9.841 0.37,13.401 0.672,5.243 1.548,10.46 2.627,15.636 1.407,6.748 3.156,13.426 5.241,19.997 1.818,5.728 3.477,12.812 7.53,17.443 2.089,2.386 3.496,2.475 6.56,2.173 5.007,-0.495 10.004,-1.094 14.987,-1.795 C -6.828,28.007 -0.554,26.521 4.244,24.101 6.899,22.762 4.114,12.948 1.191,11.429 -2.484,9.518 -9.615,12.481 -13.29,13.271 -14.338,13.496 -15.841,5.843 -16.239,4.858 -16.472,4.283 -10.588,3.865 -10.212,3.821 -7.507,3.502 -1.717,3.543 -0.276,0.812 -0.132,0.54 -0.044,0.269 0,0"
       style="fill:#d6b3ad;fill-opacity:1;fill-rule:nonzero;stroke:none"
       transform="matrix(1.3333333,0,0,-1.3333333,380.1764,704.57893)"
       clip-path="url(#clipPath60)" />
    <path
       id="path61"
       d="m 0,0 -13.457,16.658 3.093,2.496 L 3.093,2.496 Z"
       style="fill:#d6b3ad;fill-opacity:1;fill-rule:nonzero;stroke:none"
       transform="matrix(1.3333333,0,0,-1.3333333,492.71013,535.84613)"
       clip-path="url(#clipPath62)" />
    <path
       id="path63"
       d="M 0,0 -20.709,26.472 -17.58,28.92 3.129,2.448 Z"
       style="fill:#d6b3ad;fill-opacity:1;fill-rule:nonzero;stroke:none"
       transform="matrix(1.3333333,0,0,-1.3333333,338.584,327.6256)"
       clip-path="url(#clipPath64)" />
    <path
       id="path65"
       d="m 0,0 -2.932,2.681 16.487,18.022 2.932,-2.681 z"
       style="fill:#d6b3ad;fill-opacity:1;fill-rule:nonzero;stroke:none"
       transform="matrix(1.3333333,0,0,-1.3333333,338.50053,527.3864)"
       clip-path="url(#clipPath66)" />
    <path
       id="path67"
       d="M 0,0 -2.914,2.705 18.533,25.83 21.447,23.125 Z"
       style="fill:#d6b3ad;fill-opacity:1;fill-rule:nonzero;stroke:none"
       transform="matrix(1.3333333,0,0,-1.3333333,506.80307,327.52213)"
       clip-path="url(#clipPath68)" />
    <path
       id="path69"
       d="m 0,0 c -3.594,-0.285 -10.079,3.918 -12.185,7.137 -0.581,0.889 -0.736,1.882 -0.482,3.034 0.777,3.487 5.201,7.335 7.803,8.94 2.491,1.54 5.403,2.877 9.159,4.207 1.503,0.532 2.48,0.743 3.88,0.481 0.019,-0.003 0.044,-0.008 0.063,-0.012 1.847,-0.365 4.149,-2.146 5.75,-3.717 -0.171,0.065 -0.338,0.122 -0.498,0.178 -1.473,0.538 -3.124,1.174 -4.31,1.245 C 6.655,21.736 2.22,19.687 2.033,19.598 0.052,18.683 -2.846,17.212 -5.092,15.055 -6.258,13.936 -7.71,12.096 -8.001,9.699 -8.171,8.268 -7.891,6.747 -7.21,5.413 -6.578,4.161 -5.655,3.175 -4.552,2.549 -3.331,1.856 -1.799,1.563 0.008,1.69 2.525,1.862 5.034,2.796 7.07,4.323 8.944,5.717 11.422,7.889 11.282,10.649 11.205,12.165 10.176,13.603 8.6,14.396 6.165,15.612 2.639,15.445 0.867,13.121 -0.95,10.734 -0.251,8.931 0.136,8.262 0.296,7.996 0.848,7.126 1.627,7.229 3.047,7.423 2.884,8.968 2.806,9.71 2.777,9.938 2.743,10.286 2.761,10.381 2.95,10.903 4.045,11.95 5.266,12.102 6.244,12.214 7.03,11.753 7.632,10.866 7.715,10.575 7.654,9.479 7.531,9.24 6.209,7.467 4.318,6.123 2.22,5.453 0.734,4.977 -0.619,4.895 -1.835,5.261 c -1.292,0.386 -2.337,1.355 -2.659,2.47 -0.579,2.023 1.008,4.133 1.508,4.734 1.42,1.702 3.582,2.674 5.821,3.678 2.233,0.999 4.343,1.942 6.993,1.663 C 12.126,17.579 15.997,15.524 16.295,14 16.613,12.406 16.133,10.575 14.864,8.556 11.849,3.757 6.154,0.475 0,0 m -4.273,23.393 -0.97,-0.454 c -6.198,-2.887 -9.997,-7.002 -11.289,-12.228 -1.751,1.474 -4.352,4.006 -6.343,5.946 -1.22,1.192 -2.251,2.198 -2.813,2.696 l -0.334,0.286 c -8.126,7.105 -10.748,10.894 -11.522,12.822 -1.107,2.771 -0.964,6.029 0.377,8.709 1.418,2.849 3.751,5.12 6.057,7.148 1.468,1.292 4.144,2.628 6.221,3.111 0.822,0.188 1.564,0.193 2.273,0.06 1.559,-0.291 2.946,-1.252 4.559,-2.373 0.407,-0.28 0.819,-0.567 1.244,-0.849 7.017,-4.656 9.891,-7.377 15.625,-12.797 L 1.135,33.272 C 2.567,31.922 3.818,30.83 4.838,29.937 5.864,29.044 6.919,28.125 7.328,27.616 7.163,27.575 6.911,27.524 6.529,27.477 3.69,27.129 -0.909,24.974 -4.273,23.393 m 23.705,-4.892 c -1.301,4.125 -4.729,7.211 -7.479,9.686 -2.532,2.277 -5.032,4.613 -7.539,6.95 -4.944,4.623 -10.063,9.403 -15.395,13.672 -5.964,4.78 -11.487,8.449 -18.694,4.899 -5.719,-2.812 -10.51,-8.584 -11.931,-14.363 -0.988,-4.019 -0.313,-7.771 1.949,-10.856 2.408,-3.289 6.473,-6.967 10.057,-10.207 1.217,-1.1 2.378,-2.15 3.38,-3.104 1.649,-1.561 3.351,-3.289 5.088,-5.05 6.299,-6.39 12.785,-12.973 18.834,-14.104 0.849,-0.159 1.692,-0.212 2.525,-0.138 5.471,0.472 8.91,2.766 12.239,5.284 2.85,2.162 5.126,5.073 6.39,8.187 1.281,3.131 1.479,6.293 0.576,9.144"
       style="fill:#d6b3ad;fill-opacity:1;fill-rule:nonzero;stroke:none"
       transform="matrix(1.3333333,0,0,-1.3333333,564.3024,314.16707)"
       clip-path="url(#clipPath70)" />
    <path
       id="path71"
       d="m 0,0 c -1.119,2.105 -1.465,3.966 -1.032,5.533 0.409,1.499 4.419,3.267 6.728,3.326 2.662,0.085 4.698,-1.008 6.852,-2.167 2.161,-1.164 4.247,-2.291 5.539,-4.091 0.455,-0.636 1.885,-2.855 1.16,-4.831 -0.402,-1.089 -1.515,-1.98 -2.831,-2.271 -1.24,-0.276 -2.583,-0.096 -4.031,0.487 -2.044,0.82 -3.832,2.299 -5.021,4.162 C 7.258,0.396 7.277,1.494 7.381,1.778 8.046,2.618 8.863,3.022 9.83,2.839 11.038,2.598 12.053,1.474 12.204,0.94 12.215,0.844 12.156,0.5 12.11,0.274 c -0.131,-0.735 -0.406,-2.264 0.995,-2.56 0.771,-0.16 1.384,0.668 1.563,0.922 0.434,0.639 1.262,2.386 -0.376,4.9 C 12.693,5.982 9.189,6.405 6.672,5.369 5.043,4.693 3.912,3.333 3.725,1.827 c -0.34,-2.743 1.974,-5.09 3.741,-6.616 1.92,-1.671 4.354,-2.785 6.852,-3.139 1.793,-0.258 3.342,-0.078 4.61,0.526 1.145,0.544 2.138,1.46 2.859,2.663 0.777,1.281 1.166,2.777 1.101,4.216 C 22.772,1.89 21.457,3.83 20.375,5.031 18.292,7.346 15.509,9.023 13.6,10.079 13.42,10.182 9.145,12.548 6.61,12.49 5.421,12.505 3.728,11.99 2.22,11.561 2.056,11.516 1.886,11.471 1.71,11.419 c 1.711,1.451 4.137,3.06 6.005,3.29 0.019,0.002 0.045,0.005 0.064,0.007 1.416,0.16 2.375,-0.122 3.835,-0.761 3.65,-1.6 6.457,-3.145 8.829,-4.863 2.478,-1.789 6.611,-5.948 7.132,-9.482 0.171,-1.168 -0.056,-2.147 -0.701,-2.991 C 24.54,-6.44 17.767,-10.16 14.203,-9.614 8.1,-8.693 2.659,-5.006 0,0 m 9.689,18.265 c -0.378,0.074 -0.626,0.143 -0.788,0.196 0.446,0.479 1.564,1.318 2.652,2.135 1.082,0.815 2.41,1.814 3.937,3.057 l 2.476,2.023 c 6.112,4.988 9.177,7.493 16.513,11.627 0.445,0.251 0.877,0.507 1.303,0.756 1.69,1.001 3.144,1.859 4.719,2.036 0.718,0.081 1.457,0.022 2.263,-0.225 2.037,-0.633 4.608,-2.159 5.978,-3.555 2.153,-2.19 4.315,-4.625 5.522,-7.57 1.142,-2.77 1.049,-6.03 -0.257,-8.713 C 53.095,18.165 50.204,14.578 41.583,8.081 L 41.23,7.821 C 40.633,7.364 39.531,6.436 38.228,5.336 36.101,3.547 33.323,1.21 31.47,-0.133 30.561,5.173 27.072,9.554 21.1,12.883 l -0.935,0.523 c -3.24,1.821 -7.671,4.306 -10.476,4.859 M -3.923,1.089 c 1.034,-3.198 3.092,-6.267 5.778,-8.63 3.137,-2.754 6.4,-5.292 11.822,-6.16 0.826,-0.134 1.67,-0.143 2.528,-0.046 6.117,0.689 13.064,6.783 19.811,12.699 1.859,1.629 3.683,3.229 5.441,4.666 1.068,0.879 2.302,1.842 3.596,2.85 3.81,2.971 8.132,6.344 10.772,9.45 2.481,2.912 3.427,6.605 2.734,10.684 C 57.561,32.47 53.203,38.575 47.703,41.795 40.773,45.859 34.998,42.602 28.702,38.267 23.074,34.397 17.622,30.002 12.354,25.751 9.684,23.602 7.021,21.454 4.331,19.367 1.408,17.099 -2.236,14.269 -3.833,10.25 -4.94,7.473 -4.973,4.304 -3.923,1.089"
       style="fill:#d6b3ad;fill-opacity:1;fill-rule:nonzero;stroke:none"
       transform="matrix(1.3333333,0,0,-1.3333333,258.5688,298.28533)"
       clip-path="url(#clipPath72)" />
    <path
       id="path73"
       d="m 0,0 c 0.341,-0.33 0.644,-0.686 0.863,-1.074 0.303,-0.543 0.366,-1.241 0.27,-1.609 -0.956,-1.347 -30.941,-32.682 -33.53,-35.162 -0.179,-0.172 -0.506,-0.522 -1.027,-1.084 -0.197,-0.209 -0.409,-0.434 -0.625,-0.662 -0.781,1.195 -1.989,2.125 -3.644,2.802 l -0.306,0.128 c -0.682,0.279 -1.326,0.541 -1.93,0.75 0.143,0.147 0.301,0.303 0.464,0.472 l 0.701,0.728 c 4.041,4.195 32.872,33.841 34.818,35.265 l 0.326,0.248 c 0.392,0.298 0.727,0.555 0.963,0.611 0.096,0.023 0.182,0.025 0.281,0.008 0.475,-0.086 1.163,-0.389 1.5,-0.661 C -0.577,0.518 -0.275,0.267 0,0 m -32.098,-42.37 0.006,0.007 0.042,0.049 c 0.5,0.553 0.984,1.096 1.451,1.583 l 1.007,1.013 c 0.216,0.215 32.489,33.358 33.32,34.614 0.846,1.272 1.06,2.824 0.599,4.381 C 3.692,1.41 1.883,3.384 -0.262,4.325 -3.42,5.703 -5.726,3.67 -7.251,2.324 -8.239,1.456 -25.516,-16.259 -40.903,-32.089 l -1.544,-1.591 c -0.639,-0.653 -1.282,-1.309 -1.947,-1.962 -0.87,-0.866 -2.069,-2.051 -2.488,-3.652 -0.312,-1.165 -0.182,-2.419 0.378,-3.624 0.359,-0.773 0.881,-1.498 1.525,-2.123 0.303,-0.294 0.633,-0.566 0.988,-0.807 1.172,-0.805 2.49,-1.598 4.523,-1.678 0.36,-0.016 0.726,0.023 1.082,0.109 2.224,0.522 4.289,2.825 6.288,5.047"
       style="fill:#d6b3ad;fill-opacity:1;fill-rule:nonzero;stroke:none"
       transform="matrix(1.3333333,0,0,-1.3333333,335.32733,527.31147)"
       clip-path="url(#clipPath74)" />
    <path
       id="path75"
       d="m 0,0 c 0.364,0.305 0.749,0.571 1.157,0.748 0.572,0.246 1.272,0.237 1.628,0.103 1.242,-1.089 29.328,-34.137 31.529,-36.967 0.153,-0.196 0.467,-0.557 0.973,-1.133 0.187,-0.218 0.389,-0.452 0.594,-0.689 -1.269,-0.655 -2.319,-1.761 -3.162,-3.337 l -0.159,-0.292 c -0.348,-0.649 -0.674,-1.263 -0.944,-1.842 -0.132,0.157 -0.271,0.33 -0.422,0.51 l -0.652,0.772 C 26.785,-37.677 0.26,-5.95 -0.956,-3.868 l -0.214,0.349 c -0.256,0.422 -0.478,0.781 -0.509,1.022 -0.013,0.097 -0.005,0.183 0.022,0.279 0.133,0.464 0.506,1.117 0.811,1.424 C -0.574,-0.521 -0.294,-0.246 0,0 m 38.845,-36.284 -0.005,0.007 -0.046,0.047 c -0.498,0.554 -0.988,1.092 -1.425,1.606 l -0.903,1.106 C 36.273,-33.282 6.624,2.228 5.46,3.183 4.282,4.156 2.761,4.528 1.164,4.23 -1.023,3.817 -3.173,2.221 -4.329,0.184 c -1.695,-2.999 0.09,-5.502 1.272,-7.158 0.762,-1.072 16.607,-20.078 30.771,-37.012 l 1.423,-1.698 c 0.584,-0.704 1.171,-1.411 1.752,-2.139 0.772,-0.955 1.827,-2.269 3.377,-2.85 1.127,-0.43 2.388,-0.43 3.644,0.003 0.806,0.278 1.581,0.722 2.268,1.298 0.324,0.272 0.629,0.572 0.905,0.9 0.92,1.084 1.845,2.313 2.134,4.327 0.053,0.357 0.051,0.725 0.003,1.087 -0.291,2.267 -2.37,4.558 -4.375,6.774"
       style="fill:#d6b3ad;fill-opacity:1;fill-rule:nonzero;stroke:none"
       transform="matrix(1.3333333,0,0,-1.3333333,496.46627,535.4652)"
       clip-path="url(#clipPath76)" />
    <path
       id="path77"
       d="m 0,0 c -1.037,-6.104 -3.683,-14.73 -9.971,-17.986 -48.424,-23.813 -90.797,50.041 -96.43,59.163 -10.528,17.047 -8.866,23.212 12.345,11.413 0,0 23.112,-14.898 46.356,-13.689 -1.949,2.604 -4.403,5.209 -5.37,7.814 -9.101,-0.192 -16.105,1.179 -35.173,9.266 l -4.549,1.937 c -15.326,6.557 -22.989,9.891 -27.078,5.401 -3.533,-3.907 -0.934,-10.544 10.686,-27.336 1.832,-2.643 3.697,-5.393 5.598,-8.202 20.059,-29.645 47.16,-69.706 90.386,-52.556 2.233,0.886 4.52,1.93 6.837,3.132 8.255,4.273 12.944,9.733 14.23,19.272 C 5.132,-2.371 2.736,0 0,0"
       style="fill:#d6b3ad;fill-opacity:1;fill-rule:nonzero;stroke:none"
       transform="matrix(1.3333333,0,0,-1.3333333,412.8308,468.0412)"
       clip-path="url(#clipPath78)" />
    <path
       id="path79"
       d="m 0,0 c -18.593,-1.115 -31.754,-0.296 -47.956,7.231 -1.278,0.594 -2.737,1.404 -4.3,2.348 -2.099,10.313 -9.589,20.576 -10.71,19.809 -1.134,-0.767 3.565,-10.746 4.34,-16.251 -13.275,6.825 -26.078,19.648 -26.968,18.61 -0.883,-1.044 10.198,-18.843 35.55,-29.002 0.082,-0.032 0.155,-0.065 0.235,-0.101 -3.615,-2.55 -11.681,-2.58 -11.681,-3.946 0,-1.366 7.834,-3.651 18.317,1.198 10.478,-3.916 20.092,-5.258 31.173,-5.258 3.886,0 7.953,0.161 12.296,0.425 C 1.663,-4.859 2.7,-3.686 2.617,-2.32 2.539,-0.96 1.592,0.258 0,0"
       style="fill:#d6b3ad;fill-opacity:1;fill-rule:nonzero;stroke:none"
       transform="matrix(1.3333333,0,0,-1.3333333,416.0828,468.1184)"
       clip-path="url(#clipPath80)" />
    <path
       id="path81"
       d="m 0,0 c 0.054,-6.191 2.389,-16.733 8.079,-20.948 44.023,-31.208 95.941,36.845 102.952,44.954 13.105,15.157 16.295,22.253 -6.522,13.976 0,0 -28.475,-12.047 -51.232,-7.159 2.338,2.262 5.176,4.443 6.545,6.861 8.954,-1.636 16.087,-1.396 36.199,3.558 l 4.798,1.189 c 16.173,4.036 24.27,6.11 27.592,1.027 2.868,-4.419 -0.754,-10.558 -14.896,-25.29 -2.228,-2.317 -4.507,-4.736 -6.83,-7.207 C 82.169,-15.119 49.044,-50.362 9.094,-26.558 7.03,-25.329 4.938,-23.934 2.842,-22.379 -4.63,-16.848 -8.391,-10.712 -8.144,-1.09 -5.443,-1.525 -2.701,0.435 0,0"
       style="fill:#d6b3ad;fill-opacity:1;fill-rule:nonzero;stroke:none"
       transform="matrix(1.3333333,0,0,-1.3333333,420.1316,469.3716)"
       clip-path="url(#clipPath82)" />
    <path
       id="path83"
       d="m 0,0 c -0.702,1.167 -20.526,-12.76 -29.477,-13.463 4.992,5.672 7.764,13.798 6.772,14.739 -0.986,0.928 -4.342,-8.368 -13.727,-17.858 -1.692,-0.683 -3.26,-1.249 -4.615,-1.631 -17.189,-4.866 -30.31,-3.583 -48.498,0.483 -1.353,0.29 -2.661,-0.554 -2.958,-1.875 -0.296,-1.334 0.542,-2.662 1.876,-2.958 10.363,-2.314 19.154,-3.758 27.97,-3.758 5.122,0 10.269,0.528 15.714,1.619 8.016,-6.148 17.703,-5.312 17.896,-4.094 0.219,1.347 -9.258,2.449 -10.901,5.754 0.083,0.023 0.157,0.044 0.241,0.06 C -19.904,-19.359 0.709,-1.167 0,0"
       style="fill:#d6b3ad;fill-opacity:1;fill-rule:nonzero;stroke:none"
       transform="matrix(1.3333333,0,0,-1.3333333,536.3004,445.28653)"
       clip-path="url(#clipPath84)" />
    <path
       id="path85"
       d="m 0,0 c -5.144,10.895 -11.64,12.725 -18.983,16.829 -3.391,1.894 -9.091,4.786 -14.872,7.976 6.759,-0.238 14.676,-1.587 18.747,-1.689 8.461,-0.213 22.405,2.447 33.841,7.264 1.516,0.639 2.94,1.396 4.463,2.025 0.247,0.102 0.785,-0.181 1.188,-0.286 C 24.523,18.678 12.529,-8.778 1.392,-19.743 2.258,-17.227 4.296,-9.1 0,0 m -34.093,41.038 c 6.344,-2.51 14.238,-2.345 18.726,-0.91 4.576,1.464 7.495,4.556 11.369,7.691 4.252,-5.679 6.84,-11.208 3.342,-15.238 -2.743,-3.16 -10.204,-4.54 -16.917,-2.853 -6.665,1.675 -13.596,5.644 -16.52,11.31 m -0.202,-8.973 c -0.236,0.497 -5.904,-0.395 -12.901,2.778 -5.37,2.436 -8.697,7.546 -10.264,10.378 -1.477,2.669 -2.576,5.539 -2.226,8.298 0.338,2.67 2.032,5.054 4.346,6.881 2.315,1.826 5.224,3.133 8.264,4.178 6.19,2.128 13.33,3.222 20.272,1.753 5.671,-1.201 10.901,-4.154 14.389,-8.01 1.878,-2.076 2.458,-3.923 1.834,-6.288 -0.583,-2.206 -2.225,-4.17 -4.458,-5.471 -0.688,-0.4 -1.439,-0.761 -2.239,-1.078 -4.184,-1.662 -9.688,-2.14 -14.285,-0.955 -2.953,0.761 -8.427,3.078 -9.027,2.731 -1.277,-0.601 -0.581,-7.543 6.295,-15.195 m 22.863,-59.423 c -5.399,-4.011 -10.379,-6.973 -14.185,-9.096 -0.667,9.416 -4.989,20.44 -11.557,27.321 -6.694,7.013 -14.14,13.581 -21.791,19.972 -6.561,5.481 -14.943,10.25 -20.408,16.449 -2.257,2.56 -13.874,14.94 -15.017,16.873 -1.568,2.649 -1.791,5.68 -2.144,8.466 -1.483,11.698 6.293,22.602 17.797,29.026 27.539,15.377 71.343,13.125 94.154,-12.176 1.157,-1.283 2.238,-2.605 3.237,-3.96 3.823,-5.191 6.495,-10.993 6.417,-16.716 C 24.97,41.405 19.832,35.921 12.254,32.429 10.436,31.591 8.264,31.024 7.05,31.966 4.693,40.881 3.638,49.474 -3.157,57.543 -8.545,63.94 -16.726,69.179 -25.926,71.084 -50.052,76.08 -77.534,58.529 -61.833,38.771 c 5.274,-6.637 12.988,-11.762 21.024,-16.239 8.267,-4.606 17.557,-8.266 25.143,-13.662 5.73,-4.075 10.47,-9.344 11.852,-15.119 2.323,-9.715 -4.423,-18.736 -7.618,-21.109 m -33.584,-13.631 c -5.832,0 -11.648,2.236 -16.522,5.185 -14.067,8.51 -23.368,20.79 -29.223,33.507 -5.601,12.165 -10.107,26.622 -9.896,39.2 0.028,1.65 0.485,3.119 0.777,4.71 -0.326,-1.819 16.778,-18.556 21.604,-22.707 16.666,-14.337 40.563,-27.162 45.954,-46.883 0.118,-0.434 0.661,-4.493 0.196,-5.986 -1.357,-4.363 -7.057,-7.025 -12.89,-7.026 M 20.807,71.82 C 16.03,78.329 8.916,83.504 0.691,87.386 c -13.373,6.313 -29.683,9.209 -43.652,8.862 -25.074,-0.622 -48.63,-11.718 -58.973,-29.108 -6.739,-11.331 -6.485,-24.435 -4.279,-37.269 2.772,-16.121 6.376,-34.594 17.582,-49.208 8.36,-10.903 20.638,-19.467 34.522,-25.796 2.46,-1.122 5.044,-2.187 7.769,-2.484 3.744,-0.408 7.273,0.675 10.57,1.804 12.091,4.141 23.673,9.217 33.453,15.996 20.955,14.523 27.738,36.504 32.769,58.116 3.387,14.547 0.398,29.836 -9.645,43.521"
       style="fill:#d6b3ad;fill-opacity:1;fill-rule:nonzero;stroke:none"
       transform="matrix(1.3333333,0,0,-1.3333333,475.7384,413.29947)"
       clip-path="url(#clipPath86)" />
    <path
       id="path87"
       d="m 0,0 c -12.157,-4.321 -24.48,-4.028 -36.71,-1.168 -7.352,1.719 -14.687,4.399 -21.999,7.719 -3.081,1.398 -6.015,1.214 -9.036,2.139 -1.978,0.605 -4.073,3.733 -4.343,11.457 -0.189,5.444 -0.529,51.512 -0.543,53.527 -0.146,20.65 3.38,19.08 8.525,21.699 6.503,3.309 13.058,5.584 19.637,6.821 17.555,3.308 34.707,-4.912 52.173,-8.434 C 13.322,80.916 12.019,54.973 12.187,31.182 12.226,25.736 12.108,20.906 11.844,16.676 10.934,9.742 9.235,5.132 6.744,2.893 4.503,1.761 2.254,0.801 0,0"
       style="fill:#a95d2e;fill-opacity:1;fill-rule:nonzero;stroke:none"
       transform="matrix(1.3333333,0,0,-1.3333333,138.21307,494.77453)"
       clip-path="url(#clipPath88)" />
    <path
       id="path89"
       d="m 0,0 0.117,5.911 c 0.085,4.268 -0.279,7.024 -0.194,11.292 l 0.03,1.522 C 4.737,19.019 5.267,18.68 5.254,18.022 5.25,17.814 5.094,17.369 4.882,17.284 L 1.629,17.348 C 1.419,17.353 1.416,17.203 1.414,17.113 1.351,13.95 1.605,11.615 1.719,8.356 2.164,8.229 4.674,8.269 5.182,8.259 6.194,8.209 6.847,6.464 5.475,6.491 L 1.683,6.567 1.605,-0.421 C 2.318,-0.614 6.122,0.058 6.096,-1.256 6.089,-1.614 5.903,-1.968 5.515,-2.021 l -0.15,0.003 C 4.26,-2.085 0.014,-2.33 0,-1.464 Z"
       style="fill:#f0ebf2;fill-opacity:1;fill-rule:nonzero;stroke:none"
       transform="matrix(1.3333333,0,0,-1.3333333,66.633333,409.76547)"
       clip-path="url(#clipPath90)" />
    <path
       id="path91"
       d="M 0,0 C 0.184,0.236 1.146,0.575 1.381,0.331 1.498,0.27 1.909,-0.127 1.938,-0.247 L 4.11,-18.686 c 1.093,5.443 2.274,12.317 3.338,17.762 0.02,1.015 0.441,1.157 0.978,1.146 C 8.874,0.213 9.172,0.147 9.37,-0.394 7.988,-5.295 7.141,-10.414 6.205,-15.413 L 4.889,-23.062 C 4.668,-23.594 4.37,-23.62 3.952,-23.611 3.623,-23.605 3.296,-23.598 3.183,-23.207 1.749,-15.712 1.283,-7.641 0,0"
       style="fill:#f0ebf2;fill-opacity:1;fill-rule:nonzero;stroke:none"
       transform="matrix(1.3333333,0,0,-1.3333333,79.2968,383.21973)"
       clip-path="url(#clipPath92)" />
    <path
       id="path93"
       d="M 0,0 C 0.011,0.537 0.529,1.035 1.065,1.024 L 5.784,0.93 C 5.963,0.927 6.549,0.468 6.577,0.317 6.605,0.256 6.605,0.227 6.603,0.167 6.592,-0.428 5.781,-0.683 5.302,-0.674 l -3.582,0.071 -0.046,-9.913 3.233,0.415 0.15,-0.003 c 1.402,-0.028 0.838,-1.391 -0.36,-1.546 l -2.993,-0.389 -0.244,-7.79 c 0.268,-0.034 1.281,-0.055 1.55,-0.06 2,-0.04 3.476,0.618 3.539,-0.757 0.04,-1.017 -6.645,-0.766 -6.634,-0.198 z"
       style="fill:#f0ebf2;fill-opacity:1;fill-rule:nonzero;stroke:none"
       transform="matrix(1.3333333,0,0,-1.3333333,95.302133,386.9212)"
       clip-path="url(#clipPath94)" />
    <path
       id="path95"
       d="M 0,0 C 2.119,-0.042 3.004,3.853 3.031,5.224 3.059,6.629 2.437,8.432 0.736,8.465 0.287,8.474 -0.016,8.212 -0.026,7.704 -0.049,5.106 -0.329,2.932 -0.382,0.276 -0.387,0.037 -0.179,0.004 0,0 m -2.558,-11.507 c 0.133,6.717 0.507,13.488 0.819,20.201 0.088,1.372 0.596,1.362 1.788,1.338 l 0.3,-0.006 C 3.094,9.972 4.821,8.145 4.769,5.519 L 4.763,5.19 C 4.719,3.011 4.101,0.485 2.103,-0.818 2.25,-0.971 2.921,-1.79 3.035,-2.003 4.345,-3.79 3.931,-8.052 4.04,-10.115 4.037,-10.294 4.189,-11.672 4.185,-11.851 L 4.18,-12.09 c -0.01,-0.506 -0.49,-0.557 -0.877,-0.549 l -0.029,10e-4 c -0.329,0.006 -0.718,0.014 -0.828,0.435 -0.01,0.985 -0.19,5.558 -0.228,6.573 -0.092,1.465 -0.35,3.471 -2.171,3.507 l -0.476,0.01 c -0.066,-0.267 -0.21,-1.46 -0.216,-1.728 -0.034,-0.268 -0.315,-6.892 -0.395,-9.428 -0.011,-0.568 0.066,-1.196 -0.681,-1.181 -0.327,0.006 -0.683,0.132 -0.887,0.436 z"
       style="fill:#f0ebf2;fill-opacity:1;fill-rule:nonzero;stroke:none"
       transform="matrix(1.3333333,0,0,-1.3333333,111.49307,397.35547)"
       clip-path="url(#clipPath96)" />
    <path
       id="path97"
       d="m 0,0 c 0.134,2.238 0.645,9.962 0.669,11.157 l -2.4,6.945 c -0.116,0.271 -0.907,2.469 -0.991,2.739 -0.143,0.33 -0.201,0.481 -0.196,0.72 0.038,0.328 0.339,0.501 0.726,0.494 0.508,-0.01 1.013,-0.17 1.242,-0.652 0.874,-2.676 1.469,-5.734 2.553,-8.293 0.304,0.231 3.302,6.832 3.213,6.863 0.282,0.682 0.303,1.726 1.348,1.706 C 6.64,21.64 7.057,21.571 7.048,21.095 L 7.043,20.885 C 5.753,17.537 3.45,14.387 2.488,11.002 L 1.725,-0.361 C 1.684,-0.839 1.175,-0.919 0.699,-0.88 L 0.638,-0.879 C 0.371,-0.842 0.042,-0.807 -0.04,-0.447 -0.038,-0.326 -0.004,-0.208 0,0"
       style="fill:#f0ebf2;fill-opacity:1;fill-rule:nonzero;stroke:none"
       transform="matrix(1.3333333,0,0,-1.3333333,123.89533,416.1592)"
       clip-path="url(#clipPath98)" />
    <path
       id="path99"
       d="m 0,0 c 1.105,-0.183 0.892,-1.644 2.086,-1.826 1.94,-0.333 2.39,1.04 2.664,2.651 0.544,3.373 -1.093,5.914 -2.88,8.726 -0.832,1.315 -1.279,2.45 -1.007,4.121 0.423,2.358 1.561,3.969 4.04,3.964 C 5.112,17.635 5.322,17.635 5.559,17.603 6.367,17.512 6.932,17.332 6.783,16.497 6.509,15.034 3.35,17.518 2.655,13.34 2.322,11.43 3.097,10.651 4.109,8.917 5.685,6.169 7.054,3.716 6.51,0.492 6.087,-1.955 5.068,-3.385 2.649,-3.38 c -0.237,10e-4 -0.477,10e-4 -0.716,0.031 -1.044,0.181 -2.864,1.201 -2.861,2.425 0,0.06 0.031,0.149 0.031,0.208 C -0.867,-0.358 -0.418,0.001 0,0"
       style="fill:#f0ebf2;fill-opacity:1;fill-rule:nonzero;stroke:none"
       transform="matrix(1.3333333,0,0,-1.3333333,52.827867,457.12013)"
       clip-path="url(#clipPath100)" />
    <path
       id="path101"
       d="m 0,0 c -0.208,0 -0.447,0.03 -0.716,0.062 -3.671,0.455 -3.921,9.531 -4.199,19.984 l -0.055,1.461 v 0.15 c 0.002,0.658 1.584,0.623 1.791,0.028 C -2.673,20.818 -4.027,1.382 0.063,1.374 1.108,1.372 1.441,3.072 1.471,3.879 1.569,7.58 1.526,15.911 1.39,21.675 1.539,22.151 1.72,22.211 2.257,22.21 2.733,22.209 3.152,22.119 3.18,21.611 3.319,16.355 3.068,11.041 3.207,5.547 3.141,2.949 3.106,-0.006 0,0"
       style="fill:#f0ebf2;fill-opacity:1;fill-rule:nonzero;stroke:none"
       transform="matrix(1.3333333,0,0,-1.3333333,72.557467,460.46667)"
       clip-path="url(#clipPath102)" />
    <path
       id="path103"
       d="M 0,0 C -0.056,1.195 1.588,1.908 2.211,0.174 L 8.268,-16.35 c 0.031,1.314 0.286,8.659 0.471,11.584 0.093,1.792 -0.022,3.613 0.369,5.284 10e-4,0.329 0.33,0.328 0.777,0.327 0.716,-0.03 0.777,-0.062 0.746,-0.717 -0.096,-3.106 -0.552,-6.211 -0.677,-9.316 -0.064,-1.73 -0.379,-10.001 -0.382,-11.733 -0.21,-0.627 -1.135,-0.267 -1.374,0.242 -0.296,0.627 -0.534,1.225 -6.829,18.168 L 1.122,-20.843 c -0.001,-0.896 -1.525,-0.803 -1.524,-0.176 z"
       style="fill:#f0ebf2;fill-opacity:1;fill-rule:nonzero;stroke:none"
       transform="matrix(1.3333333,0,0,-1.3333333,81.322667,433.61267)"
       clip-path="url(#clipPath104)" />
    <path
       id="path105"
       d="m 0,0 c -0.006,-2.656 -0.075,-7.196 -0.021,-10.242 3.702,0.561 4.73,6.471 4.737,9.755 C 4.721,1.872 4.59,11.098 0.441,11.107 H 0.231 C 0.169,9.436 0.003,1.642 0,0 m -1.715,-5.758 c 0.037,2.566 0.062,14.51 0.036,17.048 v 0.119 c 0.001,0.657 0.242,1.344 0.869,1.611 h 0.269 C 0.654,13.017 1.906,12.746 2.802,11.938 5.991,9.065 6.576,3.929 6.388,-0.132 6.139,-5.895 4.783,-11.386 -0.146,-11.973 c -0.955,-0.117 -1.582,0.034 -1.579,1.138 z"
       style="fill:#f0ebf2;fill-opacity:1;fill-rule:nonzero;stroke:none"
       transform="matrix(1.3333333,0,0,-1.3333333,101.74987,447.19107)"
       clip-path="url(#clipPath106)" />
    <path
       id="path107"
       d="M 0,0 3.732,-0.097 1.761,13.852 Z m -0.451,-1.85 -0.18,-0.178 -0.515,-3.373 c -0.061,-0.448 -0.032,-1.732 -0.898,-1.731 -0.39,10e-4 -0.657,0.778 -0.656,1.076 3.151,21.642 3.18,21.7 3.18,21.7 0.151,0.568 0.361,1.405 1.108,1.403 0.329,0 0.747,-0.151 0.926,-0.451 L 2.75,15.969 C 4.467,9.127 5.26,2.11 6.051,-4.938 L 6.226,-6.88 C 6.226,-6.909 6.197,-6.909 6.197,-6.94 5.986,-7.506 5.867,-7.745 5.298,-7.744 H 5.209 c -0.179,0 -0.477,10e-4 -0.508,0.211 l -0.733,5.674 z"
       style="fill:#f0ebf2;fill-opacity:1;fill-rule:nonzero;stroke:none"
       transform="matrix(1.3333333,0,0,-1.3333333,116.0228,451.8392)"
       clip-path="url(#clipPath108)" />
    <path
       id="path109"
       d="m 0,0 c 0.094,2.24 0.468,9.972 0.471,11.167 l -2.523,6.902 c -0.121,0.268 -0.951,2.452 -1.04,2.72 -0.149,0.327 -0.209,0.477 -0.209,0.717 0.032,0.329 0.33,0.507 0.718,0.506 0.508,-0.001 1.015,-0.152 1.254,-0.629 0.92,-2.66 1.57,-5.707 2.699,-8.247 0.3,0.237 3.18,6.89 3.091,6.919 0.27,0.687 0.272,1.732 1.317,1.73 0.477,-0.031 0.895,-0.092 0.894,-0.568 L 6.671,21.006 C 5.44,17.637 3.194,14.446 2.292,11.044 L 1.731,-0.33 C 1.699,-0.809 1.191,-0.898 0.714,-0.867 H 0.654 C 0.385,-0.836 0.057,-0.806 -0.032,-0.448 -0.032,-0.327 0,-0.208 0,0"
       style="fill:#f0ebf2;fill-opacity:1;fill-rule:nonzero;stroke:none"
       transform="matrix(1.3333333,0,0,-1.3333333,129.81133,462.6172)"
       clip-path="url(#clipPath110)" />
    <path
       id="path111"
       d="m 0,0 c -2.491,2.239 -4.189,6.849 -5.1,13.783 -0.264,4.23 -0.381,9.06 -0.343,14.506 0.168,23.791 -1.135,49.734 4.483,62.578 17.466,3.522 34.618,11.742 52.173,8.434 6.579,-1.237 13.135,-3.512 19.637,-6.821 5.145,-2.619 8.671,-1.049 8.526,-21.699 C 79.361,68.766 79.022,22.698 78.832,17.254 78.562,9.53 76.467,6.403 74.489,5.797 71.468,4.872 68.534,5.057 65.453,3.658 58.141,0.338 50.806,-2.342 43.455,-4.061 31.224,-6.92 18.901,-7.214 6.744,-2.893 4.49,-2.092 2.241,-1.132 0,0"
       style="fill:#a95d2e;fill-opacity:1;fill-rule:nonzero;stroke:none"
       transform="matrix(1.3333333,0,0,-1.3333333,663.20667,490.91747)"
       clip-path="url(#clipPath112)" />
    <path
       id="path113"
       d="M 0,0 C -0.021,-0.216 -0.002,-1.419 0.008,-1.666 L 3.831,-0.952 0.254,12.621 C 0.207,10.739 0.014,1.911 0,0 m -1.172,14.319 c 0.069,2.84 1.944,2.176 2.554,0.105 0.896,-3.046 1.595,-5.824 5.62,-22 C 7.03,-8.252 6.126,-8.813 5.532,-7.851 L 4.198,-2.356 0.069,-3.142 c -0.188,-1.456 -0.292,-4.206 -0.299,-5.5 -0.032,-0.743 -1.364,-0.612 -1.354,-0.055 z"
       style="fill:#f0ebf2;fill-opacity:1;fill-rule:nonzero;stroke:none"
       transform="matrix(1.3333333,0,0,-1.3333333,672.4804,413.186)"
       clip-path="url(#clipPath114)" />
    <path
       id="path115"
       d="m 0,0 c -0.03,-0.001 -1.05,15.867 -1.136,17.96 -0.024,0.586 -0.586,5.278 -0.643,5.863 l -0.008,0.215 c -0.01,0.246 -0.014,0.339 0.194,0.562 0.091,0.036 0.458,0.081 0.581,0.086 0.553,0.023 0.799,0.063 1.011,-0.605 C 0.325,22.89 0.233,22.147 0.312,20.949 0.724,14.676 1.048,8.308 1.677,1.982 L 1.892,1.991 C 3.186,2.044 4.398,2.525 5.721,2.58 6.215,2.6 6.774,2.498 6.799,1.882 6.813,1.545 6.64,1.259 6.211,1.181 Z"
       style="fill:#f0ebf2;fill-opacity:1;fill-rule:nonzero;stroke:none"
       transform="matrix(1.3333333,0,0,-1.3333333,686.0624,423.81227)"
       clip-path="url(#clipPath116)" />
    <path
       id="path117"
       d="M 0,0 C 3.264,0.134 4.204,3.534 4.082,6.489 3.942,9.905 2.201,13.995 -1.831,13.83 -1.64,9.182 -1.113,4.61 -0.555,0.007 -0.369,-0.015 -0.185,-0.008 0,0 m -2.004,15.796 c 1.571,0.065 2.543,1.893 2.473,3.586 -0.072,1.755 -1.543,2.31 -3.143,1.475 z m 4.131,3.776 C 2.193,17.974 1.636,16.5 0.637,15.288 4.237,13.247 5.729,10.688 5.898,6.563 6.078,2.16 3.801,-1.693 -1.032,-1.891 -1.246,-1.9 -1.863,-1.895 -2.128,-1.474 -2.661,3.253 -2.854,7.961 -3.544,13.513 l -0.916,7.3 -0.027,0.646 c 1.909,2.361 6.459,1.901 6.614,-1.887"
       style="fill:#f0ebf2;fill-opacity:1;fill-rule:nonzero;stroke:none"
       transform="matrix(1.3333333,0,0,-1.3333333,701.12987,420.48027)"
       clip-path="url(#clipPath118)" />
    <path
       id="path119"
       d="m 0,0 c -0.023,0.554 0.479,1.099 1.033,1.121 l 4.865,0.2 C 6.082,1.328 6.715,0.892 6.753,0.739 6.786,0.678 6.787,0.648 6.79,0.586 6.815,-0.028 5.996,-0.341 5.502,-0.361 l -3.693,-0.152 0.574,-10.212 3.304,0.63 0.154,0.006 c 1.446,0.059 0.951,-1.38 -0.273,-1.615 l -3.059,-0.587 0.238,-8.038 c 0.278,-0.019 1.323,0.024 1.6,0.035 2.062,0.085 3.541,0.855 3.692,-0.558 0.105,-1.044 -6.795,-1.205 -6.819,-0.619 z"
       style="fill:#f0ebf2;fill-opacity:1;fill-rule:nonzero;stroke:none"
       transform="matrix(1.3333333,0,0,-1.3333333,710.07773,393.22747)"
       clip-path="url(#clipPath120)" />
    <path
       id="path121"
       d="M 0,0 C 2.185,0.09 2.852,4.156 2.794,5.57 2.734,7.018 1.981,8.836 0.227,8.764 -0.236,8.745 -0.532,8.456 -0.51,7.932 -0.37,5.255 -0.523,2.999 -0.41,0.26 -0.4,0.014 -0.185,-0.008 0,0 m -1.913,-12.01 c -0.284,6.924 -0.323,13.922 -0.423,20.854 0.004,1.419 0.528,1.44 1.758,1.491 l 0.309,0.012 C 2.561,10.463 4.454,8.69 4.565,5.982 L 4.579,5.643 C 4.671,3.396 4.193,0.757 2.217,-0.711 2.378,-0.859 3.12,-1.66 3.252,-1.872 c 1.46,-1.759 1.302,-6.174 1.543,-8.292 0.008,-0.184 0.25,-1.593 0.258,-1.778 l 0.01,-0.247 c 0.022,-0.521 -0.469,-0.603 -0.869,-0.62 l -0.03,-0.001 c -0.339,-0.014 -0.74,-0.03 -0.88,0.396 C 3.212,-11.4 2.74,-6.702 2.637,-5.659 2.451,-4.155 2.06,-2.106 0.182,-2.183 l -0.491,-0.02 c -0.051,-0.279 -0.125,-1.516 -0.114,-1.793 -0.019,-0.278 0.107,-7.117 0.184,-9.734 0.024,-0.586 0.143,-1.228 -0.627,-1.26 -0.337,-0.013 -0.711,0.094 -0.941,0.394 z"
       style="fill:#f0ebf2;fill-opacity:1;fill-rule:nonzero;stroke:none"
       transform="matrix(1.3333333,0,0,-1.3333333,727.40613,402.95787)"
       clip-path="url(#clipPath122)" />
    <path
       id="path123"
       d="m 0,0 c -1.905,-0.201 -2.767,-0.206 -2.85,0.315 0.019,1.05 0.004,1.419 3.213,1.366 L 2.949,1.787 C 3.626,1.782 4.769,1.737 4.806,0.844 4.817,0.567 4.491,0.246 4.214,0.235 L 1.628,0.129 3.016,-19.394 c 0.011,-0.277 -0.599,-0.454 -0.783,-0.462 -0.185,-0.007 -0.807,0.12 -0.818,0.397 z"
       style="fill:#f0ebf2;fill-opacity:1;fill-rule:nonzero;stroke:none"
       transform="matrix(1.3333333,0,0,-1.3333333,739.01333,391.4248)"
       clip-path="url(#clipPath124)" />
    <path
       id="path125"
       d="M 0,0 3.851,0.065 1.2,14.356 Z m -0.383,-1.927 -0.177,-0.192 -0.381,-3.5 c -0.043,-0.464 0.043,-1.786 -0.85,-1.823 -0.401,-0.016 -0.711,0.773 -0.723,1.08 2.286,22.448 2.314,22.509 2.314,22.509 0.131,0.593 0.31,1.464 1.08,1.496 0.339,0.013 0.777,-0.123 0.974,-0.425 L 2.125,16.582 C 4.2,9.606 5.329,2.409 6.457,-4.821 L 6.724,-6.815 C 6.725,-6.846 6.695,-6.847 6.696,-6.879 6.503,-7.472 6.391,-7.723 5.805,-7.747 L 5.713,-7.751 C 5.529,-7.759 5.222,-7.771 5.181,-7.556 L 4.173,-1.74 Z"
       style="fill:#f0ebf2;fill-opacity:1;fill-rule:nonzero;stroke:none"
       transform="matrix(1.3333333,0,0,-1.3333333,750.82867,410.05653)"
       clip-path="url(#clipPath126)" />
    <path
       id="path127"
       d="m 0,0 0.023,-1.325 c 0.34,0.006 0.978,0.449 1.04,0.513 C 3.097,0.856 3.555,2.804 3.511,5.299 3.477,7.21 3.168,10.809 0.456,10.761 0.272,10.758 0.119,10.755 0.031,10.507 Z m -1.67,-11.831 c -0.031,3.574 -0.203,20.21 -0.204,23.814 0.27,0.374 1.004,0.634 1.436,0.642 3.973,0.07 5.973,-3.222 6.038,-6.92 0.078,-4.404 -1.728,-6.9 -5.323,-9.09 L 0.093,-5.267 C 0.049,-6.284 0.01,-11 -0.003,-11.986 c -0.145,-0.527 -0.297,-0.682 -0.821,-0.691 -0.43,-0.008 -0.835,0.17 -0.844,0.724 z"
       style="fill:#f0ebf2;fill-opacity:1;fill-rule:nonzero;stroke:none"
       transform="matrix(1.3333333,0,0,-1.3333333,686.9048,455.01707)"
       clip-path="url(#clipPath128)" />
    <path
       id="path129"
       d="M 0,0 3.852,-0.024 1.534,14.324 Z m -0.428,-1.917 -0.181,-0.188 -0.463,-3.49 c -0.054,-0.463 0.002,-1.787 -0.892,-1.803 -0.401,-0.007 -0.692,0.789 -0.698,1.096 2.809,22.389 2.838,22.45 2.838,22.45 0.145,0.589 0.344,1.456 1.115,1.469 0.339,0.006 0.774,-0.141 0.964,-0.447 L 2.511,16.528 C 4.422,9.506 5.383,2.284 6.343,-4.97 l 0.22,-2 C 6.564,-7 6.533,-7.001 6.534,-7.033 6.327,-7.621 6.209,-7.87 5.623,-7.881 L 5.531,-7.882 C 5.346,-7.885 5.039,-7.891 5.003,-7.675 l -0.872,5.838 z"
       style="fill:#f0ebf2;fill-opacity:1;fill-rule:nonzero;stroke:none"
       transform="matrix(1.3333333,0,0,-1.3333333,700.17093,459.8776)"
       clip-path="url(#clipPath130)" />
    <path
       id="path131"
       d="M 0,0 C 2.186,0.039 2.948,4.088 2.923,5.503 2.897,6.953 2.186,8.788 0.432,8.757 -0.032,8.748 -0.334,8.466 -0.325,7.942 -0.248,5.263 -0.453,3.01 -0.404,0.27 -0.4,0.023 -0.185,-0.003 0,0 m -2.192,-11.962 c -0.123,6.929 0.001,13.925 0.063,20.858 0.037,1.418 0.561,1.428 1.792,1.449 l 0.309,0.006 C 2.804,10.401 4.656,8.584 4.703,5.874 L 4.709,5.535 C 4.749,3.287 4.209,0.659 2.2,-0.762 2.358,-0.914 3.081,-1.733 3.207,-1.947 4.626,-3.74 4.365,-8.15 4.557,-10.273 4.56,-10.458 4.77,-11.872 4.773,-12.056 l 0.005,-0.247 c 0.009,-0.522 -0.484,-0.593 -0.883,-0.6 l -0.03,-10e-4 c -0.34,-0.006 -0.741,-0.013 -0.871,0.417 -0.048,1.015 -0.411,5.723 -0.489,6.768 -0.151,1.507 -0.495,3.566 -2.374,3.532 l -0.492,-0.008 c -0.057,-0.278 -0.16,-1.513 -0.155,-1.79 -0.025,-0.278 -0.059,-7.118 -0.043,-9.736 0.011,-0.586 0.114,-1.231 -0.657,-1.244 -0.337,-0.006 -0.708,0.11 -0.93,0.415 z"
       style="fill:#f0ebf2;fill-opacity:1;fill-rule:nonzero;stroke:none"
       transform="matrix(1.3333333,0,0,-1.3333333,714.31293,451.574)"
       clip-path="url(#clipPath132)" />
    <path
       id="path133"
       d="m 0,0 c -0.009,0.524 0.354,0.9 0.847,0.909 0.617,0.01 0.9,-0.354 0.945,-1.154 l 0.491,-10.283 c 1.781,3.73 3.263,7.022 3.958,9.622 0.23,0.868 0.24,2.099 1.348,2.118 C 8.021,1.22 8.855,1.05 8.447,-0.313 L 3.663,-11.919 9.611,-22.507 c 0.316,-0.548 0.054,-1.384 -0.747,-1.399 -0.399,-0.007 -0.554,-0.009 -0.808,0.386 -1.779,3.081 -3.513,7.116 -5.665,10.283 l 0.004,-0.247 c 0.025,-1.417 0.516,-6.461 0.584,-10.341 -0.324,-0.837 -1.613,-1.199 -1.695,0.033 z"
       style="fill:#f0ebf2;fill-opacity:1;fill-rule:nonzero;stroke:none"
       transform="matrix(1.3333333,0,0,-1.3333333,724.59067,438.53587)"
       clip-path="url(#clipPath134)" />
  </g>
</svg>
