<svg version="1.1" viewBox="0 0 341.51 395.29"
    xmlns="http://www.w3.org/2000/svg" class="w-32 fill-white sm:block sm:w-48">
    <defs>
        <clipPath id="clipPath10">
            <path transform="translate(-281.14 -447.26)" d="M 0,610.642 H 610.642 V 0 H 0 Z" />
        </clipPath>
        <clipPath id="clipPath12">
            <path transform="translate(-225.98 -361.22)" d="M 0,610.642 H 610.642 V 0 H 0 Z" />
        </clipPath>
        <clipPath id="clipPath14">
            <path transform="translate(-345.64 -214.88)" d="M 0,610.642 H 610.642 V 0 H 0 Z" />
        </clipPath>
        <clipPath id="clipPath16">
            <path transform="translate(-325.95 -423.23)" d="M 0,610.642 H 610.642 V 0 H 0 Z" />
        </clipPath>
        <clipPath id="clipPath18">
            <path transform="translate(-430.33 -231.1)" d="M 0,610.642 H 610.642 V 0 H 0 Z" />
        </clipPath>
        <clipPath id="clipPath20">
            <path transform="translate(-198.03 -246.01)" d="M 0,610.642 H 610.642 V 0 H 0 Z" />
        </clipPath>
        <clipPath id="clipPath22">
            <path transform="translate(-325.77 -175.44)" d="M 0,610.642 H 610.642 V 0 H 0 Z" />
        </clipPath>
        <clipPath id="clipPath24">
            <path transform="translate(-360.89 -454.24)" d="M 0,610.642 H 610.642 V 0 H 0 Z" />
        </clipPath>
        <clipPath id="clipPath26">
            <path transform="translate(-415.04 -351.71)" d="M 0,610.642 H 610.642 V 0 H 0 Z" />
        </clipPath>
        <clipPath id="clipPath28">
            <path transform="translate(-284.1 -208.89)" d="M 0,610.642 H 610.642 V 0 H 0 Z" />
        </clipPath>
        <clipPath id="clipPath62">
            <path transform="translate(-369.53 -208.76)" d="M 0,610.642 H 610.642 V 0 H 0 Z" />
        </clipPath>
        <clipPath id="clipPath64">
            <path transform="translate(-253.94 -364.92)" d="M 0,610.642 H 610.642 V 0 H 0 Z" />
        </clipPath>
        <clipPath id="clipPath66">
            <path transform="translate(-253.88 -215.1)" d="M 0,610.642 H 610.642 V 0 H 0 Z" />
        </clipPath>
        <clipPath id="clipPath68">
            <path transform="translate(-380.1 -365)" d="M 0,610.642 H 610.642 V 0 H 0 Z" />
        </clipPath>
        <clipPath id="clipPath70">
            <path transform="translate(-423.23 -375.02)" d="M 0,610.642 H 610.642 V 0 H 0 Z" />
        </clipPath>
        <clipPath id="clipPath72">
            <path transform="translate(-193.93 -386.93)" d="M 0,610.642 H 610.642 V 0 H 0 Z" />
        </clipPath>
        <clipPath id="clipPath74">
            <path transform="translate(-251.5 -215.16)" d="M 0,610.642 H 610.642 V 0 H 0 Z" />
        </clipPath>
        <clipPath id="clipPath76">
            <path transform="translate(-372.35 -209.04)" d="M 0,610.642 H 610.642 V 0 H 0 Z" />
        </clipPath>
        <clipPath id="clipPath78">
            <path transform="translate(-309.62 -259.61)" d="M 0,610.642 H 610.642 V 0 H 0 Z" />
        </clipPath>
        <clipPath id="clipPath80">
            <path transform="translate(-312.06 -259.55)" d="M 0,610.642 H 610.642 V 0 H 0 Z" />
        </clipPath>
        <clipPath id="clipPath82">
            <path transform="translate(-315.1 -258.61)" d="M 0,610.642 H 610.642 V 0 H 0 Z" />
        </clipPath>
        <clipPath id="clipPath84">
            <path transform="translate(-402.23 -276.68)" d="M 0,610.642 H 610.642 V 0 H 0 Z" />
        </clipPath>
        <clipPath id="clipPath86">
            <path transform="translate(-356.8 -300.67)" d="M 0,610.642 H 610.642 V 0 H 0 Z" />
        </clipPath>
    </defs>
    <g transform="translate(-251.05 -208.17)">
        <path transform="matrix(1.3333 0 0 -1.3333 374.85 217.84)" d="m0 0-1.947-5.764c-0.189-0.368-0.473-0.642-0.802-0.773l-5.766-0.996c-0.393-0.157-0.461-0.827-0.112-1.105l5.69-2.915c0.207-0.165 0.379-0.392 0.501-0.661l1.818-6.04c0.166-0.368 0.569-0.415 0.785-0.091l2.865 6.089c0.121 0.181 0.268 0.332 0.432 0.444l5.736 2.58c0.375 0.255 0.325 0.958-0.08 1.124l-5.879 1.482c-0.354 0.144-0.653 0.453-0.837 0.863l-1.582 5.732c-0.178 0.399-0.625 0.415-0.822 0.031" clip-path="url(#clipPath10)" />
        <path transform="matrix(1.3333 0 0 -1.3333 301.3 332.56)" d="m0 0-1.947-5.764c-0.189-0.368-0.473-0.642-0.802-0.773l-5.766-0.996c-0.393-0.157-0.461-0.827-0.112-1.105l5.69-2.915c0.207-0.165 0.379-0.392 0.501-0.661l1.818-6.04c0.166-0.368 0.569-0.415 0.785-0.091l2.865 6.089c0.121 0.181 0.268 0.332 0.432 0.444l5.736 2.58c0.375 0.255 0.325 0.958-0.08 1.124l-5.879 1.482c-0.354 0.144-0.653 0.453-0.837 0.863l-1.582 5.732c-0.178 0.399-0.625 0.416-0.822 0.031" clip-path="url(#clipPath12)" />
        <path transform="matrix(1.3333 0 0 -1.3333 460.85 527.68)" d="m0 0-1.947-5.764c-0.189-0.368-0.473-0.642-0.802-0.773l-5.766-0.996c-0.393-0.157-0.461-0.827-0.112-1.105l5.69-2.915c0.207-0.165 0.379-0.392 0.501-0.661l1.818-6.04c0.166-0.368 0.569-0.415 0.785-0.091l2.865 6.089c0.121 0.181 0.268 0.332 0.432 0.444l5.736 2.58c0.375 0.255 0.325 0.958-0.08 1.124l-5.879 1.482c-0.354 0.144-0.653 0.453-0.837 0.863l-1.582 5.732c-0.178 0.399-0.625 0.416-0.822 0.031" clip-path="url(#clipPath14)" />
        <path transform="matrix(1.3333 0 0 -1.3333 434.61 249.88)" d="m0 0-1.952-3.594c-0.189-0.368-0.472-0.642-0.802-0.773l-5.766-0.996c-0.392-0.157-0.46-0.827-0.111-1.105l5.69-2.915c0.207-0.165 0.378-0.392 0.5-0.661l2.299-4.335c0.167-0.368 0.57-0.415 0.785-0.09l2.385 4.383c0.121 0.181 0.267 0.332 0.432 0.444l5.735 2.58c0.375 0.256 0.325 0.958-0.08 1.124l-5.879 1.482c-0.354 0.144-0.652 0.453-0.836 0.863l-1.578 3.562c-0.178 0.399-0.625 0.415-0.822 0.031" clip-path="url(#clipPath16)" />
        <path transform="matrix(1.3333 0 0 -1.3333 573.78 506.06)" d="m0 0-1.952-3.594c-0.189-0.368-0.472-0.642-0.802-0.773l-5.766-0.996c-0.392-0.157-0.46-0.827-0.111-1.105l5.69-2.915c0.207-0.165 0.378-0.392 0.5-0.661l2.299-4.335c0.167-0.368 0.57-0.415 0.785-0.09l2.385 4.383c0.121 0.181 0.267 0.332 0.432 0.444l5.735 2.58c0.375 0.256 0.325 0.958-0.08 1.124l-5.879 1.482c-0.354 0.144-0.652 0.453-0.836 0.863l-1.578 3.562c-0.178 0.399-0.625 0.415-0.822 0.031" clip-path="url(#clipPath18)" />
        <path transform="matrix(1.3333 0 0 -1.3333 264.04 486.18)" d="m0 0-1.952-3.594c-0.189-0.368-0.472-0.642-0.802-0.773l-5.766-0.996c-0.392-0.157-0.46-0.827-0.111-1.105l5.69-2.915c0.207-0.165 0.378-0.392 0.5-0.661l2.299-4.335c0.167-0.368 0.57-0.414 0.785-0.09l2.385 4.383c0.121 0.181 0.267 0.332 0.432 0.444l5.735 2.58c0.375 0.256 0.325 0.958-0.08 1.124l-5.879 1.482c-0.354 0.144-0.652 0.453-0.836 0.864l-1.578 3.561c-0.178 0.399-0.625 0.416-0.822 0.031" clip-path="url(#clipPath20)" />
        <path transform="matrix(1.3333 0 0 -1.3333 434.36 580.27)" d="m0 0-1.952-3.594c-0.189-0.368-0.472-0.642-0.802-0.773l-5.766-0.996c-0.392-0.157-0.46-0.827-0.111-1.105l5.69-2.915c0.206-0.165 0.378-0.392 0.5-0.661l2.299-4.335c0.167-0.368 0.57-0.414 0.785-0.09l2.385 4.383c0.121 0.181 0.267 0.332 0.432 0.444l5.735 2.58c0.375 0.256 0.325 0.958-0.08 1.124l-5.879 1.482c-0.354 0.144-0.652 0.453-0.836 0.863l-1.578 3.562c-0.178 0.399-0.625 0.416-0.822 0.031" clip-path="url(#clipPath22)" />
        <path transform="matrix(1.3333 0 0 -1.3333 481.18 208.54)" d="m0 0-2.935-9.673c-0.189-0.369-0.473-0.642-0.802-0.773l-5.766-0.997c-0.393-0.156-0.461-0.827-0.112-1.104l5.69-2.915c0.207-0.165 0.379-0.392 0.501-0.661l1.36-9.923c0.166-0.368 0.57-0.415 0.785-0.091l3.949 9.972c0.121 0.181 0.267 0.332 0.432 0.444l5.11 2.58c0.375 0.255 0.325 0.958-0.08 1.123l-5.03 1.482c-0.354 0.145-0.652 0.453-0.836 0.864l-1.444 9.641c-0.178 0.399-0.625 0.416-0.822 0.031" clip-path="url(#clipPath24)" />
        <path transform="matrix(1.3333 0 0 -1.3333 553.38 345.25)" d="m0 0-2.935-9.673c-0.189-0.369-0.473-0.642-0.802-0.773l-5.766-0.997c-0.393-0.156-0.461-0.827-0.112-1.104l5.69-2.915c0.207-0.165 0.379-0.392 0.501-0.661l1.36-9.923c0.166-0.368 0.57-0.415 0.785-0.091l3.949 9.972c0.121 0.181 0.267 0.332 0.432 0.444l5.11 2.58c0.375 0.255 0.325 0.958-0.08 1.123l-5.03 1.482c-0.354 0.145-0.652 0.453-0.836 0.864l-1.444 9.641c-0.178 0.399-0.625 0.415-0.822 0.031" clip-path="url(#clipPath26)" />
        <path transform="matrix(1.3333 0 0 -1.3333 378.79 535.67)" d="m0 0-2.935-9.673c-0.189-0.369-0.473-0.642-0.802-0.773l-5.766-0.997c-0.393-0.156-0.461-0.827-0.112-1.104l5.69-2.915c0.207-0.165 0.379-0.392 0.501-0.661l1.36-9.923c0.166-0.368 0.57-0.415 0.785-0.091l3.949 9.972c0.121 0.181 0.267 0.332 0.432 0.444l5.11 2.58c0.375 0.255 0.325 0.958-0.08 1.123l-5.03 1.482c-0.354 0.145-0.652 0.453-0.836 0.864l-1.444 9.641c-0.178 0.399-0.625 0.416-0.822 0.031" clip-path="url(#clipPath28)" />
        <path transform="matrix(1.3333 0 0 -1.3333 492.71 535.85)" d="m0 0-13.457 16.658 3.093 2.496 13.457-16.658z" clip-path="url(#clipPath62)" />
        <path transform="matrix(1.3333 0 0 -1.3333 338.58 327.63)" d="m0 0-20.709 26.472 3.129 2.448 20.709-26.472z" clip-path="url(#clipPath64)" />
        <path transform="matrix(1.3333 0 0 -1.3333 338.5 527.39)" d="m0 0-2.932 2.681 16.487 18.022 2.932-2.681z" clip-path="url(#clipPath66)" />
        <path transform="matrix(1.3333 0 0 -1.3333 506.8 327.52)" d="m0 0-2.914 2.705 21.447 23.125 2.914-2.705z" clip-path="url(#clipPath68)" />
        <path transform="matrix(1.3333 0 0 -1.3333 564.3 314.17)" d="m0 0c-3.594-0.285-10.079 3.918-12.185 7.137-0.581 0.889-0.736 1.882-0.482 3.034 0.777 3.487 5.201 7.335 7.803 8.94 2.491 1.54 5.403 2.877 9.159 4.207 1.503 0.532 2.48 0.743 3.88 0.481 0.019-3e-3 0.044-8e-3 0.063-0.012 1.847-0.365 4.149-2.146 5.75-3.717-0.171 0.065-0.338 0.122-0.498 0.178-1.473 0.538-3.124 1.174-4.31 1.245-2.525 0.243-6.96-1.806-7.147-1.895-1.981-0.915-4.879-2.386-7.125-4.543-1.166-1.119-2.618-2.959-2.909-5.356-0.17-1.431 0.11-2.952 0.791-4.286 0.632-1.252 1.555-2.238 2.658-2.864 1.221-0.693 2.753-0.986 4.56-0.859 2.517 0.172 5.026 1.106 7.062 2.633 1.874 1.394 4.352 3.566 4.212 6.326-0.077 1.516-1.106 2.954-2.682 3.747-2.435 1.216-5.961 1.049-7.733-1.275-1.817-2.387-1.118-4.19-0.731-4.859 0.16-0.266 0.712-1.136 1.491-1.033 1.42 0.194 1.257 1.739 1.179 2.481-0.029 0.228-0.063 0.576-0.045 0.671 0.189 0.522 1.284 1.569 2.505 1.721 0.978 0.112 1.764-0.349 2.366-1.236 0.083-0.291 0.022-1.387-0.101-1.626-1.322-1.773-3.213-3.117-5.311-3.787-1.486-0.476-2.839-0.558-4.055-0.192-1.292 0.386-2.337 1.355-2.659 2.47-0.579 2.023 1.008 4.133 1.508 4.734 1.42 1.702 3.582 2.674 5.821 3.678 2.233 0.999 4.343 1.942 6.993 1.663 2.298-0.227 6.169-2.282 6.467-3.806 0.318-1.594-0.162-3.425-1.431-5.444-3.015-4.799-8.71-8.081-14.864-8.556m-4.273 23.393-0.97-0.454c-6.198-2.887-9.997-7.002-11.289-12.228-1.751 1.474-4.352 4.006-6.343 5.946-1.22 1.192-2.251 2.198-2.813 2.696l-0.334 0.286c-8.126 7.105-10.748 10.894-11.522 12.822-1.107 2.771-0.964 6.029 0.377 8.709 1.418 2.849 3.751 5.12 6.057 7.148 1.468 1.292 4.144 2.628 6.221 3.111 0.822 0.188 1.564 0.193 2.273 0.06 1.559-0.291 2.946-1.252 4.559-2.373 0.407-0.28 0.819-0.567 1.244-0.849 7.017-4.656 9.891-7.377 15.625-12.797l2.323-2.198c1.432-1.35 2.683-2.442 3.703-3.335 1.026-0.893 2.081-1.812 2.49-2.321-0.165-0.041-0.417-0.092-0.799-0.139-2.839-0.348-7.438-2.503-10.802-4.084m23.705-4.892c-1.301 4.125-4.729 7.211-7.479 9.686-2.532 2.277-5.032 4.613-7.539 6.95-4.944 4.623-10.063 9.403-15.395 13.672-5.964 4.78-11.487 8.449-18.694 4.899-5.719-2.812-10.51-8.584-11.931-14.363-0.988-4.019-0.313-7.771 1.949-10.856 2.408-3.289 6.473-6.967 10.057-10.207 1.217-1.1 2.378-2.15 3.38-3.104 1.649-1.561 3.351-3.289 5.088-5.05 6.299-6.39 12.785-12.973 18.834-14.104 0.849-0.159 1.692-0.212 2.525-0.138 5.471 0.472 8.91 2.766 12.239 5.284 2.85 2.162 5.126 5.073 6.39 8.187 1.281 3.131 1.479 6.293 0.576 9.144" clip-path="url(#clipPath70)" />
        <path transform="matrix(1.3333 0 0 -1.3333 258.57 298.29)" d="m0 0c-1.119 2.105-1.465 3.966-1.032 5.533 0.409 1.499 4.419 3.267 6.728 3.326 2.662 0.085 4.698-1.008 6.852-2.167 2.161-1.164 4.247-2.291 5.539-4.091 0.455-0.636 1.885-2.855 1.16-4.831-0.402-1.089-1.515-1.98-2.831-2.271-1.24-0.276-2.583-0.096-4.031 0.487-2.044 0.82-3.832 2.299-5.021 4.162-0.106 0.248-0.087 1.346 0.017 1.63 0.665 0.84 1.482 1.244 2.449 1.061 1.208-0.241 2.223-1.365 2.374-1.899 0.011-0.096-0.048-0.44-0.094-0.666-0.131-0.735-0.406-2.264 0.995-2.56 0.771-0.16 1.384 0.668 1.563 0.922 0.434 0.639 1.262 2.386-0.376 4.9-1.599 2.446-5.103 2.869-7.62 1.833-1.629-0.676-2.76-2.036-2.947-3.542-0.34-2.743 1.974-5.09 3.741-6.616 1.92-1.671 4.354-2.785 6.852-3.139 1.793-0.258 3.342-0.078 4.61 0.526 1.145 0.544 2.138 1.46 2.859 2.663 0.777 1.281 1.166 2.777 1.101 4.216-0.116 2.413-1.431 4.353-2.513 5.554-2.083 2.315-4.866 3.992-6.775 5.048-0.18 0.103-4.455 2.469-6.99 2.411-1.189 0.015-2.882-0.5-4.39-0.929-0.164-0.045-0.334-0.09-0.51-0.142 1.711 1.451 4.137 3.06 6.005 3.29 0.019 2e-3 0.045 5e-3 0.064 7e-3 1.416 0.16 2.375-0.122 3.835-0.761 3.65-1.6 6.457-3.145 8.829-4.863 2.478-1.789 6.611-5.948 7.132-9.482 0.171-1.168-0.056-2.147-0.701-2.991-2.334-3.059-9.107-6.779-12.671-6.233-6.103 0.921-11.544 4.608-14.203 9.614m9.689 18.265c-0.378 0.074-0.626 0.143-0.788 0.196 0.446 0.479 1.564 1.318 2.652 2.135 1.082 0.815 2.41 1.814 3.937 3.057l2.476 2.023c6.112 4.988 9.177 7.493 16.513 11.627 0.445 0.251 0.877 0.507 1.303 0.756 1.69 1.001 3.144 1.859 4.719 2.036 0.718 0.081 1.457 0.022 2.263-0.225 2.037-0.633 4.608-2.159 5.978-3.555 2.153-2.19 4.315-4.625 5.522-7.57 1.142-2.77 1.049-6.03-0.257-8.713-0.912-1.867-3.803-5.454-12.424-11.951l-0.353-0.26c-0.597-0.457-1.699-1.385-3.002-2.485-2.127-1.789-4.905-4.126-6.758-5.469-0.909 5.306-4.398 9.687-10.37 13.016l-0.935 0.523c-3.24 1.821-7.671 4.306-10.476 4.859m-13.612-17.176c1.034-3.198 3.092-6.267 5.778-8.63 3.137-2.754 6.4-5.292 11.822-6.16 0.826-0.134 1.67-0.143 2.528-0.046 6.117 0.689 13.064 6.783 19.811 12.699 1.859 1.629 3.683 3.229 5.441 4.666 1.068 0.879 2.302 1.842 3.596 2.85 3.81 2.971 8.132 6.344 10.772 9.45 2.481 2.912 3.427 6.605 2.734 10.684-0.998 5.868-5.356 11.973-10.856 15.193-6.93 4.064-12.705 0.807-19.001-3.528-5.628-3.87-11.08-8.265-16.348-12.516-2.67-2.149-5.333-4.297-8.023-6.384-2.923-2.268-6.567-5.098-8.164-9.117-1.107-2.777-1.14-5.946-0.09-9.161" clip-path="url(#clipPath72)" />
        <path transform="matrix(1.3333 0 0 -1.3333 335.33 527.31)" d="m0 0c0.341-0.33 0.644-0.686 0.863-1.074 0.303-0.543 0.366-1.241 0.27-1.609-0.956-1.347-30.941-32.682-33.53-35.162-0.179-0.172-0.506-0.522-1.027-1.084-0.197-0.209-0.409-0.434-0.625-0.662-0.781 1.195-1.989 2.125-3.644 2.802l-0.306 0.128c-0.682 0.279-1.326 0.541-1.93 0.75 0.143 0.147 0.301 0.303 0.464 0.472l0.701 0.728c4.041 4.195 32.872 33.841 34.818 35.265l0.326 0.248c0.392 0.298 0.727 0.555 0.963 0.611 0.096 0.023 0.182 0.025 0.281 8e-3 0.475-0.086 1.163-0.389 1.5-0.661 0.299-0.242 0.601-0.493 0.876-0.76m-32.098-42.37 0.048 0.056c0.5 0.553 0.984 1.096 1.451 1.583l1.007 1.013c0.216 0.215 32.489 33.358 33.32 34.614 0.846 1.272 1.06 2.824 0.599 4.381-0.635 2.133-2.444 4.107-4.589 5.048-3.158 1.378-5.464-0.655-6.989-2.001-0.988-0.868-18.265-18.583-33.652-34.413l-1.544-1.591c-0.639-0.653-1.282-1.309-1.947-1.962-0.87-0.866-2.069-2.051-2.488-3.652-0.312-1.165-0.182-2.419 0.378-3.624 0.359-0.773 0.881-1.498 1.525-2.123 0.303-0.294 0.633-0.566 0.988-0.807 1.172-0.805 2.49-1.598 4.523-1.678 0.36-0.016 0.726 0.023 1.082 0.109 2.224 0.522 4.289 2.825 6.288 5.047" clip-path="url(#clipPath74)" />
        <path transform="matrix(1.3333 0 0 -1.3333 496.47 535.47)" d="m0 0c0.364 0.305 0.749 0.571 1.157 0.748 0.572 0.246 1.272 0.237 1.628 0.103 1.242-1.089 29.328-34.137 31.529-36.967 0.153-0.196 0.467-0.557 0.973-1.133 0.187-0.218 0.389-0.452 0.594-0.689-1.269-0.655-2.319-1.761-3.162-3.337l-0.159-0.292c-0.348-0.649-0.674-1.263-0.944-1.842-0.132 0.157-0.271 0.33-0.422 0.51l-0.652 0.772c-3.757 4.45-30.282 36.177-31.498 38.259l-0.214 0.349c-0.256 0.422-0.478 0.781-0.509 1.022-0.013 0.097-5e-3 0.183 0.022 0.279 0.133 0.464 0.506 1.117 0.811 1.424 0.272 0.273 0.552 0.548 0.846 0.794m38.845-36.284-5e-3 7e-3 -0.046 0.047c-0.498 0.554-0.988 1.092-1.425 1.606l-0.903 1.106c-0.193 0.236-29.842 35.746-31.006 36.701-1.178 0.973-2.699 1.345-4.296 1.047-2.187-0.413-4.337-2.009-5.493-4.046-1.695-2.999 0.09-5.502 1.272-7.158 0.762-1.072 16.607-20.078 30.771-37.012l1.423-1.698c0.584-0.704 1.171-1.411 1.752-2.139 0.772-0.955 1.827-2.269 3.377-2.85 1.127-0.43 2.388-0.43 3.644 3e-3 0.806 0.278 1.581 0.722 2.268 1.298 0.324 0.272 0.629 0.572 0.905 0.9 0.92 1.084 1.845 2.313 2.134 4.327 0.053 0.357 0.051 0.725 3e-3 1.087-0.291 2.267-2.37 4.558-4.375 6.774" clip-path="url(#clipPath76)" />
        <path transform="matrix(1.3333 0 0 -1.3333 412.83 468.04)" d="m0 0c-1.037-6.104-3.683-14.73-9.971-17.986-48.424-23.813-90.797 50.041-96.43 59.163-10.528 17.047-8.866 23.212 12.345 11.413 0 0 23.112-14.898 46.356-13.689-1.949 2.604-4.403 5.209-5.37 7.814-9.101-0.192-16.105 1.179-35.173 9.266l-4.549 1.937c-15.326 6.557-22.989 9.891-27.078 5.401-3.533-3.907-0.934-10.544 10.686-27.336 1.832-2.643 3.697-5.393 5.598-8.202 20.059-29.645 47.16-69.706 90.386-52.556 2.233 0.886 4.52 1.93 6.837 3.132 8.255 4.273 12.944 9.733 14.23 19.272-2.735 0-5.131 2.371-7.867 2.371" clip-path="url(#clipPath78)" />
        <path transform="matrix(1.3333 0 0 -1.3333 416.08 468.12)" d="m0 0c-18.593-1.115-31.754-0.296-47.956 7.231-1.278 0.594-2.737 1.404-4.3 2.348-2.099 10.313-9.589 20.576-10.71 19.809-1.134-0.767 3.565-10.746 4.34-16.251-13.275 6.825-26.078 19.648-26.968 18.61-0.883-1.044 10.198-18.843 35.55-29.002 0.082-0.032 0.155-0.065 0.235-0.101-3.615-2.55-11.681-2.58-11.681-3.946s7.834-3.651 18.317 1.198c10.478-3.916 20.092-5.258 31.173-5.258 3.886 0 7.953 0.161 12.296 0.425 1.367 0.078 2.404 1.251 2.321 2.617-0.078 1.36-1.025 2.578-2.617 2.32" clip-path="url(#clipPath80)" />
        <path transform="matrix(1.3333 0 0 -1.3333 420.13 469.37)" d="m0 0c0.054-6.191 2.389-16.733 8.079-20.948 44.023-31.208 95.941 36.845 102.95 44.954 13.105 15.157 16.295 22.253-6.522 13.976 0 0-28.475-12.047-51.232-7.159 2.338 2.262 5.176 4.443 6.545 6.861 8.954-1.636 16.087-1.396 36.199 3.558l4.798 1.189c16.173 4.036 24.27 6.11 27.592 1.027 2.868-4.419-0.754-10.558-14.896-25.29-2.228-2.317-4.507-4.736-6.83-7.207-24.516-26.08-57.641-61.323-97.591-37.519-2.064 1.229-4.156 2.624-6.252 4.179-7.472 5.531-11.233 11.667-10.986 21.289 2.701-0.435 5.443 1.525 8.144 1.09" clip-path="url(#clipPath82)" />
        <path transform="matrix(1.3333 0 0 -1.3333 536.3 445.29)" d="m0 0c-0.702 1.167-20.526-12.76-29.477-13.463 4.992 5.672 7.764 13.798 6.772 14.739-0.986 0.928-4.342-8.368-13.727-17.858-1.692-0.683-3.26-1.249-4.615-1.631-17.189-4.866-30.31-3.583-48.498 0.483-1.353 0.29-2.661-0.554-2.958-1.875-0.296-1.334 0.542-2.662 1.876-2.958 10.363-2.314 19.154-3.758 27.97-3.758 5.122 0 10.269 0.528 15.714 1.619 8.016-6.148 17.703-5.312 17.896-4.094 0.219 1.347-9.258 2.449-10.901 5.754 0.083 0.023 0.157 0.044 0.241 0.06 19.803 3.623 40.416 21.815 39.707 22.982" clip-path="url(#clipPath84)" />
        <path transform="matrix(1.3333 0 0 -1.3333 475.74 413.3)" d="m0 0c-5.144 10.895-11.64 12.725-18.983 16.829-3.391 1.894-9.091 4.786-14.872 7.976 6.759-0.238 14.676-1.587 18.747-1.689 8.461-0.213 22.405 2.447 33.841 7.264 1.516 0.639 2.94 1.396 4.463 2.025 0.247 0.102 0.785-0.181 1.188-0.286 0.139-13.441-11.855-40.897-22.992-51.862 0.866 2.516 2.904 10.643-1.392 19.743m-34.093 41.038c6.344-2.51 14.238-2.345 18.726-0.91 4.576 1.464 7.495 4.556 11.369 7.691 4.252-5.679 6.84-11.208 3.342-15.238-2.743-3.16-10.204-4.54-16.917-2.853-6.665 1.675-13.596 5.644-16.52 11.31m-0.202-8.973c-0.236 0.497-5.904-0.395-12.901 2.778-5.37 2.436-8.697 7.546-10.264 10.378-1.477 2.669-2.576 5.539-2.226 8.298 0.338 2.67 2.032 5.054 4.346 6.881 2.315 1.826 5.224 3.133 8.264 4.178 6.19 2.128 13.33 3.222 20.272 1.753 5.671-1.201 10.901-4.154 14.389-8.01 1.878-2.076 2.458-3.923 1.834-6.288-0.583-2.206-2.225-4.17-4.458-5.471-0.688-0.4-1.439-0.761-2.239-1.078-4.184-1.662-9.688-2.14-14.285-0.955-2.953 0.761-8.427 3.078-9.027 2.731-1.277-0.601-0.581-7.543 6.295-15.195m22.863-59.423c-5.399-4.011-10.379-6.973-14.185-9.096-0.667 9.416-4.989 20.44-11.557 27.321-6.694 7.013-14.14 13.581-21.791 19.972-6.561 5.481-14.943 10.25-20.408 16.449-2.257 2.56-13.874 14.94-15.017 16.873-1.568 2.649-1.791 5.68-2.144 8.466-1.483 11.698 6.293 22.602 17.797 29.026 27.539 15.377 71.343 13.125 94.154-12.176 1.157-1.283 2.238-2.605 3.237-3.96 3.823-5.191 6.495-10.993 6.417-16.716-0.101-7.396-5.239-12.88-12.817-16.372-1.818-0.838-3.99-1.405-5.204-0.463-2.357 8.915-3.412 17.508-10.207 25.577-5.388 6.397-13.569 11.636-22.769 13.541-24.126 4.996-51.608-12.555-35.907-32.313 5.274-6.637 12.988-11.762 21.024-16.239 8.267-4.606 17.557-8.266 25.143-13.662 5.73-4.075 10.47-9.344 11.852-15.119 2.323-9.715-4.423-18.736-7.618-21.109m-33.584-13.631c-5.832 0-11.648 2.236-16.522 5.185-14.067 8.51-23.368 20.79-29.223 33.507-5.601 12.165-10.107 26.622-9.896 39.2 0.028 1.65 0.485 3.119 0.777 4.71-0.326-1.819 16.778-18.556 21.604-22.707 16.666-14.337 40.563-27.162 45.954-46.883 0.118-0.434 0.661-4.493 0.196-5.986-1.357-4.363-7.057-7.025-12.89-7.026m65.823 112.81c-4.777 6.509-11.891 11.684-20.116 15.566-13.373 6.313-29.683 9.209-43.652 8.862-25.074-0.622-48.63-11.718-58.973-29.108-6.739-11.331-6.485-24.435-4.279-37.269 2.772-16.121 6.376-34.594 17.582-49.208 8.36-10.903 20.638-19.467 34.522-25.796 2.46-1.122 5.044-2.187 7.769-2.484 3.744-0.408 7.273 0.675 10.57 1.804 12.091 4.141 23.673 9.217 33.453 15.996 20.955 14.523 27.738 36.504 32.769 58.116 3.387 14.547 0.398 29.836-9.645 43.521" clip-path="url(#clipPath86)" />
    </g>
</svg>