              <svg
                preserveAspectRatio="xMidYMid meet"
                data-bbox="96.8 18.6 342 126"
                viewBox="96.8 18.6 342 126"
                xmlns="http://www.w3.org/2000/svg"
                data-type="color"
                role="presentation"
                aria-hidden="true"
                class="h-14 rounded-lg sm:h-20"
              >
                <g>
                  <path
                    d="M438.8 18.6v126h-342v-126h342z"
                    fill="#000000"
                    data-color="1"
                  ></path>
                  <path
                    d="M123.5 118.8V45.1h31.6v11.2h-20.5v20.1h15v11.2h-15v20.1h20.5v11.2h-31.6z"
                    fill="#ffffff"
                    data-color="2"
                  ></path>
                  <path
                    d="M172.2 45.1l12 40.2V45.1h9V105h-9.7l-12.4-38.3V105h-9V45.1h10.1z"
                    fill="#ffffff"
                    data-color="2"
                  ></path>
                  <path
                    d="M210.3 105h-9V45.1H227v9.1h-16.7v16.3h12.2v9.1h-12.2V105z"
                    fill="#ffffff"
                    data-color="2"
                  ></path>
                  <path
                    d="M247.4 44.4c4 0 7.4 1.4 10.1 4.2 2.8 2.8 4.2 6.2 4.2 10.1v32.7c0 4-1.4 7.4-4.2 10.1-2.8 2.8-6.2 4.2-10.1 4.2-4 0-7.4-1.4-10.1-4.2-2.8-2.8-4.2-6.2-4.2-10.1V58.7c0-4 1.4-7.4 4.2-10.1 2.9-2.8 6.2-4.2 10.1-4.2zm5 14.1c0-1.4-.5-2.7-1.5-3.7s-2.2-1.5-3.7-1.5c-1.4 0-2.7.5-3.7 1.5S242 57 242 58.5v32.8c0 1.4.5 2.6 1.5 3.7 1 1 2.2 1.5 3.7 1.5 1.4 0 2.6-.5 3.7-1.5 1-1 1.5-2.2 1.5-3.7V58.5z"
                    fill="#ffffff"
                    data-color="2"
                  ></path>
                  <path
                    d="M284 45.2c5 0 8.7 1.4 11.1 4.2 2.1 2.4 3.1 5.8 3.1 10.1v8.7c0 4.2-1.6 7.8-4.8 10.7L300 105h-9.8l-5.5-22.5h-6V105h-9V45.2H284zm5.4 14.4c0-3.5-1.7-5.2-5.2-5.2h-5.4v19.1h5.4c1.4 0 2.6-.5 3.7-1.5 1-1 1.5-2.2 1.5-3.7v-8.7z"
                    fill="#ffffff"
                    data-color="2"
                  ></path>
                  <path
                    d="M320.5 105.8c-4 0-7.4-1.4-10.1-4.2-2.8-2.8-4.2-6.2-4.2-10.1V58.8c0-4 1.4-7.4 4.2-10.1 2.8-2.8 6.2-4.2 10.1-4.2 4 0 7.4 1.4 10.1 4.2 2.8 2.8 4.2 6.2 4.2 10.1v6.8h-9.4v-7c0-1.4-.5-2.7-1.5-3.7s-2.2-1.5-3.7-1.5c-1.4 0-2.7.5-3.7 1.5s-1.5 2.2-1.5 3.7v32.8c0 1.4.5 2.6 1.5 3.7 1 1 2.2 1.5 3.7 1.5 1.4 0 2.7-.5 3.7-1.5s1.5-2.2 1.5-3.7v-8.3h9.4v8.4c0 4-1.4 7.4-4.2 10.1-2.8 2.8-6.2 4.2-10.1 4.2z"
                    fill="#ffffff"
                    data-color="2"
                  ></path>
                  <path
                    d="M342.2 105V45.1h25.7v9.1h-16.7v16.3h12.2v9.1h-12.2v16.3h16.7v9.1h-25.7z"
                    fill="#ffffff"
                    data-color="2"
                  ></path>
                  <path
                    d="M392.3 45.1c6.2 0 10.7 1.7 13.6 5.1 2.5 3 3.8 7.1 3.8 12.5v10.7c0 5.2-2 9.6-5.9 13.2l8.2 32.1h-12L393.3 91h-7.4v27.7h-11.1V45.1h17.5zm6.7 17.8c0-4.3-2.1-6.4-6.3-6.4H386V80h6.7c1.8 0 3.3-.6 4.5-1.9 1.2-1.3 1.9-2.8 1.9-4.5V62.9z"
                    fill="#ffffff"
                    data-color="2"
                  ></path>
                  <path
                    d="M367.9 111.6H162.1v7.1h205.8v-7.1z"
                    fill="#ffffff"
                    data-color="2"
                  ></path>
                </g>
              </svg>
